<svg xmlns="http://www.w3.org/2000/svg" xmlns:xlink="http://www.w3.org/1999/xlink" width="1920" zoomAndPan="magnify" viewBox="0 0 1440 809.999993" height="1080" preserveAspectRatio="xMidYMid meet" version="1.2"><defs><clipPath id="0d23d0f9fc"><path d="M 0 90.875 L 1439.921875 90.875 L 1439.921875 728.859375 L 0 728.859375 Z M 0 90.875 "/></clipPath><clipPath id="a2c5ee2ffe"><path d="M 1221.542969 377.136719 C 1221.828125 377.003906 1222.082031 376.832031 1222.359375 376.691406 C 1222.265625 377 1222.15625 377.300781 1222.058594 377.609375 C 1221.882812 377.449219 1221.714844 377.292969 1221.542969 377.136719 Z M 1434.058594 449.800781 C 1424.417969 427.726562 1403.554688 412.730469 1376.632812 405.648438 C 1372.5 387.933594 1362.414062 370.480469 1346.78125 356.59375 C 1314.171875 327.625 1269.035156 324.375 1241.550781 347.519531 C 1241.59375 346.847656 1241.761719 346.210938 1241.761719 345.53125 C 1241.761719 326.21875 1226.101562 310.5625 1206.792969 310.5625 C 1204.644531 310.5625 1202.566406 310.824219 1200.523438 311.191406 C 1206.394531 284.054688 1198.953125 254.207031 1178.023438 232.117188 C 1155.800781 208.675781 1124.070312 199.996094 1095.277344 206.425781 C 1095.71875 203.800781 1095.988281 201.109375 1095.988281 198.339844 C 1095.988281 174.703125 1079.375 155.542969 1058.875 155.542969 C 1058.132812 155.542969 1057.441406 155.742188 1056.714844 155.789062 C 1048.65625 119.542969 1018.222656 92.550781 981.824219 92.550781 C 947.03125 92.550781 917.648438 117.203125 908.082031 151.042969 C 903.019531 149.480469 897.644531 148.636719 892.074219 148.636719 C 865.324219 148.636719 843.152344 168.011719 838.6875 193.484375 C 830.769531 190.65625 822.351562 189.105469 813.613281 189.105469 C 767.714844 189.105469 730.503906 231.199219 730.503906 283.121094 C 728.390625 283.226562 726.234375 283.121094 724.050781 283.121094 C 706.089844 283.121094 689.828125 289.484375 678.015625 299.765625 C 678.019531 299.390625 678.066406 299.027344 678.066406 298.652344 C 678.066406 260.0625 650.953125 228.777344 617.511719 228.777344 C 604.113281 228.777344 591.773438 233.863281 581.742188 242.363281 C 581.757812 241.949219 581.867188 241.558594 581.867188 241.136719 C 581.867188 225.113281 570.851562 211.765625 556.023438 207.949219 C 564.535156 181.339844 551.640625 150.082031 523.765625 133.984375 C 502.292969 121.585938 477.488281 121.402344 458.632812 131.402344 C 444.234375 101.183594 405.917969 84.441406 366.269531 93.191406 C 325.632812 102.15625 297.601562 134.832031 298.652344 169.234375 C 297.082031 169.078125 295.5 168.972656 293.894531 168.972656 C 267.652344 168.972656 245.996094 190.214844 242.347656 217.824219 C 195.050781 229.515625 159.523438 278.964844 159.523438 338.222656 C 159.523438 349.097656 160.839844 359.585938 163.085938 369.628906 C 159.167969 368.921875 155.113281 368.523438 150.933594 368.523438 C 119.761719 368.523438 94.488281 389.285156 94.488281 414.894531 C 94.488281 420.183594 95.617188 425.242188 97.601562 429.976562 C 53.785156 435.507812 0 478.199219 0 507.90625 C 0 529.277344 23.988281 548.472656 53.378906 558.808594 C 63.480469 583.085938 107.242188 601.355469 159.691406 601.355469 C 202.046875 601.355469 238.636719 589.417969 256.515625 572.050781 C 270.734375 582.148438 290.582031 588.441406 312.582031 588.441406 C 340.390625 588.441406 364.75 578.390625 378.632812 563.292969 C 388.328125 585.585938 411.972656 601.355469 439.652344 601.355469 C 452.25 601.355469 463.980469 598.035156 473.980469 592.382812 C 487.207031 631.472656 532.980469 660.265625 602.226562 660.265625 C 649.175781 660.265625 696.769531 647.039062 729.226562 626.339844 C 733.4375 651.609375 755.582031 675.273438 787.035156 684.695312 C 811.019531 691.878906 835.011719 689.136719 852.792969 679.128906 C 869.621094 708.050781 915.738281 728.859375 970.128906 728.859375 C 1038.75 728.859375 1094.378906 695.796875 1094.378906 655.019531 C 1094.378906 654.734375 1094.308594 654.464844 1094.308594 654.179688 C 1103.164062 658.039062 1113.179688 660.265625 1123.824219 660.265625 C 1157.796875 660.265625 1185.628906 638.054688 1188.484375 609.769531 C 1224.890625 627.554688 1279.617188 626.476562 1332.898438 603.199219 C 1410.882812 569.121094 1456.175781 500.445312 1434.058594 449.800781 Z M 1434.058594 449.800781 "/></clipPath><clipPath id="1a5c025b05"><path d="M 1221.539062 377.136719 C 1221.828125 377.003906 1222.082031 376.832031 1222.359375 376.691406 C 1222.261719 377 1222.15625 377.300781 1222.058594 377.609375 C 1221.882812 377.449219 1221.714844 377.292969 1221.539062 377.136719 Z M 1434.0625 449.800781 C 1424.417969 427.726562 1403.554688 412.730469 1376.625 405.648438 C 1372.5 387.933594 1362.414062 370.480469 1346.78125 356.597656 C 1314.171875 327.625 1269.035156 324.375 1241.550781 347.519531 C 1241.585938 346.847656 1241.753906 346.210938 1241.753906 345.53125 C 1241.753906 326.21875 1226.105469 310.5625 1206.785156 310.5625 C 1204.640625 310.5625 1202.566406 310.824219 1200.523438 311.191406 C 1206.390625 284.054688 1198.953125 254.207031 1178.019531 232.117188 C 1155.796875 208.675781 1124.070312 199.996094 1095.277344 206.425781 C 1095.722656 203.800781 1095.984375 201.109375 1095.984375 198.339844 C 1095.984375 174.703125 1079.371094 155.542969 1058.871094 155.542969 C 1058.128906 155.542969 1057.441406 155.742188 1056.714844 155.792969 C 1048.652344 119.542969 1018.222656 92.550781 981.824219 92.550781 C 947.023438 92.550781 917.648438 117.203125 908.085938 151.042969 C 903.015625 149.484375 897.644531 148.636719 892.070312 148.636719 C 865.324219 148.636719 843.148438 168.011719 838.6875 193.488281 C 830.765625 190.65625 822.347656 189.105469 813.609375 189.105469 C 767.714844 189.105469 730.503906 231.199219 730.503906 283.121094 C 728.390625 283.226562 726.234375 283.121094 724.050781 283.121094 C 706.089844 283.121094 689.828125 289.484375 678.015625 299.765625 C 678.019531 299.390625 678.066406 299.027344 678.066406 298.652344 C 678.066406 260.0625 650.953125 228.777344 617.511719 228.777344 C 604.113281 228.777344 591.769531 233.863281 581.742188 242.367188 C 581.757812 241.949219 581.867188 241.558594 581.867188 241.136719 C 581.867188 225.113281 570.851562 211.765625 556.019531 207.949219 C 564.535156 181.339844 551.640625 150.082031 523.765625 133.984375 C 502.292969 121.585938 477.488281 121.402344 458.632812 131.40625 C 444.234375 101.183594 405.917969 84.441406 366.269531 93.191406 C 325.632812 102.160156 297.601562 134.835938 298.652344 169.238281 C 297.082031 169.082031 295.5 168.972656 293.894531 168.972656 C 267.652344 168.972656 245.996094 190.214844 242.34375 217.824219 C 195.050781 229.515625 159.523438 278.964844 159.523438 338.226562 C 159.523438 349.097656 160.839844 359.585938 163.085938 369.628906 C 159.167969 368.921875 155.113281 368.523438 150.933594 368.523438 C 119.761719 368.523438 94.488281 389.285156 94.488281 414.894531 C 94.488281 420.183594 95.617188 425.242188 97.605469 429.976562 C 53.785156 435.507812 0 478.199219 0 507.90625 C 0 529.277344 23.988281 548.472656 53.378906 558.808594 C 63.480469 583.085938 107.238281 601.355469 159.691406 601.355469 C 202.046875 601.355469 238.636719 589.417969 256.515625 572.050781 C 270.734375 582.148438 290.582031 588.441406 312.582031 588.441406 C 340.390625 588.441406 364.75 578.390625 378.628906 563.292969 C 388.328125 585.585938 411.96875 601.355469 439.652344 601.355469 C 452.25 601.355469 463.976562 598.035156 473.976562 592.382812 C 487.207031 631.472656 532.980469 660.265625 602.226562 660.265625 C 649.175781 660.265625 696.769531 647.039062 729.226562 626.339844 C 733.4375 651.609375 755.582031 675.273438 787.035156 684.695312 C 811.019531 691.878906 835.011719 689.136719 852.789062 679.128906 C 869.621094 708.050781 915.734375 728.859375 970.121094 728.859375 C 1038.75 728.859375 1094.375 695.800781 1094.375 655.019531 C 1094.375 654.734375 1094.308594 654.464844 1094.308594 654.179688 C 1103.164062 658.039062 1113.179688 660.265625 1123.824219 660.265625 C 1157.796875 660.265625 1185.625 638.054688 1188.484375 609.769531 C 1224.882812 627.554688 1279.609375 626.476562 1332.894531 603.199219 C 1410.878906 569.121094 1456.175781 500.445312 1434.0625 449.800781 "/></clipPath><clipPath id="0a729b27c7"><path d="M 1468.714844 92.167969 L 2.914062 26.125 L -28.671875 727.566406 L 1437.125 793.605469 Z M 1468.714844 92.167969 "/></clipPath><linearGradient x1="-0.224399" gradientTransform="matrix(-21.0695,467.875606,-467.769256,-21.074291,734.64185,164.302929)" y1="0" x2="1.274788" gradientUnits="userSpaceOnUse" y2="0" id="1d9b4078dd"><stop style="stop-color:#feb95e;stop-opacity:1;" offset="0"/><stop style="stop-color:#feb95e;stop-opacity:1;" offset="0.125"/><stop style="stop-color:#feb95e;stop-opacity:1;" offset="0.15625"/><stop style="stop-color:#feb95e;stop-opacity:1;" offset="0.164062"/><stop style="stop-color:#feb85e;stop-opacity:1;" offset="0.171875"/><stop style="stop-color:#feb75e;stop-opacity:1;" offset="0.1875"/><stop style="stop-color:#feb65e;stop-opacity:1;" offset="0.191406"/><stop style="stop-color:#feb55e;stop-opacity:1;" offset="0.195313"/><stop style="stop-color:#feb55e;stop-opacity:1;" offset="0.203125"/><stop style="stop-color:#feb55f;stop-opacity:1;" offset="0.210938"/><stop style="stop-color:#feb45f;stop-opacity:1;" offset="0.21875"/><stop style="stop-color:#feb35f;stop-opacity:1;" offset="0.226562"/><stop style="stop-color:#feb25f;stop-opacity:1;" offset="0.230469"/><stop style="stop-color:#feb25f;stop-opacity:1;" offset="0.234375"/><stop style="stop-color:#feb15f;stop-opacity:1;" offset="0.242188"/><stop style="stop-color:#feb15f;stop-opacity:1;" offset="0.25"/><stop style="stop-color:#feb05f;stop-opacity:1;" offset="0.265625"/><stop style="stop-color:#feaf5f;stop-opacity:1;" offset="0.269531"/><stop style="stop-color:#feae5f;stop-opacity:1;" offset="0.273438"/><stop style="stop-color:#feae5f;stop-opacity:1;" offset="0.28125"/><stop style="stop-color:#feae5f;stop-opacity:1;" offset="0.289062"/><stop style="stop-color:#fead5f;stop-opacity:1;" offset="0.296875"/><stop style="stop-color:#feac60;stop-opacity:1;" offset="0.3125"/><stop style="stop-color:#feab60;stop-opacity:1;" offset="0.316406"/><stop style="stop-color:#feaa60;stop-opacity:1;" offset="0.320312"/><stop style="stop-color:#feaa60;stop-opacity:1;" offset="0.328125"/><stop style="stop-color:#feaa60;stop-opacity:1;" offset="0.335937"/><stop style="stop-color:#fea960;stop-opacity:1;" offset="0.34375"/><stop style="stop-color:#fea860;stop-opacity:1;" offset="0.351562"/><stop style="stop-color:#fea760;stop-opacity:1;" offset="0.359375"/><stop style="stop-color:#fea660;stop-opacity:1;" offset="0.367187"/><stop style="stop-color:#fea660;stop-opacity:1;" offset="0.375"/><stop style="stop-color:#fea560;stop-opacity:1;" offset="0.390625"/><stop style="stop-color:#fea461;stop-opacity:1;" offset="0.394531"/><stop style="stop-color:#fea361;stop-opacity:1;" offset="0.398438"/><stop style="stop-color:#fea361;stop-opacity:1;" offset="0.40625"/><stop style="stop-color:#fea361;stop-opacity:1;" offset="0.414062"/><stop style="stop-color:#fea261;stop-opacity:1;" offset="0.421875"/><stop style="stop-color:#fea161;stop-opacity:1;" offset="0.4375"/><stop style="stop-color:#fea061;stop-opacity:1;" offset="0.441406"/><stop style="stop-color:#fe9f61;stop-opacity:1;" offset="0.445312"/><stop style="stop-color:#fe9f61;stop-opacity:1;" offset="0.453125"/><stop style="stop-color:#fe9f61;stop-opacity:1;" offset="0.460938"/><stop style="stop-color:#fe9e61;stop-opacity:1;" offset="0.46875"/><stop style="stop-color:#fe9d61;stop-opacity:1;" offset="0.476563"/><stop style="stop-color:#fe9c61;stop-opacity:1;" offset="0.484375"/><stop style="stop-color:#ff9b62;stop-opacity:1;" offset="0.492188"/><stop style="stop-color:#ff9b62;stop-opacity:1;" offset="0.5"/><stop style="stop-color:#ff9a62;stop-opacity:1;" offset="0.515625"/><stop style="stop-color:#ff9962;stop-opacity:1;" offset="0.519531"/><stop style="stop-color:#ff9862;stop-opacity:1;" offset="0.523438"/><stop style="stop-color:#ff9862;stop-opacity:1;" offset="0.53125"/><stop style="stop-color:#ff9862;stop-opacity:1;" offset="0.539062"/><stop style="stop-color:#ff9762;stop-opacity:1;" offset="0.546875"/><stop style="stop-color:#ff9662;stop-opacity:1;" offset="0.5625"/><stop style="stop-color:#ff9562;stop-opacity:1;" offset="0.566406"/><stop style="stop-color:#ff9462;stop-opacity:1;" offset="0.570312"/><stop style="stop-color:#ff9362;stop-opacity:1;" offset="0.578125"/><stop style="stop-color:#ff9362;stop-opacity:1;" offset="0.59375"/><stop style="stop-color:#ff9263;stop-opacity:1;" offset="0.601563"/><stop style="stop-color:#ff9163;stop-opacity:1;" offset="0.609375"/><stop style="stop-color:#ff9063;stop-opacity:1;" offset="0.617188"/><stop style="stop-color:#ff9063;stop-opacity:1;" offset="0.625"/><stop style="stop-color:#ff8f63;stop-opacity:1;" offset="0.640625"/><stop style="stop-color:#ff8e63;stop-opacity:1;" offset="0.644531"/><stop style="stop-color:#ff8d63;stop-opacity:1;" offset="0.648438"/><stop style="stop-color:#ff8d63;stop-opacity:1;" offset="0.65625"/><stop style="stop-color:#ff8c63;stop-opacity:1;" offset="0.664062"/><stop style="stop-color:#ff8c63;stop-opacity:1;" offset="0.671875"/><stop style="stop-color:#ff8b63;stop-opacity:1;" offset="0.679688"/><stop style="stop-color:#ff8a64;stop-opacity:1;" offset="0.6875"/><stop style="stop-color:#ff8964;stop-opacity:1;" offset="0.691406"/><stop style="stop-color:#ff8964;stop-opacity:1;" offset="0.695312"/><stop style="stop-color:#ff8864;stop-opacity:1;" offset="0.703125"/><stop style="stop-color:#ff8864;stop-opacity:1;" offset="0.71875"/><stop style="stop-color:#ff8764;stop-opacity:1;" offset="0.726562"/><stop style="stop-color:#ff8664;stop-opacity:1;" offset="0.734375"/><stop style="stop-color:#ff8564;stop-opacity:1;" offset="0.742188"/><stop style="stop-color:#ff8564;stop-opacity:1;" offset="0.75"/><stop style="stop-color:#ff8464;stop-opacity:1;" offset="0.765625"/><stop style="stop-color:#ff8365;stop-opacity:1;" offset="0.769531"/><stop style="stop-color:#ff8265;stop-opacity:1;" offset="0.773438"/><stop style="stop-color:#ff8165;stop-opacity:1;" offset="0.78125"/><stop style="stop-color:#ff8165;stop-opacity:1;" offset="0.796875"/><stop style="stop-color:#ff8065;stop-opacity:1;" offset="0.804688"/><stop style="stop-color:#ff7f65;stop-opacity:1;" offset="0.8125"/><stop style="stop-color:#ff7e65;stop-opacity:1;" offset="0.875"/><stop style="stop-color:#ff7e65;stop-opacity:1;" offset="1"/></linearGradient><clipPath id="2880de00df"><path d="M 0 429.003906 L 1440 429.003906 L 1440 728.855469 L 0 728.855469 Z M 0 429.003906 "/></clipPath></defs><g id="9244f2ef48"><rect x="0" width="1440" y="0" height="809.999993" style="fill:#ffffff;fill-opacity:1;stroke:none;"/><rect x="0" width="1440" y="0" height="809.999993" style="fill:#ffffff;fill-opacity:1;stroke:none;"/><g clip-rule="nonzero" clip-path="url(#0d23d0f9fc)"><g clip-rule="nonzero" clip-path="url(#a2c5ee2ffe)"><g clip-rule="nonzero" clip-path="url(#1a5c025b05)"><g clip-rule="nonzero" clip-path="url(#0a729b27c7)"><path style=" stroke:none;fill-rule:nonzero;fill:url(#1d9b4078dd);" d="M 1468.59375 92.164062 L 2.914062 26.132812 L -28.671875 727.566406 L 1437.003906 793.597656 Z M 1468.59375 92.164062 "/></g></g></g></g><g clip-rule="nonzero" clip-path="url(#2880de00df)"><path style=" stroke:none;fill-rule:nonzero;fill:#fd654e;fill-opacity:1;" d="M 1433.492188 448.722656 C 1402.21875 529.125 1272.441406 581.371094 1197.253906 545.011719 C 1197.175781 545.824219 1196.945312 546.585938 1196.828125 547.382812 C 1146.023438 532.453125 1163.957031 506.894531 1170.105469 499.914062 C 1192.660156 488.375 1206.792969 472.453125 1206.792969 472.453125 C 1123.910156 508.28125 1031.574219 454.535156 1031.574219 454.535156 C 1042.632812 469.339844 1053.703125 480.660156 1064.605469 489.179688 C 1130.261719 557.539062 1106.347656 587.4375 1106.347656 587.4375 C 1107.230469 638.1875 1039.460938 664.824219 978.867188 657.832031 C 908.167969 643.011719 929.171875 612.066406 929.171875 612.066406 C 946.332031 601.355469 940.5 560.242188 940.5 560.242188 C 905.480469 625.324219 853.644531 618.589844 853.644531 618.589844 C 853.644531 618.589844 853.941406 619.539062 854.496094 621.101562 C 819.972656 620.539062 781.421875 605.164062 763.554688 581.800781 C 815.296875 581.875 856.277344 543.707031 856.277344 543.707031 C 774.800781 582.960938 658.703125 514.308594 658.703125 514.308594 C 680.578125 547.503906 703.902344 565.886719 726.574219 574.824219 C 648.65625 607.019531 532.128906 599.984375 507.65625 528.398438 C 477.667969 545.183594 439.316406 536.304688 421.128906 510.21875 C 444.707031 498.621094 460.359375 480.304688 460.359375 480.304688 C 358.011719 519.539062 293.894531 445.660156 293.894531 445.660156 C 323.542969 502.683594 356.046875 519.628906 384.414062 519.480469 C 353.769531 529.5625 319.5 524.246094 297.773438 508.976562 C 252.742188 552.28125 121.359375 543.023438 101.722656 496.324219 C 79.226562 488.5 15.089844 476.269531 97.308594 429.351562 C 3.671875 449.152344 -42.40625 525.136719 53.378906 558.808594 C 73.769531 607.800781 210.007812 617.230469 256.515625 572.050781 C 291.835938 597.136719 351.5 592.804688 378.632812 563.289062 C 393.773438 598.101562 439.222656 612.03125 473.980469 592.378906 C 502.539062 676.773438 652.097656 675.527344 729.226562 626.339844 C 737.425781 675.484375 806.527344 705.167969 852.792969 679.128906 C 869.625 708.050781 915.738281 728.859375 970.132812 728.859375 C 1038.152344 728.859375 1095.066406 696.039062 1094.3125 654.179688 C 1135.386719 672.074219 1184.558594 648.703125 1188.488281 609.769531 C 1295.308594 661.953125 1476.773438 543.007812 1433.492188 448.722656 "/></g><path style=" stroke:none;fill-rule:nonzero;fill:#fbe59c;fill-opacity:1;" d="M 1241.558594 347.515625 C 1242.886719 324.398438 1222.5625 307.1875 1200.523438 311.191406 C 1213.9375 249.101562 1157.425781 192.546875 1095.28125 206.421875 C 1099.75 179.539062 1081.832031 155.539062 1058.878906 155.539062 C 1058.132812 155.539062 1057.445312 155.742188 1056.714844 155.789062 C 1038.570312 74.207031 930.734375 70.90625 908.078125 151.042969 C 876.640625 141.335938 844.265625 161.632812 838.6875 193.484375 C 784.597656 174.136719 730.183594 220.4375 730.519531 283.410156 C 710.558594 281.691406 691.597656 287.941406 678.019531 299.765625 C 678.816406 241.605469 621.691406 208.496094 581.746094 242.363281 C 582.359375 225.207031 570.800781 211.75 556.023438 207.949219 C 572.839844 155.390625 508.828125 104.777344 458.632812 131.402344 C 424.449219 59.652344 296.238281 90.214844 298.652344 169.234375 C 270.128906 166.410156 246.1875 188.765625 242.34375 217.824219 C 188.671875 231.089844 150.691406 292.8125 161.351562 360.734375 C 169.105469 311.925781 201.269531 273.273438 242.34375 263.121094 C 246.1875 234.058594 270.132812 211.703125 298.652344 214.53125 C 296.230469 135.332031 424.511719 105.078125 458.632812 176.695312 C 477.492188 166.695312 535.710938 172.125 556.023438 253.246094 C 570.734375 257.027344 582.359375 270.433594 581.746094 287.660156 C 621.792969 253.707031 678.8125 287.082031 678.019531 345.0625 C 691.589844 333.242188 710.550781 326.984375 730.519531 328.703125 C 730.183594 265.644531 784.660156 219.453125 838.6875 238.777344 C 844.265625 206.910156 876.65625 186.636719 908.078125 196.335938 C 917.65625 162.496094 947.035156 137.84375 981.824219 137.84375 C 1018.226562 137.84375 1048.652344 164.835938 1056.714844 201.085938 C 1078.519531 199.613281 1094.449219 218.769531 1095.824219 240.347656 C 1069.402344 239.132812 1032.4375 248.917969 1010.160156 304.289062 C 1010.160156 304.289062 910.304688 251.601562 853.644531 380.867188 C 853.644531 380.867188 936.300781 289.539062 1021.859375 347.144531 C 1021.859375 347.144531 1032.800781 266.960938 1095.472656 250.089844 C 1095.402344 250.632812 1095.378906 251.171875 1095.28125 251.714844 C 1157.492188 237.824219 1213.929688 294.476562 1200.523438 356.488281 C 1222.554688 352.484375 1242.886719 369.683594 1241.558594 392.8125 C 1283.5 357.480469 1357.328125 386.523438 1375.164062 445.660156 C 1399.792969 372.457031 1299.5 298.710938 1241.558594 347.515625 "/><path style=" stroke:none;fill-rule:nonzero;fill:#fbe59c;fill-opacity:1;" d="M 409.984375 293.660156 C 409.984375 293.660156 332.726562 263.617188 284.964844 380.503906 C 284.964844 380.503906 232.992188 321.777344 171.183594 371.648438 C 171.183594 371.648438 263.832031 349.160156 283.5625 422.925781 C 283.5625 422.925781 356.253906 276.34375 432.109375 308.0625 C 432.109375 308.0625 466.171875 250.914062 581.867188 286.433594 C 581.867188 286.433594 472.792969 201.898438 409.984375 293.660156 "/><path style=" stroke:none;fill-rule:nonzero;fill:#fbe59c;fill-opacity:1;" d="M 558.496094 390.289062 C 493.457031 429.277344 454.1875 386.839844 454.1875 386.839844 C 470.84375 449.769531 560.128906 420.605469 560.128906 420.605469 C 615.59375 459.289062 659.734375 385.539062 659.734375 385.539062 C 610.617188 434.28125 558.496094 390.289062 558.496094 390.289062 "/></g></svg>