<svg xmlns="http://www.w3.org/2000/svg" xmlns:xlink="http://www.w3.org/1999/xlink" width="1920" zoomAndPan="magnify" viewBox="0 0 1440 809.999993" height="1080" preserveAspectRatio="xMidYMid meet" version="1.2"><defs><clipPath id="2a6c66cf31"><path d="M 0 202.527344 L 1439.328125 202.527344 L 1439.328125 616.425781 L 0 616.425781 Z M 0 202.527344 "/></clipPath><clipPath id="98db211b62"><path d="M 1339.054688 459.210938 C 1329.71875 458.757812 1320.671875 459.035156 1312.109375 459.933594 C 1305.5625 426.269531 1253.183594 397.941406 1188.082031 394.777344 C 1157.308594 393.28125 1128.800781 397.660156 1106.25 406.15625 C 1090.820312 398.726562 1069.574219 397.375 1044.167969 407.238281 C 1035.167969 410.734375 1021.398438 417.507812 1007.046875 425.898438 C 990.617188 388.839844 947.332031 352.164062 889.886719 331.425781 C 841.195312 313.851562 793.039062 311.609375 757.355469 322.285156 C 708.851562 256.972656 611.285156 207.105469 527.710938 203.042969 C 407.527344 197.199219 346.871094 241.414062 343.382812 313.21875 C 343.1875 317.1875 343.691406 321.429688 344.648438 325.832031 C 323.449219 308.859375 291.886719 302.316406 260.277344 311.125 C 228.261719 320.050781 204.425781 342.421875 195.316406 368.335938 C 188.847656 367.390625 182.34375 366.628906 175.804688 366.3125 C 100.6875 362.660156 22.65625 381.503906 2.769531 416.628906 C -10.8125 440.617188 26.898438 476.710938 86.3125 488.144531 C 88.285156 516.738281 137.929688 541.800781 200.210938 544.828125 C 220.09375 545.792969 238.910156 544.390625 255.492188 541.128906 C 272.96875 581.492188 328.824219 612.851562 396.46875 616.140625 C 459.066406 619.183594 513.96875 597.324219 538.695312 563.558594 C 553.511719 575.476562 573.496094 583.328125 595.867188 584.417969 C 623.152344 585.742188 647.941406 576.773438 664.5625 561.726562 C 684.238281 578.34375 719.023438 590.402344 759.203125 592.355469 C 808.222656 594.738281 850.679688 581.371094 868.058594 560.554688 C 894.332031 572.125 931.636719 580.378906 973.40625 582.410156 C 1031.003906 585.210938 1081.316406 575.441406 1106.304688 558.90625 C 1123.503906 563.527344 1143.328125 566.089844 1164.488281 565.847656 C 1209.28125 565.339844 1248.046875 552.566406 1267.601562 534.21875 C 1283.980469 544.289062 1307.734375 551.292969 1334.519531 552.59375 C 1385.375 555.066406 1437.898438 550.230469 1439.152344 524.441406 C 1440.402344 498.652344 1389.917969 461.679688 1339.054688 459.210938 Z M 1339.054688 459.210938 "/></clipPath><clipPath id="8cbac6c65d"><path d="M 1339.054688 459.210938 C 1329.722656 458.753906 1320.679688 459.035156 1312.117188 459.933594 C 1305.566406 426.265625 1253.1875 397.941406 1188.085938 394.777344 C 1157.308594 393.28125 1128.804688 397.660156 1106.253906 406.15625 C 1090.820312 398.726562 1069.578125 397.375 1044.171875 407.238281 C 1035.167969 410.734375 1021.398438 417.507812 1007.054688 425.898438 C 990.621094 388.839844 947.335938 352.164062 889.886719 331.425781 C 841.199219 313.851562 793.039062 311.609375 757.355469 322.285156 C 708.851562 256.972656 611.285156 207.105469 527.714844 203.042969 C 407.527344 197.199219 346.871094 241.414062 343.382812 313.214844 C 343.1875 317.1875 343.691406 321.425781 344.648438 325.832031 C 323.449219 308.855469 291.886719 302.316406 260.28125 311.125 C 228.265625 320.046875 204.425781 342.421875 195.316406 368.335938 C 188.847656 367.386719 182.34375 366.628906 175.804688 366.3125 C 100.6875 362.660156 22.65625 381.503906 2.769531 416.628906 C -10.8125 440.617188 26.898438 476.710938 86.3125 488.144531 C 88.285156 516.738281 137.929688 541.800781 200.210938 544.828125 C 220.09375 545.792969 238.914062 544.390625 255.492188 541.128906 C 272.96875 581.492188 328.828125 612.851562 396.472656 616.140625 C 459.070312 619.183594 513.96875 597.324219 538.699219 563.558594 C 553.511719 575.476562 573.5 583.328125 595.867188 584.417969 C 623.152344 585.742188 647.941406 576.773438 664.566406 561.726562 C 684.242188 578.34375 719.023438 590.402344 759.203125 592.355469 C 808.226562 594.738281 850.679688 581.371094 868.0625 560.554688 C 894.335938 572.125 931.636719 580.378906 973.414062 582.410156 C 1031.007812 585.210938 1081.320312 575.441406 1106.304688 558.90625 C 1123.507812 563.523438 1143.332031 566.089844 1164.492188 565.847656 C 1209.285156 565.339844 1248.050781 552.566406 1267.605469 534.21875 C 1283.984375 544.289062 1307.738281 551.292969 1334.523438 552.59375 C 1385.375 555.066406 1437.902344 550.230469 1439.15625 524.441406 C 1440.410156 498.652344 1389.921875 461.679688 1339.054688 459.210938 "/></clipPath><clipPath id="9862061b62"><path d="M 1430.070312 83.355469 L -34.253906 205.378906 L 9.929688 735.59375 L 1474.253906 613.570312 Z M 1430.070312 83.355469 "/></clipPath><linearGradient x1="-0.250519" gradientTransform="matrix(26.809179,321.685847,-321.685847,26.809179,698.89874,225.428788)" y1="0" x2="1.397573" gradientUnits="userSpaceOnUse" y2="0" id="e74bacf6f7"><stop style="stop-color:#feb95e;stop-opacity:1;" offset="0"/><stop style="stop-color:#feb95e;stop-opacity:1;" offset="0.125"/><stop style="stop-color:#feb95e;stop-opacity:1;" offset="0.15625"/><stop style="stop-color:#feb85e;stop-opacity:1;" offset="0.164062"/><stop style="stop-color:#feb75e;stop-opacity:1;" offset="0.171875"/><stop style="stop-color:#feb65e;stop-opacity:1;" offset="0.1875"/><stop style="stop-color:#feb55e;stop-opacity:1;" offset="0.191406"/><stop style="stop-color:#feb55e;stop-opacity:1;" offset="0.195312"/><stop style="stop-color:#feb45f;stop-opacity:1;" offset="0.203125"/><stop style="stop-color:#feb45f;stop-opacity:1;" offset="0.210938"/><stop style="stop-color:#feb35f;stop-opacity:1;" offset="0.21875"/><stop style="stop-color:#feb35f;stop-opacity:1;" offset="0.226562"/><stop style="stop-color:#feb15f;stop-opacity:1;" offset="0.230469"/><stop style="stop-color:#feb15f;stop-opacity:1;" offset="0.234375"/><stop style="stop-color:#feb15f;stop-opacity:1;" offset="0.242188"/><stop style="stop-color:#feb05f;stop-opacity:1;" offset="0.25"/><stop style="stop-color:#feaf5f;stop-opacity:1;" offset="0.257812"/><stop style="stop-color:#feaf5f;stop-opacity:1;" offset="0.265625"/><stop style="stop-color:#feae5f;stop-opacity:1;" offset="0.273437"/><stop style="stop-color:#fead5f;stop-opacity:1;" offset="0.28125"/><stop style="stop-color:#feac60;stop-opacity:1;" offset="0.289062"/><stop style="stop-color:#feab60;stop-opacity:1;" offset="0.296875"/><stop style="stop-color:#feab60;stop-opacity:1;" offset="0.3125"/><stop style="stop-color:#fea960;stop-opacity:1;" offset="0.316406"/><stop style="stop-color:#fea960;stop-opacity:1;" offset="0.320312"/><stop style="stop-color:#fea860;stop-opacity:1;" offset="0.328125"/><stop style="stop-color:#fea860;stop-opacity:1;" offset="0.335938"/><stop style="stop-color:#fea760;stop-opacity:1;" offset="0.34375"/><stop style="stop-color:#fea760;stop-opacity:1;" offset="0.351563"/><stop style="stop-color:#fea560;stop-opacity:1;" offset="0.355469"/><stop style="stop-color:#fea560;stop-opacity:1;" offset="0.359375"/><stop style="stop-color:#fea461;stop-opacity:1;" offset="0.375"/><stop style="stop-color:#fea361;stop-opacity:1;" offset="0.382812"/><stop style="stop-color:#fea261;stop-opacity:1;" offset="0.390625"/><stop style="stop-color:#fea261;stop-opacity:1;" offset="0.394531"/><stop style="stop-color:#fea161;stop-opacity:1;" offset="0.398437"/><stop style="stop-color:#fea161;stop-opacity:1;" offset="0.40625"/><stop style="stop-color:#fea061;stop-opacity:1;" offset="0.414062"/><stop style="stop-color:#fe9f61;stop-opacity:1;" offset="0.421875"/><stop style="stop-color:#fe9e61;stop-opacity:1;" offset="0.4375"/><stop style="stop-color:#fe9d61;stop-opacity:1;" offset="0.441406"/><stop style="stop-color:#fe9d61;stop-opacity:1;" offset="0.445312"/><stop style="stop-color:#fe9c61;stop-opacity:1;" offset="0.453125"/><stop style="stop-color:#ff9b62;stop-opacity:1;" offset="0.46875"/><stop style="stop-color:#ff9a62;stop-opacity:1;" offset="0.476563"/><stop style="stop-color:#ff9962;stop-opacity:1;" offset="0.480469"/><stop style="stop-color:#ff9962;stop-opacity:1;" offset="0.484375"/><stop style="stop-color:#ff9862;stop-opacity:1;" offset="0.5"/><stop style="stop-color:#ff9762;stop-opacity:1;" offset="0.507812"/><stop style="stop-color:#ff9662;stop-opacity:1;" offset="0.515625"/><stop style="stop-color:#ff9562;stop-opacity:1;" offset="0.519531"/><stop style="stop-color:#ff9562;stop-opacity:1;" offset="0.523438"/><stop style="stop-color:#ff9562;stop-opacity:1;" offset="0.53125"/><stop style="stop-color:#ff9462;stop-opacity:1;" offset="0.539062"/><stop style="stop-color:#ff9363;stop-opacity:1;" offset="0.546875"/><stop style="stop-color:#ff9263;stop-opacity:1;" offset="0.554687"/><stop style="stop-color:#ff9163;stop-opacity:1;" offset="0.5625"/><stop style="stop-color:#ff9163;stop-opacity:1;" offset="0.570312"/><stop style="stop-color:#ff9063;stop-opacity:1;" offset="0.578125"/><stop style="stop-color:#ff8f63;stop-opacity:1;" offset="0.585938"/><stop style="stop-color:#ff8e63;stop-opacity:1;" offset="0.59375"/><stop style="stop-color:#ff8e63;stop-opacity:1;" offset="0.601562"/><stop style="stop-color:#ff8d63;stop-opacity:1;" offset="0.605469"/><stop style="stop-color:#ff8d63;stop-opacity:1;" offset="0.609375"/><stop style="stop-color:#ff8c63;stop-opacity:1;" offset="0.617188"/><stop style="stop-color:#ff8b63;stop-opacity:1;" offset="0.625"/><stop style="stop-color:#ff8b63;stop-opacity:1;" offset="0.632812"/><stop style="stop-color:#ff8a64;stop-opacity:1;" offset="0.640625"/><stop style="stop-color:#ff8964;stop-opacity:1;" offset="0.644531"/><stop style="stop-color:#ff8964;stop-opacity:1;" offset="0.648438"/><stop style="stop-color:#ff8864;stop-opacity:1;" offset="0.65625"/><stop style="stop-color:#ff8864;stop-opacity:1;" offset="0.664062"/><stop style="stop-color:#ff8764;stop-opacity:1;" offset="0.671875"/><stop style="stop-color:#ff8664;stop-opacity:1;" offset="0.679688"/><stop style="stop-color:#ff8664;stop-opacity:1;" offset="0.6875"/><stop style="stop-color:#ff8564;stop-opacity:1;" offset="0.695313"/><stop style="stop-color:#ff8464;stop-opacity:1;" offset="0.703125"/><stop style="stop-color:#ff8364;stop-opacity:1;" offset="0.710938"/><stop style="stop-color:#ff8264;stop-opacity:1;" offset="0.71875"/><stop style="stop-color:#ff8265;stop-opacity:1;" offset="0.726562"/><stop style="stop-color:#ff8165;stop-opacity:1;" offset="0.730469"/><stop style="stop-color:#ff8165;stop-opacity:1;" offset="0.734375"/><stop style="stop-color:#ff8065;stop-opacity:1;" offset="0.742188"/><stop style="stop-color:#ff7f65;stop-opacity:1;" offset="0.75"/><stop style="stop-color:#ff7e65;stop-opacity:1;" offset="1"/></linearGradient><clipPath id="15888413a5"><path d="M 34.664062 415.167969 L 1440 415.167969 L 1440 616.425781 L 34.664062 616.425781 Z M 34.664062 415.167969 "/></clipPath></defs><g id="4ce845e75a"><g clip-rule="nonzero" clip-path="url(#2a6c66cf31)"><g clip-rule="nonzero" clip-path="url(#98db211b62)"><g clip-rule="nonzero" clip-path="url(#8cbac6c65d)"><g clip-rule="nonzero" clip-path="url(#9862061b62)"><path style=" stroke:none;fill-rule:nonzero;fill:url(#e74bacf6f7);" d="M 1429.398438 83.402344 L -34.257812 205.382812 L 9.929688 735.550781 L 1473.582031 613.570312 Z M 1429.398438 83.402344 "/></g></g></g></g><g clip-rule="nonzero" clip-path="url(#15888413a5)"><path style=" stroke:none;fill-rule:nonzero;fill:#fd654e;fill-opacity:1;" d="M 35.25 469.871094 C 189.070312 508.386719 215.027344 474.390625 231.671875 471.488281 C 258.753906 537.90625 369.910156 565.300781 449.464844 541.492188 C 537.855469 486.742188 434.546875 437.617188 434.546875 437.617188 C 640.0625 499.359375 721.597656 415.480469 721.597656 415.480469 C 714.75 465.148438 670.5625 462.023438 657.507812 487.335938 C 646.8125 508.066406 705.976562 526.765625 727.777344 532.863281 C 754.550781 535.433594 781.898438 533.433594 804.304688 526.707031 C 806.78125 525.652344 858.019531 503.265625 871.648438 460.320312 C 871.648438 460.320312 889.65625 479.914062 884.578125 498.375 C 880.90625 511.757812 900.628906 521.355469 925.136719 525.777344 C 985.332031 533.550781 1050.238281 527.515625 1081.910156 507.519531 C 1138.453125 524.011719 1211.890625 514.996094 1243.792969 486.210938 C 1291.746094 517.199219 1400.867188 512.695312 1413.5625 486.664062 C 1507.222656 557.289062 1326.488281 570.363281 1267.6875 534.128906 C 1236.625 563.394531 1163.53125 574.273438 1106.3125 558.90625 C 1059.285156 590.011719 937.398438 591.09375 868.0625 560.554688 C 832.820312 602.746094 713.53125 603.417969 664.332031 561.519531 C 631.320312 591.429688 574.730469 592.34375 538.8125 563.421875 C 479.988281 644.085938 293.558594 629.050781 255.496094 541.128906 C 142.308594 603.785156 28.894531 468.277344 35.25 469.871094 "/></g><path style=" stroke:none;fill-rule:nonzero;fill:#fbe59c;fill-opacity:1;" d="M 1115.109375 444.742188 C 1082.589844 429.210938 1047.109375 446.332031 1016.261719 464.371094 C 982.859375 389.023438 852.832031 334.945312 766.566406 360.753906 C 655.160156 210.738281 360.277344 193.582031 352.59375 351.683594 C 352.398438 355.753906 352.910156 360.101562 353.921875 364.625 C 332.722656 347.523438 294.414062 330.269531 262.699219 339.109375 C 230.6875 348.03125 195.574219 368.375 195.574219 368.375 C 215.878906 310.664062 297.164062 287.804688 344.707031 326.160156 C 336.269531 288.496094 358.261719 194.804688 527.710938 203.042969 C 611.28125 207.105469 708.847656 256.972656 757.351562 322.285156 C 793.035156 311.609375 841.1875 313.851562 889.878906 331.425781 C 947.339844 352.167969 990.609375 388.84375 1007.042969 425.902344 C 1037.875 407.875 1073.335938 390.726562 1105.898438 406.277344 C 1195.820312 372.140625 1329.832031 416.664062 1311.167969 477.78125 C 1277.300781 435.910156 1180.613281 419.882812 1115.109375 444.742188 "/></g></svg>