<svg xmlns="http://www.w3.org/2000/svg" xmlns:xlink="http://www.w3.org/1999/xlink" width="1920" zoomAndPan="magnify" viewBox="0 0 1440 809.999993" height="1080" preserveAspectRatio="xMidYMid meet" version="1.2"><defs><clipPath id="7a0ad01c3b"><path d="M 0.339844 31.171875 L 1439.578125 31.171875 L 1439.578125 669 L 0.339844 669 Z M 0.339844 31.171875 "/></clipPath><clipPath id="6eba0042ce"><path d="M 1221.304688 317.367188 C 1221.589844 317.234375 1221.84375 317.0625 1222.121094 316.921875 C 1222.027344 317.230469 1221.917969 317.527344 1221.820312 317.835938 C 1221.644531 317.679688 1221.476562 317.523438 1221.304688 317.367188 Z M 1433.71875 390.011719 C 1424.085938 367.941406 1403.230469 352.953125 1376.320312 345.871094 C 1372.191406 328.160156 1362.109375 310.710938 1346.480469 296.828125 C 1313.890625 267.867188 1268.777344 264.617188 1241.304688 287.753906 C 1241.34375 287.082031 1241.511719 286.449219 1241.511719 285.769531 C 1241.511719 266.460938 1225.859375 250.804688 1206.5625 250.804688 C 1204.414062 250.804688 1202.335938 251.066406 1200.292969 251.4375 C 1206.164062 224.304688 1198.726562 194.46875 1177.804688 172.382812 C 1155.59375 148.949219 1123.878906 140.269531 1095.101562 146.695312 C 1095.539062 144.074219 1095.808594 141.382812 1095.808594 138.613281 C 1095.808594 114.980469 1079.203125 95.824219 1058.714844 95.824219 C 1057.972656 95.824219 1057.28125 96.027344 1056.554688 96.074219 C 1048.5 59.835938 1018.078125 32.847656 981.703125 32.847656 C 946.921875 32.847656 917.554688 57.496094 907.992188 91.328125 C 902.933594 89.765625 897.5625 88.921875 891.992188 88.921875 C 865.253906 88.921875 843.09375 108.292969 838.628906 133.757812 C 830.714844 130.929688 822.300781 129.382812 813.566406 129.382812 C 767.691406 129.382812 730.5 171.464844 730.5 223.375 C 728.386719 223.476562 726.234375 223.375 724.050781 223.375 C 706.097656 223.375 689.84375 229.734375 678.035156 240.015625 C 678.039062 239.636719 678.085938 239.273438 678.085938 238.898438 C 678.085938 200.320312 650.984375 169.042969 617.5625 169.042969 C 604.167969 169.042969 591.832031 174.128906 581.804688 182.625 C 581.820312 182.210938 581.929688 181.820312 581.929688 181.398438 C 581.929688 165.378906 570.921875 152.035156 556.101562 148.222656 C 564.609375 121.617188 551.71875 90.367188 523.859375 74.273438 C 502.394531 61.878906 477.601562 61.695312 458.757812 71.691406 C 444.367188 41.480469 406.066406 24.742188 366.4375 33.492188 C 325.816406 42.453125 297.800781 75.121094 298.851562 109.515625 C 297.285156 109.359375 295.703125 109.253906 294.097656 109.253906 C 267.867188 109.253906 246.21875 130.488281 242.574219 158.09375 C 195.300781 169.78125 159.789062 219.21875 159.789062 278.460938 C 159.789062 289.335938 161.105469 299.820312 163.347656 309.863281 C 159.433594 309.15625 155.378906 308.757812 151.207031 308.757812 C 120.042969 308.757812 94.785156 329.511719 94.785156 355.113281 C 94.785156 360.402344 95.914062 365.460938 97.894531 370.191406 C 54.101562 375.722656 0.339844 418.402344 0.339844 448.101562 C 0.339844 469.46875 24.316406 488.660156 53.695312 498.992188 C 63.792969 523.265625 107.535156 541.527344 159.960938 541.527344 C 202.292969 541.527344 238.867188 529.59375 256.734375 512.230469 C 270.945312 522.328125 290.785156 528.617188 312.773438 528.617188 C 340.570312 528.617188 364.921875 518.570312 378.792969 503.476562 C 388.484375 525.761719 412.117188 541.527344 439.785156 541.527344 C 452.378906 541.527344 464.101562 538.210938 474.097656 532.558594 C 487.320312 571.636719 533.070312 600.425781 602.28125 600.425781 C 649.207031 600.425781 696.78125 587.199219 729.222656 566.507812 C 733.433594 591.773438 755.5625 615.429688 787.003906 624.847656 C 810.976562 632.027344 834.957031 629.289062 852.726562 619.28125 C 869.550781 648.199219 915.644531 669 970.007812 669 C 1038.601562 669 1094.199219 635.945312 1094.199219 595.179688 C 1094.199219 594.894531 1094.128906 594.625 1094.128906 594.34375 C 1102.984375 598.199219 1112.992188 600.425781 1123.632812 600.425781 C 1157.585938 600.425781 1185.40625 578.21875 1188.261719 549.941406 C 1224.648438 567.722656 1279.351562 566.644531 1332.609375 543.371094 C 1410.554688 509.304688 1455.828125 440.644531 1433.71875 390.011719 Z M 1433.71875 390.011719 "/></clipPath><clipPath id="f6c01afe94"><path d="M 1221.300781 317.367188 C 1221.589844 317.234375 1221.84375 317.0625 1222.121094 316.921875 C 1222.023438 317.230469 1221.917969 317.527344 1221.820312 317.835938 C 1221.644531 317.679688 1221.476562 317.523438 1221.300781 317.367188 Z M 1433.722656 390.011719 C 1424.082031 367.941406 1403.230469 352.953125 1376.3125 345.871094 C 1372.1875 328.160156 1362.109375 310.710938 1346.480469 296.832031 C 1313.890625 267.867188 1268.777344 264.617188 1241.304688 287.753906 C 1241.339844 287.082031 1241.507812 286.449219 1241.507812 285.769531 C 1241.507812 266.460938 1225.863281 250.804688 1206.554688 250.804688 C 1204.410156 250.804688 1202.335938 251.066406 1200.296875 251.4375 C 1206.160156 224.304688 1198.726562 194.46875 1177.804688 172.382812 C 1155.59375 148.949219 1123.878906 140.269531 1095.101562 146.695312 C 1095.542969 144.074219 1095.808594 141.382812 1095.808594 138.613281 C 1095.808594 114.980469 1079.199219 95.824219 1058.710938 95.824219 C 1057.96875 95.824219 1057.28125 96.027344 1056.554688 96.078125 C 1048.496094 59.835938 1018.082031 32.847656 981.703125 32.847656 C 946.917969 32.847656 917.554688 57.496094 907.996094 91.328125 C 902.929688 89.769531 897.5625 88.921875 891.988281 88.921875 C 865.253906 88.921875 843.089844 108.292969 838.628906 133.761719 C 830.714844 130.929688 822.300781 129.382812 813.5625 129.382812 C 767.691406 129.382812 730.5 171.464844 730.5 223.375 C 728.386719 223.476562 726.234375 223.375 724.046875 223.375 C 706.097656 223.375 689.84375 229.734375 678.035156 240.015625 C 678.039062 239.636719 678.085938 239.273438 678.085938 238.898438 C 678.085938 200.320312 650.984375 169.042969 617.558594 169.042969 C 604.167969 169.042969 591.832031 174.128906 581.804688 182.628906 C 581.820312 182.210938 581.929688 181.824219 581.929688 181.398438 C 581.929688 165.378906 570.921875 152.035156 556.097656 148.222656 C 564.609375 121.617188 551.71875 90.367188 523.859375 74.273438 C 502.394531 61.878906 477.601562 61.695312 458.757812 71.695312 C 444.367188 41.480469 406.066406 24.742188 366.4375 33.492188 C 325.816406 42.457031 297.800781 75.125 298.851562 109.519531 C 297.285156 109.363281 295.703125 109.253906 294.097656 109.253906 C 267.867188 109.253906 246.222656 130.488281 242.570312 158.09375 C 195.300781 169.78125 159.789062 219.21875 159.789062 278.464844 C 159.789062 289.335938 161.105469 299.820312 163.347656 309.863281 C 159.433594 309.15625 155.378906 308.757812 151.207031 308.757812 C 120.042969 308.757812 94.785156 329.511719 94.785156 355.113281 C 94.785156 360.402344 95.914062 365.460938 97.898438 370.191406 C 54.101562 375.722656 0.339844 418.402344 0.339844 448.101562 C 0.339844 469.46875 24.316406 488.660156 53.695312 498.992188 C 63.792969 523.265625 107.53125 541.527344 159.960938 541.527344 C 202.292969 541.527344 238.867188 529.59375 256.734375 512.230469 C 270.945312 522.328125 290.785156 528.617188 312.773438 528.617188 C 340.570312 528.617188 364.921875 518.570312 378.792969 503.476562 C 388.484375 525.761719 412.117188 541.527344 439.785156 541.527344 C 452.378906 541.527344 464.097656 538.210938 474.09375 532.558594 C 487.320312 571.636719 533.070312 600.425781 602.28125 600.425781 C 649.207031 600.425781 696.78125 587.199219 729.222656 566.507812 C 733.433594 591.773438 755.5625 615.429688 787.003906 624.847656 C 810.976562 632.027344 834.957031 629.289062 852.726562 619.28125 C 869.550781 648.199219 915.640625 669 970.003906 669 C 1038.601562 669 1094.199219 635.949219 1094.199219 595.179688 C 1094.199219 594.894531 1094.128906 594.625 1094.128906 594.34375 C 1102.984375 598.199219 1112.992188 600.425781 1123.632812 600.425781 C 1157.585938 600.425781 1185.40625 578.21875 1188.261719 549.941406 C 1224.644531 567.722656 1279.34375 566.644531 1332.605469 543.371094 C 1410.550781 509.304688 1455.828125 440.644531 1433.722656 390.011719 "/></clipPath><clipPath id="c7cf04bfd7"><path d="M 1468.359375 32.464844 L 3.253906 -33.558594 L -28.316406 667.707031 L 1436.78125 733.734375 Z M 1468.359375 32.464844 "/></clipPath><linearGradient x1="-0.224399" gradientTransform="matrix(-21.0595,467.760276,-467.547206,-21.069096,734.63483,104.584609)" y1="0" x2="1.274788" gradientUnits="userSpaceOnUse" y2="0" id="d393f74c7a"><stop style="stop-color:#feb95e;stop-opacity:1;" offset="0"/><stop style="stop-color:#feb95e;stop-opacity:1;" offset="0.125"/><stop style="stop-color:#feb95e;stop-opacity:1;" offset="0.15625"/><stop style="stop-color:#feb95e;stop-opacity:1;" offset="0.164062"/><stop style="stop-color:#feb85e;stop-opacity:1;" offset="0.171875"/><stop style="stop-color:#feb75e;stop-opacity:1;" offset="0.1875"/><stop style="stop-color:#feb65e;stop-opacity:1;" offset="0.191406"/><stop style="stop-color:#feb55e;stop-opacity:1;" offset="0.195312"/><stop style="stop-color:#feb55e;stop-opacity:1;" offset="0.203125"/><stop style="stop-color:#feb55f;stop-opacity:1;" offset="0.210938"/><stop style="stop-color:#feb45f;stop-opacity:1;" offset="0.21875"/><stop style="stop-color:#feb35f;stop-opacity:1;" offset="0.226562"/><stop style="stop-color:#feb25f;stop-opacity:1;" offset="0.230469"/><stop style="stop-color:#feb25f;stop-opacity:1;" offset="0.234375"/><stop style="stop-color:#feb15f;stop-opacity:1;" offset="0.242188"/><stop style="stop-color:#feb15f;stop-opacity:1;" offset="0.25"/><stop style="stop-color:#feb05f;stop-opacity:1;" offset="0.265625"/><stop style="stop-color:#feaf5f;stop-opacity:1;" offset="0.269531"/><stop style="stop-color:#feae5f;stop-opacity:1;" offset="0.273438"/><stop style="stop-color:#feae5f;stop-opacity:1;" offset="0.28125"/><stop style="stop-color:#feae5f;stop-opacity:1;" offset="0.289062"/><stop style="stop-color:#fead5f;stop-opacity:1;" offset="0.296875"/><stop style="stop-color:#feac60;stop-opacity:1;" offset="0.3125"/><stop style="stop-color:#feab60;stop-opacity:1;" offset="0.316406"/><stop style="stop-color:#feaa60;stop-opacity:1;" offset="0.320312"/><stop style="stop-color:#feaa60;stop-opacity:1;" offset="0.328125"/><stop style="stop-color:#feaa60;stop-opacity:1;" offset="0.335938"/><stop style="stop-color:#fea960;stop-opacity:1;" offset="0.34375"/><stop style="stop-color:#fea860;stop-opacity:1;" offset="0.351562"/><stop style="stop-color:#fea760;stop-opacity:1;" offset="0.359375"/><stop style="stop-color:#fea660;stop-opacity:1;" offset="0.367188"/><stop style="stop-color:#fea660;stop-opacity:1;" offset="0.375"/><stop style="stop-color:#fea560;stop-opacity:1;" offset="0.390625"/><stop style="stop-color:#fea461;stop-opacity:1;" offset="0.394531"/><stop style="stop-color:#fea361;stop-opacity:1;" offset="0.398438"/><stop style="stop-color:#fea361;stop-opacity:1;" offset="0.40625"/><stop style="stop-color:#fea361;stop-opacity:1;" offset="0.414062"/><stop style="stop-color:#fea261;stop-opacity:1;" offset="0.421875"/><stop style="stop-color:#fea161;stop-opacity:1;" offset="0.4375"/><stop style="stop-color:#fea061;stop-opacity:1;" offset="0.441406"/><stop style="stop-color:#fe9f61;stop-opacity:1;" offset="0.445312"/><stop style="stop-color:#fe9f61;stop-opacity:1;" offset="0.453125"/><stop style="stop-color:#fe9f61;stop-opacity:1;" offset="0.460938"/><stop style="stop-color:#fe9e61;stop-opacity:1;" offset="0.46875"/><stop style="stop-color:#fe9d61;stop-opacity:1;" offset="0.476562"/><stop style="stop-color:#fe9c61;stop-opacity:1;" offset="0.484375"/><stop style="stop-color:#ff9b62;stop-opacity:1;" offset="0.492188"/><stop style="stop-color:#ff9b62;stop-opacity:1;" offset="0.5"/><stop style="stop-color:#ff9a62;stop-opacity:1;" offset="0.515625"/><stop style="stop-color:#ff9962;stop-opacity:1;" offset="0.519531"/><stop style="stop-color:#ff9862;stop-opacity:1;" offset="0.523438"/><stop style="stop-color:#ff9862;stop-opacity:1;" offset="0.53125"/><stop style="stop-color:#ff9862;stop-opacity:1;" offset="0.539062"/><stop style="stop-color:#ff9762;stop-opacity:1;" offset="0.546875"/><stop style="stop-color:#ff9662;stop-opacity:1;" offset="0.5625"/><stop style="stop-color:#ff9562;stop-opacity:1;" offset="0.566406"/><stop style="stop-color:#ff9462;stop-opacity:1;" offset="0.570312"/><stop style="stop-color:#ff9362;stop-opacity:1;" offset="0.578125"/><stop style="stop-color:#ff9362;stop-opacity:1;" offset="0.59375"/><stop style="stop-color:#ff9263;stop-opacity:1;" offset="0.601562"/><stop style="stop-color:#ff9163;stop-opacity:1;" offset="0.609375"/><stop style="stop-color:#ff9063;stop-opacity:1;" offset="0.617188"/><stop style="stop-color:#ff9063;stop-opacity:1;" offset="0.625"/><stop style="stop-color:#ff8f63;stop-opacity:1;" offset="0.640625"/><stop style="stop-color:#ff8e63;stop-opacity:1;" offset="0.644531"/><stop style="stop-color:#ff8d63;stop-opacity:1;" offset="0.648437"/><stop style="stop-color:#ff8d63;stop-opacity:1;" offset="0.65625"/><stop style="stop-color:#ff8c63;stop-opacity:1;" offset="0.664062"/><stop style="stop-color:#ff8c63;stop-opacity:1;" offset="0.671875"/><stop style="stop-color:#ff8b63;stop-opacity:1;" offset="0.679687"/><stop style="stop-color:#ff8a64;stop-opacity:1;" offset="0.6875"/><stop style="stop-color:#ff8964;stop-opacity:1;" offset="0.691406"/><stop style="stop-color:#ff8964;stop-opacity:1;" offset="0.695312"/><stop style="stop-color:#ff8864;stop-opacity:1;" offset="0.703125"/><stop style="stop-color:#ff8864;stop-opacity:1;" offset="0.71875"/><stop style="stop-color:#ff8764;stop-opacity:1;" offset="0.726562"/><stop style="stop-color:#ff8664;stop-opacity:1;" offset="0.734375"/><stop style="stop-color:#ff8564;stop-opacity:1;" offset="0.742188"/><stop style="stop-color:#ff8564;stop-opacity:1;" offset="0.75"/><stop style="stop-color:#ff8464;stop-opacity:1;" offset="0.765625"/><stop style="stop-color:#ff8365;stop-opacity:1;" offset="0.769531"/><stop style="stop-color:#ff8265;stop-opacity:1;" offset="0.773438"/><stop style="stop-color:#ff8165;stop-opacity:1;" offset="0.78125"/><stop style="stop-color:#ff8165;stop-opacity:1;" offset="0.796875"/><stop style="stop-color:#ff8065;stop-opacity:1;" offset="0.804687"/><stop style="stop-color:#ff7f65;stop-opacity:1;" offset="0.8125"/><stop style="stop-color:#ff7e65;stop-opacity:1;" offset="0.875"/><stop style="stop-color:#ff7e65;stop-opacity:1;" offset="1"/></linearGradient><clipPath id="db92acb137"><path d="M 0.339844 369.222656 L 1439.695312 369.222656 L 1439.695312 669 L 0.339844 669 Z M 0.339844 369.222656 "/></clipPath></defs><g id="459b627f5a"><g clip-rule="nonzero" clip-path="url(#7a0ad01c3b)"><g clip-rule="nonzero" clip-path="url(#6eba0042ce)"><g clip-rule="nonzero" clip-path="url(#f6c01afe94)"><g clip-rule="nonzero" clip-path="url(#c7cf04bfd7)"><path style=" stroke:none;fill-rule:nonzero;fill:url(#d393f74c7a);" d="M 1468.238281 32.464844 L 3.253906 -33.550781 L -28.316406 667.707031 L 1436.664062 733.726562 Z M 1468.238281 32.464844 "/></g></g></g></g><g clip-rule="nonzero" clip-path="url(#db92acb137)"><path style=" stroke:none;fill-rule:nonzero;fill:#fd654e;fill-opacity:1;" d="M 1433.152344 388.933594 C 1401.894531 469.316406 1272.179688 521.550781 1197.027344 485.199219 C 1196.949219 486.011719 1196.71875 486.773438 1196.601562 487.570312 C 1145.820312 472.644531 1163.746094 447.089844 1169.894531 440.113281 C 1192.433594 428.574219 1206.5625 412.65625 1206.5625 412.65625 C 1123.71875 448.476562 1031.425781 394.746094 1031.425781 394.746094 C 1042.480469 409.546875 1053.546875 420.863281 1064.441406 429.382812 C 1130.070312 497.722656 1106.164062 527.613281 1106.164062 527.613281 C 1107.046875 578.351562 1039.308594 604.980469 978.746094 597.992188 C 908.078125 583.171875 929.074219 552.238281 929.074219 552.238281 C 946.222656 541.527344 940.394531 500.425781 940.394531 500.425781 C 905.394531 565.492188 853.582031 558.761719 853.582031 558.761719 C 853.582031 558.761719 853.875 559.710938 854.433594 561.269531 C 819.925781 560.710938 781.390625 545.335938 763.53125 521.980469 C 815.25 522.054688 856.210938 483.894531 856.210938 483.894531 C 774.777344 523.140625 658.730469 454.503906 658.730469 454.503906 C 680.597656 487.691406 703.910156 506.070312 726.570312 515.007812 C 648.691406 547.191406 532.21875 540.15625 507.757812 468.589844 C 477.785156 485.371094 439.449219 476.492188 421.269531 450.417969 C 444.835938 438.820312 460.480469 420.507812 460.480469 420.507812 C 358.183594 459.730469 294.097656 385.875 294.097656 385.875 C 323.730469 442.878906 356.21875 459.824219 384.570312 459.675781 C 353.945312 469.753906 319.6875 464.441406 297.976562 449.175781 C 252.964844 492.46875 121.640625 483.210938 102.015625 436.523438 C 79.53125 428.699219 15.425781 416.472656 97.601562 369.566406 C 4.011719 389.363281 -42.042969 465.328125 53.695312 498.992188 C 74.074219 547.976562 210.25 557.402344 256.734375 512.230469 C 292.039062 537.3125 351.675781 532.980469 378.792969 503.472656 C 393.925781 538.277344 439.355469 552.203125 474.097656 532.554688 C 502.640625 616.925781 652.132812 615.683594 729.222656 566.507812 C 737.417969 615.640625 806.484375 645.316406 852.726562 619.28125 C 869.554688 648.199219 915.644531 669 970.011719 669 C 1038.003906 669 1094.890625 636.191406 1094.136719 594.34375 C 1135.191406 612.230469 1184.335938 588.863281 1188.265625 549.941406 C 1295.035156 602.113281 1476.414062 483.195312 1433.152344 388.933594 "/></g><path style=" stroke:none;fill-rule:nonzero;fill:#fbe59c;fill-opacity:1;" d="M 1241.308594 287.753906 C 1242.640625 264.640625 1222.324219 247.433594 1200.296875 251.4375 C 1213.703125 189.363281 1157.21875 132.820312 1095.105469 146.691406 C 1099.566406 119.820312 1081.660156 95.820312 1058.71875 95.820312 C 1057.972656 95.820312 1057.285156 96.023438 1056.554688 96.074219 C 1038.417969 14.511719 930.632812 11.210938 907.988281 91.328125 C 876.566406 81.625 844.207031 101.914062 838.628906 133.757812 C 784.566406 114.414062 730.179688 160.703125 730.515625 223.660156 C 710.5625 221.941406 691.609375 228.191406 678.039062 240.011719 C 678.835938 181.867188 621.738281 148.765625 581.808594 182.625 C 582.421875 165.476562 570.871094 152.019531 556.101562 148.222656 C 572.910156 95.671875 508.929688 45.074219 458.757812 71.691406 C 424.589844 -0.0390625 296.4375 30.511719 298.851562 109.515625 C 270.339844 106.691406 246.414062 129.039062 242.570312 158.09375 C 188.921875 171.355469 150.960938 233.0625 161.613281 300.964844 C 169.367188 252.171875 201.515625 213.527344 242.570312 203.378906 C 246.414062 174.324219 270.347656 151.972656 298.851562 154.800781 C 296.429688 75.621094 424.652344 45.375 458.757812 116.976562 C 477.605469 106.976562 535.796875 112.40625 556.101562 193.503906 C 570.804688 197.285156 582.421875 210.691406 581.808594 227.914062 C 621.839844 193.964844 678.832031 227.332031 678.039062 285.296875 C 691.605469 273.480469 710.554688 267.226562 730.515625 268.945312 C 730.179688 205.898438 784.628906 159.722656 838.628906 179.042969 C 844.207031 147.179688 876.582031 126.914062 907.988281 136.609375 C 917.5625 102.78125 946.925781 78.132812 981.699219 78.132812 C 1018.085938 78.132812 1048.496094 105.117188 1056.554688 141.359375 C 1078.351562 139.882812 1094.273438 159.039062 1095.644531 180.613281 C 1069.234375 179.398438 1032.289062 189.179688 1010.023438 244.539062 C 1010.023438 244.539062 910.214844 191.863281 853.582031 321.09375 C 853.582031 321.09375 936.195312 229.789062 1021.714844 287.382812 C 1021.714844 287.382812 1032.652344 207.21875 1095.292969 190.351562 C 1095.226562 190.890625 1095.199219 191.429688 1095.105469 191.976562 C 1157.285156 178.089844 1213.695312 234.726562 1200.296875 296.722656 C 1222.316406 292.71875 1242.640625 309.914062 1241.308594 333.039062 C 1283.234375 297.714844 1357.027344 326.75 1374.855469 385.875 C 1399.472656 312.6875 1299.222656 238.960938 1241.308594 287.753906 "/><path style=" stroke:none;fill-rule:nonzero;fill:#fbe59c;fill-opacity:1;" d="M 410.132812 233.910156 C 410.132812 233.910156 332.910156 203.871094 285.171875 320.730469 C 285.171875 320.730469 233.222656 262.019531 171.441406 311.878906 C 171.441406 311.878906 264.046875 289.398438 283.769531 363.144531 C 283.769531 363.144531 356.429688 216.597656 432.246094 248.308594 C 432.246094 248.308594 466.292969 191.175781 581.929688 226.6875 C 581.929688 226.6875 472.910156 142.171875 410.132812 233.910156 "/><path style=" stroke:none;fill-rule:nonzero;fill:#fbe59c;fill-opacity:1;" d="M 558.574219 330.515625 C 493.5625 369.492188 454.316406 327.066406 454.316406 327.066406 C 470.960938 389.980469 560.207031 360.824219 560.207031 360.824219 C 615.644531 399.496094 659.761719 325.765625 659.761719 325.765625 C 610.671875 374.496094 558.574219 330.515625 558.574219 330.515625 "/></g></svg>