<svg xmlns="http://www.w3.org/2000/svg" xmlns:xlink="http://www.w3.org/1999/xlink" width="1920" zoomAndPan="magnify" viewBox="0 0 1440 809.999993" height="1080" preserveAspectRatio="xMidYMid meet" version="1.2"><defs><clipPath id="6034b92283"><path d="M 32.382812 6.820312 L 1122 6.820312 L 1122 785.75 L 32.382812 785.75 Z M 32.382812 6.820312 "/></clipPath><clipPath id="78dab44ea5"><path d="M 1121.742188 402.316406 C 1121.742188 331.625 1077.503906 270.980469 1014.460938 245.097656 C 1034.285156 215.273438 1030.46875 173.941406 1003.316406 146.789062 C 983.777344 127.25 956.898438 119.855469 932.234375 124.582031 C 925.914062 65.542969 875.835938 15.808594 809.652344 7.894531 C 744.195312 0.0703125 684.472656 35.742188 663.753906 90.585938 C 651.949219 84.367188 638.527344 80.804688 624.253906 80.804688 C 584.894531 80.804688 551.882812 107.628906 542.273438 143.960938 C 507.792969 131.925781 465.140625 131.484375 422.746094 145.613281 C 364.714844 164.949219 322.632812 206.382812 309.402344 250.9375 C 306.765625 250.808594 304.15625 250.582031 301.480469 250.582031 C 223.558594 250.582031 160.394531 306.121094 160.394531 374.625 C 160.394531 396.285156 166.738281 416.628906 177.835938 434.355469 C 139.394531 438.640625 109.535156 467.644531 109.535156 503.199219 C 109.535156 503.953125 109.757812 504.65625 109.789062 505.40625 C 65.519531 514.191406 32.433594 548.9375 32.433594 590.550781 C 32.433594 636.992188 73.65625 674.863281 125.640625 677.628906 C 132.3125 712.054688 164.394531 738.183594 203.046875 738.183594 C 224.804688 738.183594 244.503906 729.90625 258.753906 716.53125 C 285.539062 757.425781 342.628906 785.75 408.933594 785.75 C 468.847656 785.75 521.214844 762.605469 550.546875 727.988281 C 561.84375 745.964844 580.785156 757.746094 603.339844 759.917969 C 656.300781 765.011719 702.34375 732.582031 708.425781 695.90625 C 743.554688 721.085938 789.578125 732.269531 836.585938 722.832031 C 913.011719 707.484375 966.355469 643.058594 967.105469 571.59375 C 1054.179688 561.539062 1121.742188 489.652344 1121.742188 402.316406 Z M 1121.742188 402.316406 "/></clipPath><clipPath id="6a697a43a2"><path d="M 1121.742188 402.316406 C 1121.742188 331.625 1077.503906 270.980469 1014.460938 245.097656 C 1034.285156 215.273438 1030.46875 173.941406 1003.316406 146.789062 C 983.777344 127.25 956.898438 119.855469 932.234375 124.582031 C 925.914062 65.542969 875.835938 15.808594 809.652344 7.894531 C 744.195312 0.0703125 684.472656 35.742188 663.753906 90.585938 C 651.949219 84.367188 638.527344 80.804688 624.253906 80.804688 C 584.894531 80.804688 551.882812 107.628906 542.273438 143.960938 C 507.792969 131.925781 465.140625 131.484375 422.746094 145.613281 C 364.714844 164.949219 322.632812 206.382812 309.402344 250.9375 C 306.765625 250.808594 304.15625 250.582031 301.480469 250.582031 C 223.558594 250.582031 160.394531 306.121094 160.394531 374.625 C 160.394531 396.285156 166.738281 416.628906 177.835938 434.355469 C 139.394531 438.640625 109.535156 467.644531 109.535156 503.199219 C 109.535156 503.953125 109.757812 504.65625 109.789062 505.40625 C 65.519531 514.191406 32.433594 548.9375 32.433594 590.550781 C 32.433594 636.992188 73.65625 674.863281 125.640625 677.628906 C 132.3125 712.054688 164.394531 738.183594 203.046875 738.183594 C 224.804688 738.183594 244.503906 729.90625 258.753906 716.53125 C 285.539062 757.425781 342.628906 785.75 408.933594 785.75 C 468.847656 785.75 521.214844 762.605469 550.546875 727.988281 C 561.84375 745.964844 580.785156 757.746094 603.339844 759.917969 C 656.300781 765.011719 702.34375 732.582031 708.425781 695.90625 C 743.554688 721.085938 789.578125 732.269531 836.585938 722.832031 C 913.011719 707.484375 966.355469 643.058594 967.105469 571.59375 C 1054.179688 561.539062 1121.742188 489.652344 1121.742188 402.316406 "/></clipPath><clipPath id="9641f3e1b8"><path d="M 1194.136719 13.605469 L 41.925781 -94.402344 L -39.960938 778.964844 L 1112.25 886.972656 Z M 1194.136719 13.605469 "/></clipPath><linearGradient x1="-0.44064" gradientTransform="matrix(-43.429203,463.180786,-463.229336,-43.424648,608.202391,164.569839)" y1="0" x2="1.444949" gradientUnits="userSpaceOnUse" y2="0" id="2ec33f6672"><stop style="stop-color:#feb95e;stop-opacity:1;" offset="0"/><stop style="stop-color:#feb95e;stop-opacity:1;" offset="0.25"/><stop style="stop-color:#feb85e;stop-opacity:1;" offset="0.257812"/><stop style="stop-color:#feb75e;stop-opacity:1;" offset="0.265625"/><stop style="stop-color:#feb65e;stop-opacity:1;" offset="0.269531"/><stop style="stop-color:#feb55e;stop-opacity:1;" offset="0.273438"/><stop style="stop-color:#feb55e;stop-opacity:1;" offset="0.28125"/><stop style="stop-color:#feb45f;stop-opacity:1;" offset="0.289062"/><stop style="stop-color:#feb35f;stop-opacity:1;" offset="0.296875"/><stop style="stop-color:#feb25f;stop-opacity:1;" offset="0.304688"/><stop style="stop-color:#feb15f;stop-opacity:1;" offset="0.3125"/><stop style="stop-color:#feb15f;stop-opacity:1;" offset="0.320312"/><stop style="stop-color:#feb05f;stop-opacity:1;" offset="0.328125"/><stop style="stop-color:#feaf5f;stop-opacity:1;" offset="0.335938"/><stop style="stop-color:#feae5f;stop-opacity:1;" offset="0.34375"/><stop style="stop-color:#fead5f;stop-opacity:1;" offset="0.351562"/><stop style="stop-color:#feac60;stop-opacity:1;" offset="0.355469"/><stop style="stop-color:#feab60;stop-opacity:1;" offset="0.359375"/><stop style="stop-color:#feab60;stop-opacity:1;" offset="0.375"/><stop style="stop-color:#feaa60;stop-opacity:1;" offset="0.382812"/><stop style="stop-color:#fea960;stop-opacity:1;" offset="0.390625"/><stop style="stop-color:#fea860;stop-opacity:1;" offset="0.394531"/><stop style="stop-color:#fea760;stop-opacity:1;" offset="0.398438"/><stop style="stop-color:#fea760;stop-opacity:1;" offset="0.40625"/><stop style="stop-color:#fea660;stop-opacity:1;" offset="0.414062"/><stop style="stop-color:#fea560;stop-opacity:1;" offset="0.421875"/><stop style="stop-color:#fea461;stop-opacity:1;" offset="0.4375"/><stop style="stop-color:#fea361;stop-opacity:1;" offset="0.441406"/><stop style="stop-color:#fea261;stop-opacity:1;" offset="0.445312"/><stop style="stop-color:#fea261;stop-opacity:1;" offset="0.453125"/><stop style="stop-color:#fea161;stop-opacity:1;" offset="0.460938"/><stop style="stop-color:#fea061;stop-opacity:1;" offset="0.46875"/><stop style="stop-color:#fe9f61;stop-opacity:1;" offset="0.476562"/><stop style="stop-color:#fe9e61;stop-opacity:1;" offset="0.484375"/><stop style="stop-color:#fe9e61;stop-opacity:1;" offset="0.492188"/><stop style="stop-color:#fe9d61;stop-opacity:1;" offset="0.5"/><stop style="stop-color:#fe9c61;stop-opacity:1;" offset="0.507812"/><stop style="stop-color:#ff9b62;stop-opacity:1;" offset="0.515625"/><stop style="stop-color:#ff9a62;stop-opacity:1;" offset="0.519531"/><stop style="stop-color:#ff9962;stop-opacity:1;" offset="0.523438"/><stop style="stop-color:#ff9962;stop-opacity:1;" offset="0.53125"/><stop style="stop-color:#ff9862;stop-opacity:1;" offset="0.539062"/><stop style="stop-color:#ff9762;stop-opacity:1;" offset="0.546875"/><stop style="stop-color:#ff9762;stop-opacity:1;" offset="0.554688"/><stop style="stop-color:#ff9662;stop-opacity:1;" offset="0.5625"/><stop style="stop-color:#ff9562;stop-opacity:1;" offset="0.566406"/><stop style="stop-color:#ff9462;stop-opacity:1;" offset="0.570312"/><stop style="stop-color:#ff9462;stop-opacity:1;" offset="0.578125"/><stop style="stop-color:#ff9362;stop-opacity:1;" offset="0.585938"/><stop style="stop-color:#ff9263;stop-opacity:1;" offset="0.59375"/><stop style="stop-color:#ff9163;stop-opacity:1;" offset="0.601562"/><stop style="stop-color:#ff9063;stop-opacity:1;" offset="0.609375"/><stop style="stop-color:#ff9063;stop-opacity:1;" offset="0.617188"/><stop style="stop-color:#ff8f63;stop-opacity:1;" offset="0.625"/><stop style="stop-color:#ff8e63;stop-opacity:1;" offset="0.632812"/><stop style="stop-color:#ff8d63;stop-opacity:1;" offset="0.640625"/><stop style="stop-color:#ff8c63;stop-opacity:1;" offset="0.644531"/><stop style="stop-color:#ff8b63;stop-opacity:1;" offset="0.648438"/><stop style="stop-color:#ff8b63;stop-opacity:1;" offset="0.65625"/><stop style="stop-color:#ff8a64;stop-opacity:1;" offset="0.671875"/><stop style="stop-color:#ff8964;stop-opacity:1;" offset="0.679688"/><stop style="stop-color:#ff8864;stop-opacity:1;" offset="0.6875"/><stop style="stop-color:#ff8764;stop-opacity:1;" offset="0.691406"/><stop style="stop-color:#ff8664;stop-opacity:1;" offset="0.695312"/><stop style="stop-color:#ff8664;stop-opacity:1;" offset="0.703125"/><stop style="stop-color:#ff8564;stop-opacity:1;" offset="0.710938"/><stop style="stop-color:#ff8464;stop-opacity:1;" offset="0.71875"/><stop style="stop-color:#ff8364;stop-opacity:1;" offset="0.726562"/><stop style="stop-color:#ff8264;stop-opacity:1;" offset="0.734375"/><stop style="stop-color:#ff8265;stop-opacity:1;" offset="0.742188"/><stop style="stop-color:#ff8165;stop-opacity:1;" offset="0.75"/><stop style="stop-color:#ff8065;stop-opacity:1;" offset="0.757812"/><stop style="stop-color:#ff7f65;stop-opacity:1;" offset="0.765625"/><stop style="stop-color:#ff7e65;stop-opacity:1;" offset="0.78125"/><stop style="stop-color:#ff7e65;stop-opacity:1;" offset="0.8125"/><stop style="stop-color:#ff7e65;stop-opacity:1;" offset="0.875"/><stop style="stop-color:#ff7e65;stop-opacity:1;" offset="1"/></linearGradient><clipPath id="a7ba55878e"><path d="M 951.613281 572.519531 L 1359.136719 572.519531 L 1359.136719 774 L 951.613281 774 Z M 951.613281 572.519531 "/></clipPath><clipPath id="58f6f55996"><path d="M 1359.136719 661.1875 C 1359.136719 617.417969 1322.394531 581.9375 1277.078125 581.9375 C 1267.667969 581.9375 1258.667969 583.539062 1250.257812 586.355469 C 1240.960938 578.066406 1228.367188 572.914062 1214.433594 572.914062 C 1193.332031 572.914062 1175.238281 584.648438 1167.214844 601.417969 C 1151.410156 589.371094 1130.15625 581.9375 1106.707031 581.9375 C 1062.660156 581.9375 1026.261719 608.011719 1019.585938 642.082031 C 984.199219 652.054688 951.898438 678.660156 951.898438 701.699219 C 951.898438 729.3125 982.761719 741.621094 1023.78125 742.742188 C 1035.652344 757.71875 1057.5 769.304688 1083.527344 772.496094 C 1117.542969 776.664062 1147.789062 765.082031 1159.613281 745.675781 C 1177.390625 762.859375 1207.921875 773.246094 1242.007812 771.222656 C 1283.863281 768.746094 1318.238281 748.371094 1329.308594 722.304688 C 1347.527344 707.769531 1359.136719 685.785156 1359.136719 661.1875 Z M 1359.136719 661.1875 "/></clipPath><clipPath id="5884b485fb"><path d="M 1359.136719 661.1875 C 1359.136719 617.417969 1322.394531 581.9375 1277.078125 581.9375 C 1267.667969 581.9375 1258.667969 583.539062 1250.257812 586.355469 C 1240.960938 578.066406 1228.367188 572.914062 1214.433594 572.914062 C 1193.332031 572.914062 1175.238281 584.648438 1167.214844 601.417969 C 1151.410156 589.371094 1130.15625 581.9375 1106.707031 581.9375 C 1062.660156 581.9375 1026.261719 608.011719 1019.585938 642.082031 C 984.199219 652.054688 951.898438 678.660156 951.898438 701.699219 C 951.898438 729.3125 982.761719 741.621094 1023.78125 742.742188 C 1035.652344 757.71875 1057.5 769.304688 1083.527344 772.496094 C 1117.542969 776.664062 1147.789062 765.082031 1159.613281 745.675781 C 1177.390625 762.859375 1207.921875 773.246094 1242.007812 771.222656 C 1283.863281 768.746094 1318.238281 748.371094 1329.308594 722.304688 C 1347.527344 707.769531 1359.136719 685.785156 1359.136719 661.1875 "/></clipPath><clipPath id="a8b8a844c8"><path d="M 1370.421875 573.542969 L 953.15625 550.363281 L 940.613281 776.035156 L 1357.882812 799.214844 Z M 1370.421875 573.542969 "/></clipPath><linearGradient x1="-0.332443" gradientTransform="matrix(-7.238323,130.269164,-130.282821,-7.237564,1159.786986,605.280465)" y1="0" x2="1.380065" gradientUnits="userSpaceOnUse" y2="0" id="b4ca40b9e3"><stop style="stop-color:#feb95e;stop-opacity:1;" offset="0"/><stop style="stop-color:#feb95e;stop-opacity:1;" offset="0.125"/><stop style="stop-color:#feb95e;stop-opacity:1;" offset="0.1875"/><stop style="stop-color:#feb95e;stop-opacity:1;" offset="0.203125"/><stop style="stop-color:#feb85e;stop-opacity:1;" offset="0.210937"/><stop style="stop-color:#feb75e;stop-opacity:1;" offset="0.21875"/><stop style="stop-color:#feb75e;stop-opacity:1;" offset="0.226562"/><stop style="stop-color:#feb65e;stop-opacity:1;" offset="0.230469"/><stop style="stop-color:#feb55e;stop-opacity:1;" offset="0.234375"/><stop style="stop-color:#feb55e;stop-opacity:1;" offset="0.238281"/><stop style="stop-color:#feb45f;stop-opacity:1;" offset="0.242187"/><stop style="stop-color:#feb45f;stop-opacity:1;" offset="0.25"/><stop style="stop-color:#feb35f;stop-opacity:1;" offset="0.265625"/><stop style="stop-color:#feb25f;stop-opacity:1;" offset="0.269531"/><stop style="stop-color:#feb15f;stop-opacity:1;" offset="0.273438"/><stop style="stop-color:#feb15f;stop-opacity:1;" offset="0.277344"/><stop style="stop-color:#feb05f;stop-opacity:1;" offset="0.28125"/><stop style="stop-color:#feb05f;stop-opacity:1;" offset="0.289062"/><stop style="stop-color:#feaf5f;stop-opacity:1;" offset="0.296875"/><stop style="stop-color:#feaf5f;stop-opacity:1;" offset="0.304688"/><stop style="stop-color:#feae5f;stop-opacity:1;" offset="0.3125"/><stop style="stop-color:#fead5f;stop-opacity:1;" offset="0.316406"/><stop style="stop-color:#feac5f;stop-opacity:1;" offset="0.320312"/><stop style="stop-color:#feac60;stop-opacity:1;" offset="0.324219"/><stop style="stop-color:#feab60;stop-opacity:1;" offset="0.328125"/><stop style="stop-color:#feab60;stop-opacity:1;" offset="0.34375"/><stop style="stop-color:#feaa60;stop-opacity:1;" offset="0.351562"/><stop style="stop-color:#fea960;stop-opacity:1;" offset="0.355469"/><stop style="stop-color:#fea960;stop-opacity:1;" offset="0.359375"/><stop style="stop-color:#fea860;stop-opacity:1;" offset="0.363281"/><stop style="stop-color:#fea860;stop-opacity:1;" offset="0.367188"/><stop style="stop-color:#fea760;stop-opacity:1;" offset="0.375"/><stop style="stop-color:#fea760;stop-opacity:1;" offset="0.382812"/><stop style="stop-color:#fea660;stop-opacity:1;" offset="0.390625"/><stop style="stop-color:#fea560;stop-opacity:1;" offset="0.394531"/><stop style="stop-color:#fea560;stop-opacity:1;" offset="0.398437"/><stop style="stop-color:#fea460;stop-opacity:1;" offset="0.402344"/><stop style="stop-color:#fea460;stop-opacity:1;" offset="0.40625"/><stop style="stop-color:#fea361;stop-opacity:1;" offset="0.421875"/><stop style="stop-color:#fea261;stop-opacity:1;" offset="0.429687"/><stop style="stop-color:#fea161;stop-opacity:1;" offset="0.4375"/><stop style="stop-color:#fea061;stop-opacity:1;" offset="0.441406"/><stop style="stop-color:#fea061;stop-opacity:1;" offset="0.445312"/><stop style="stop-color:#fe9f61;stop-opacity:1;" offset="0.453125"/><stop style="stop-color:#fe9f61;stop-opacity:1;" offset="0.460937"/><stop style="stop-color:#fe9e61;stop-opacity:1;" offset="0.46875"/><stop style="stop-color:#fe9d61;stop-opacity:1;" offset="0.476562"/><stop style="stop-color:#fe9c61;stop-opacity:1;" offset="0.484375"/><stop style="stop-color:#fe9b61;stop-opacity:1;" offset="0.492187"/><stop style="stop-color:#ff9b62;stop-opacity:1;" offset="0.5"/><stop style="stop-color:#ff9a62;stop-opacity:1;" offset="0.507812"/><stop style="stop-color:#ff9962;stop-opacity:1;" offset="0.515625"/><stop style="stop-color:#ff9862;stop-opacity:1;" offset="0.523438"/><stop style="stop-color:#ff9862;stop-opacity:1;" offset="0.53125"/><stop style="stop-color:#ff9762;stop-opacity:1;" offset="0.539062"/><stop style="stop-color:#ff9662;stop-opacity:1;" offset="0.546875"/><stop style="stop-color:#ff9562;stop-opacity:1;" offset="0.554688"/><stop style="stop-color:#ff9462;stop-opacity:1;" offset="0.5625"/><stop style="stop-color:#ff9462;stop-opacity:1;" offset="0.570312"/><stop style="stop-color:#ff9363;stop-opacity:1;" offset="0.574219"/><stop style="stop-color:#ff9363;stop-opacity:1;" offset="0.578125"/><stop style="stop-color:#ff9263;stop-opacity:1;" offset="0.585938"/><stop style="stop-color:#ff9163;stop-opacity:1;" offset="0.59375"/><stop style="stop-color:#ff9063;stop-opacity:1;" offset="0.609375"/><stop style="stop-color:#ff8f63;stop-opacity:1;" offset="0.613281"/><stop style="stop-color:#ff8f63;stop-opacity:1;" offset="0.617188"/><stop style="stop-color:#ff8e63;stop-opacity:1;" offset="0.625"/><stop style="stop-color:#ff8d63;stop-opacity:1;" offset="0.632812"/><stop style="stop-color:#ff8c63;stop-opacity:1;" offset="0.640625"/><stop style="stop-color:#ff8c63;stop-opacity:1;" offset="0.648438"/><stop style="stop-color:#ff8b63;stop-opacity:1;" offset="0.652344"/><stop style="stop-color:#ff8b63;stop-opacity:1;" offset="0.65625"/><stop style="stop-color:#ff8a64;stop-opacity:1;" offset="0.664062"/><stop style="stop-color:#ff8964;stop-opacity:1;" offset="0.671875"/><stop style="stop-color:#ff8964;stop-opacity:1;" offset="0.679688"/><stop style="stop-color:#ff8864;stop-opacity:1;" offset="0.6875"/><stop style="stop-color:#ff8864;stop-opacity:1;" offset="0.695312"/><stop style="stop-color:#ff8764;stop-opacity:1;" offset="0.699219"/><stop style="stop-color:#ff8664;stop-opacity:1;" offset="0.703125"/><stop style="stop-color:#ff8664;stop-opacity:1;" offset="0.710938"/><stop style="stop-color:#ff8564;stop-opacity:1;" offset="0.71875"/><stop style="stop-color:#ff8464;stop-opacity:1;" offset="0.734375"/><stop style="stop-color:#ff8364;stop-opacity:1;" offset="0.738281"/><stop style="stop-color:#ff8265;stop-opacity:1;" offset="0.742188"/><stop style="stop-color:#ff8265;stop-opacity:1;" offset="0.75"/><stop style="stop-color:#ff8165;stop-opacity:1;" offset="0.757812"/><stop style="stop-color:#ff8065;stop-opacity:1;" offset="0.765625"/><stop style="stop-color:#ff8065;stop-opacity:1;" offset="0.773438"/><stop style="stop-color:#ff7f65;stop-opacity:1;" offset="0.78125"/><stop style="stop-color:#ff7e65;stop-opacity:1;" offset="0.8125"/><stop style="stop-color:#ff7e65;stop-opacity:1;" offset="0.875"/><stop style="stop-color:#ff7e65;stop-opacity:1;" offset="1"/></linearGradient><clipPath id="57ec19154c"><path d="M 1018 572.519531 L 1359.136719 572.519531 L 1359.136719 693 L 1018 693 Z M 1018 572.519531 "/></clipPath></defs><g id="eabbf8c7b9"><g clip-rule="nonzero" clip-path="url(#6034b92283)"><g clip-rule="nonzero" clip-path="url(#78dab44ea5)"><g clip-rule="nonzero" clip-path="url(#6a697a43a2)"><g clip-rule="nonzero" clip-path="url(#9641f3e1b8)"><path style=" stroke:none;fill-rule:nonzero;fill:url(#2ec33f6672);" d="M 1194.140625 13.609375 L 41.925781 -94.40625 L -39.964844 778.964844 L 1112.25 886.976562 Z M 1194.140625 13.609375 "/></g></g></g></g><path style=" stroke:none;fill-rule:nonzero;fill:#fd654e;fill-opacity:1;" d="M 184.851562 677.195312 C 179.890625 674.769531 174.972656 671.988281 170.160156 668.597656 C 170.867188 669.023438 176.503906 672.453125 184.851562 677.195312 Z M 1108.914062 338.488281 C 1103.308594 420.578125 1016.320312 482.398438 933.085938 492.011719 C 931.957031 598.75 837.925781 671.179688 745.210938 644.675781 C 704.117188 632.246094 709.25 605.1875 739.472656 580.425781 C 760.5 561.339844 770.671875 539.414062 770.671875 539.414062 C 682.082031 609.257812 593.570312 581.9375 593.570312 581.9375 C 615.210938 595.8125 634.71875 603.3125 652.238281 606.40625 C 741.683594 649.828125 587.421875 730.949219 538.273438 652.734375 C 423.859375 787.765625 273.558594 717.785156 265.386719 602.859375 C 265.386719 602.859375 240.585938 646.371094 242.421875 664.363281 C 229.140625 682.347656 168.070312 694.066406 131.6875 622.964844 C 58.183594 649.09375 37.136719 564 37.136719 564 C 17.429688 618.394531 61.328125 674.210938 125.640625 677.628906 C 137.015625 736.300781 214.121094 758.417969 258.753906 716.53125 C 315.613281 803.335938 481.167969 809.867188 550.546875 727.988281 C 588.917969 789.039062 698.382812 756.4375 708.425781 695.90625 C 743.554688 721.085938 789.578125 732.269531 836.582031 722.832031 C 913.011719 707.484375 966.355469 643.058594 967.105469 571.59375 C 1054.179688 561.535156 1121.742188 489.648438 1121.742188 402.316406 C 1121.742188 379.730469 1117.125 358.222656 1108.914062 338.488281 "/><path style=" stroke:none;fill-rule:nonzero;fill:#fbe59c;fill-opacity:1;" d="M 564.035156 372.640625 C 466.945312 320.589844 373.476562 359.128906 314.640625 437.425781 C 261.636719 391.171875 207.273438 398.367188 177.644531 434.074219 C 231.226562 395.402344 275.792969 426.832031 316.847656 475.226562 C 389.492188 384.605469 466.988281 353.542969 566.132812 409.730469 C 640.933594 352.285156 734.226562 314.277344 806.46875 374.625 C 750.257812 298.300781 643.917969 320.664062 564.035156 372.640625 "/><path style=" stroke:none;fill-rule:nonzero;fill:#fbe59c;fill-opacity:1;" d="M 1003.316406 146.789062 C 983.777344 127.25 956.898438 119.855469 932.234375 124.578125 C 925.914062 65.539062 875.839844 15.808594 809.652344 7.894531 C 744.195312 0.0703125 684.472656 35.742188 663.753906 90.585938 C 651.949219 84.367188 638.527344 80.804688 624.253906 80.804688 C 584.894531 80.804688 551.882812 107.628906 542.273438 143.960938 C 452.160156 112.503906 334.414062 166.691406 309.402344 250.9375 C 225.230469 246.820312 160.394531 305.933594 160.394531 374.625 C 160.394531 386.597656 162.429688 398.136719 166.027344 409.089844 C 183.027344 357.375 238.972656 316.421875 309.402344 319.863281 C 330.535156 248.691406 429.382812 182.628906 524.59375 215.863281 C 559.886719 145.28125 633.414062 142.765625 633.414062 165.695312 C 633.414062 171.160156 652.007812 214.222656 652.007812 214.222656 C 644.351562 150.792969 716.488281 96.796875 716.488281 96.796875 L 715.527344 97.03125 C 794.09375 43.117188 921.457031 92.902344 932.234375 193.507812 C 965.132812 187.207031 1001.378906 202.546875 1018.542969 237.484375 C 1033.207031 208.515625 1028.261719 171.726562 1003.316406 146.789062 "/><g clip-rule="nonzero" clip-path="url(#a7ba55878e)"><g clip-rule="nonzero" clip-path="url(#58f6f55996)"><g clip-rule="nonzero" clip-path="url(#5884b485fb)"><g clip-rule="nonzero" clip-path="url(#a8b8a844c8)"><path style=" stroke:none;fill-rule:nonzero;fill:url(#b4ca40b9e3);" d="M 1370.277344 573.53125 L 953.152344 550.359375 L 940.757812 773.449219 L 1357.882812 796.621094 Z M 1370.277344 573.53125 "/></g></g></g></g><path style=" stroke:none;fill-rule:nonzero;fill:#fd654e;fill-opacity:1;" d="M 1245.332031 742.960938 C 1216.285156 740.429688 1189.4375 726.558594 1171.121094 711.910156 C 1203.109375 707.707031 1229.195312 679.113281 1229.195312 679.113281 C 1176.699219 707.394531 1109.714844 679.113281 1109.714844 679.113281 C 1124.644531 701.023438 1141.042969 710.082031 1156.777344 712.003906 C 1142.394531 726.730469 1115.695312 734.789062 1086.355469 731.195312 C 1060.394531 728.007812 1038.574219 716.480469 1026.691406 701.554688 C 996.425781 700.753906 971.839844 693.746094 960.910156 679.113281 C 955.242188 686.570312 951.898438 694.316406 951.898438 701.699219 C 951.898438 729.351562 982.75 741.765625 1023.859375 742.855469 C 1035.746094 757.78125 1057.5625 769.3125 1083.527344 772.492188 C 1117.484375 776.65625 1147.984375 765.246094 1159.84375 745.90625 C 1177.664062 762.953125 1208.066406 773.234375 1242.007812 771.222656 C 1276.066406 769.207031 1305.128906 755.316406 1320.769531 736.179688 C 1296.375 742.1875 1270.378906 745.144531 1245.332031 742.960938 "/><g clip-rule="nonzero" clip-path="url(#57ec19154c)"><path style=" stroke:none;fill-rule:nonzero;fill:#fbe59c;fill-opacity:1;" d="M 1100.960938 601.945312 C 1124.410156 601.945312 1145.667969 609.378906 1161.480469 621.421875 C 1169.503906 604.65625 1187.585938 592.917969 1208.699219 592.917969 C 1222.621094 592.917969 1235.210938 598.078125 1244.511719 606.363281 C 1252.925781 603.550781 1261.925781 601.945312 1271.328125 601.945312 C 1316.652344 601.945312 1353.390625 637.421875 1353.390625 681.195312 C 1353.390625 685.035156 1353.011719 688.78125 1352.464844 692.472656 C 1356.75 682.871094 1359.136719 672.300781 1359.136719 661.1875 C 1359.136719 617.417969 1322.394531 581.9375 1277.078125 581.9375 C 1267.667969 581.9375 1258.667969 583.539062 1250.257812 586.355469 C 1240.960938 578.066406 1228.367188 572.914062 1214.433594 572.914062 C 1193.332031 572.914062 1175.238281 584.648438 1167.214844 601.417969 C 1151.410156 589.371094 1130.15625 581.9375 1106.707031 581.9375 C 1060.414062 581.9375 1022.503906 610.726562 1018.765625 647.355469 C 1031.621094 620.789062 1063.539062 601.945312 1100.960938 601.945312 "/></g></g></svg>