<svg xmlns="http://www.w3.org/2000/svg" xmlns:xlink="http://www.w3.org/1999/xlink" width="1920" zoomAndPan="magnify" viewBox="0 0 1440 809.999993" height="1080" preserveAspectRatio="xMidYMid meet" version="1.2"><defs><clipPath id="eef67fe412"><path d="M 0 58.328125 L 1439.964844 58.328125 L 1439.964844 728.914062 L 0 728.914062 Z M 0 58.328125 "/></clipPath><clipPath id="7722546785"><path d="M 1438.507812 468.484375 C 1433.695312 439.65625 1417.300781 415.421875 1394.308594 398.675781 C 1416.871094 374.671875 1428.464844 340.867188 1422.625 305.859375 C 1412.691406 246.339844 1356.386719 206.136719 1296.871094 216.066406 C 1296.476562 216.132812 1296.105469 216.25 1295.722656 216.320312 C 1286.863281 180.441406 1251.777344 156.859375 1214.707031 163.042969 C 1205.523438 164.574219 1197.0625 167.847656 1189.554688 172.394531 C 1177.851562 136.722656 1146.585938 104.269531 1103.199219 88.019531 C 1047.757812 67.261719 989.777344 79.355469 958.996094 114.332031 C 936.601562 74.554688 886.699219 51.367188 833.777344 60.199219 C 774.960938 70.011719 732.59375 116.027344 731.4375 167.28125 C 708.972656 159.816406 681.558594 163.59375 658.535156 179.6875 C 637.296875 194.535156 624.648438 216.503906 622.253906 238.394531 C 593.175781 231.539062 559.472656 236.398438 529.476562 254.539062 C 481.699219 283.4375 459.1875 336.273438 472.707031 380.390625 C 462.585938 364.585938 443.710938 355.464844 424.023438 358.75 C 405 361.921875 390.585938 375.855469 385.617188 393.242188 C 365.417969 383.367188 340.890625 379.464844 315.519531 383.699219 C 261.214844 392.757812 222.625 435.738281 225.515625 481.828125 C 215.71875 477.496094 203.972656 475.71875 191.660156 477.777344 C 181.578125 479.457031 172.605469 483.390625 165.359375 488.75 C 151.953125 474.074219 129.300781 466.546875 100.851562 471.289062 C 58.429688 478.367188 18.472656 531.792969 23.570312 562.355469 C 5.535156 583.957031 -3.371094 610.824219 1.179688 638.097656 C 10.398438 693.363281 71.195312 729.261719 136.96875 718.285156 C 170.851562 712.636719 199.363281 695.601562 217.863281 672.898438 C 237.953125 694.21875 269.90625 705.449219 303.453125 699.855469 C 325.464844 696.179688 344.492188 685.878906 358.40625 671.699219 C 383.894531 709.464844 438.332031 730.488281 496.707031 720.75 C 534.859375 714.378906 567.140625 696.105469 588.289062 671.953125 C 600.136719 682.171875 616.863281 687.273438 634.28125 684.363281 C 644.253906 682.699219 653.136719 678.597656 660.425781 672.890625 C 683.867188 708.488281 735.558594 731.65625 794.269531 728.65625 C 841.746094 726.230469 882.804688 707.195312 907.226562 680.039062 C 924.425781 697.714844 955.386719 706.699219 988.59375 701.160156 C 1007.410156 698.019531 1023.992188 690.664062 1036.808594 680.859375 C 1072.535156 703.085938 1121.78125 712.804688 1173.609375 704.15625 C 1241.851562 692.773438 1295.488281 652.761719 1315.234375 604.753906 C 1320.570312 604.480469 1325.933594 604.003906 1331.339844 603.101562 C 1400.988281 591.480469 1448.96875 531.210938 1438.507812 468.484375 Z M 1438.507812 468.484375 "/></clipPath><clipPath id="2f49122dcf"><path d="M 1438.511719 468.484375 C 1433.695312 439.65625 1417.3125 415.421875 1394.316406 398.675781 C 1416.875 374.671875 1428.464844 340.863281 1422.628906 305.859375 C 1412.695312 246.335938 1356.386719 206.136719 1296.878906 216.066406 C 1296.480469 216.132812 1296.109375 216.25 1295.730469 216.320312 C 1286.871094 180.4375 1251.78125 156.855469 1214.710938 163.039062 C 1205.523438 164.574219 1197.066406 167.847656 1189.558594 172.394531 C 1177.855469 136.71875 1146.585938 104.265625 1103.203125 88.019531 C 1047.757812 67.261719 989.777344 79.355469 959 114.332031 C 936.605469 74.554688 886.699219 51.367188 833.78125 60.195312 C 774.964844 70.007812 732.59375 116.023438 731.441406 167.28125 C 708.972656 159.816406 681.558594 163.59375 658.535156 179.6875 C 637.296875 194.535156 624.652344 216.5 622.257812 238.394531 C 593.179688 231.535156 559.472656 236.398438 529.476562 254.539062 C 481.699219 283.433594 459.1875 336.273438 472.710938 380.390625 C 462.585938 364.582031 443.714844 355.460938 424.023438 358.746094 C 405.003906 361.921875 390.585938 375.855469 385.617188 393.242188 C 365.421875 383.367188 340.890625 379.464844 315.519531 383.699219 C 261.214844 392.757812 222.625 435.738281 225.515625 481.828125 C 215.71875 477.492188 203.972656 475.71875 191.660156 477.773438 C 181.582031 479.457031 172.605469 483.386719 165.359375 488.75 C 151.953125 474.074219 129.300781 466.542969 100.851562 471.289062 C 58.429688 478.367188 18.472656 531.789062 23.570312 562.355469 C 5.535156 583.957031 -3.371094 610.824219 1.179688 638.097656 C 10.398438 693.359375 71.195312 729.261719 136.96875 718.285156 C 170.851562 712.636719 199.363281 695.597656 217.867188 672.898438 C 237.957031 694.21875 269.90625 705.449219 303.453125 699.855469 C 325.464844 696.179688 344.492188 685.878906 358.40625 671.699219 C 383.894531 709.464844 438.335938 730.488281 496.710938 720.746094 C 534.859375 714.378906 567.140625 696.105469 588.292969 671.953125 C 600.136719 682.171875 616.863281 687.273438 634.285156 684.363281 C 644.257812 682.699219 653.140625 678.597656 660.425781 672.890625 C 683.871094 708.488281 735.5625 731.65625 794.273438 728.65625 C 841.75 726.230469 882.804688 707.195312 907.230469 680.039062 C 924.429688 697.714844 955.386719 706.699219 988.59375 701.160156 C 1007.421875 698.019531 1023.992188 690.664062 1036.8125 680.859375 C 1072.539062 703.085938 1121.78125 712.804688 1173.613281 704.15625 C 1241.859375 692.773438 1295.492188 652.761719 1315.246094 604.753906 C 1320.574219 604.476562 1325.9375 604.003906 1331.34375 603.101562 C 1400.992188 591.480469 1448.96875 531.210938 1438.511719 468.484375 "/></clipPath><clipPath id="de7789b285"><path d="M 1432.105469 -47.753906 L -49.402344 61.988281 L 7.859375 834.996094 L 1489.371094 725.253906 Z M 1432.105469 -47.753906 "/></clipPath><linearGradient x1="-0.272978" gradientTransform="matrix(36.857265,497.619626,-497.619626,36.857265,689.83746,143.818989)" y1="0" x2="1.280417" gradientUnits="userSpaceOnUse" y2="0" id="faaf150307"><stop style="stop-color:#feb95e;stop-opacity:1;" offset="0"/><stop style="stop-color:#feb95e;stop-opacity:1;" offset="0.125"/><stop style="stop-color:#feb95e;stop-opacity:1;" offset="0.1875"/><stop style="stop-color:#feb85e;stop-opacity:1;" offset="0.195312"/><stop style="stop-color:#feb75e;stop-opacity:1;" offset="0.203125"/><stop style="stop-color:#feb65e;stop-opacity:1;" offset="0.210938"/><stop style="stop-color:#feb65e;stop-opacity:1;" offset="0.21875"/><stop style="stop-color:#feb55e;stop-opacity:1;" offset="0.226562"/><stop style="stop-color:#feb45f;stop-opacity:1;" offset="0.230469"/><stop style="stop-color:#feb45f;stop-opacity:1;" offset="0.234375"/><stop style="stop-color:#feb35f;stop-opacity:1;" offset="0.25"/><stop style="stop-color:#feb35f;stop-opacity:1;" offset="0.257812"/><stop style="stop-color:#feb25f;stop-opacity:1;" offset="0.265625"/><stop style="stop-color:#feb15f;stop-opacity:1;" offset="0.269531"/><stop style="stop-color:#feb05f;stop-opacity:1;" offset="0.273438"/><stop style="stop-color:#feb05f;stop-opacity:1;" offset="0.28125"/><stop style="stop-color:#feaf5f;stop-opacity:1;" offset="0.289063"/><stop style="stop-color:#feaf5f;stop-opacity:1;" offset="0.296875"/><stop style="stop-color:#feae5f;stop-opacity:1;" offset="0.3125"/><stop style="stop-color:#fead5f;stop-opacity:1;" offset="0.316406"/><stop style="stop-color:#feac60;stop-opacity:1;" offset="0.320312"/><stop style="stop-color:#feab60;stop-opacity:1;" offset="0.328125"/><stop style="stop-color:#feab60;stop-opacity:1;" offset="0.34375"/><stop style="stop-color:#feaa60;stop-opacity:1;" offset="0.351563"/><stop style="stop-color:#fea960;stop-opacity:1;" offset="0.359375"/><stop style="stop-color:#fea860;stop-opacity:1;" offset="0.367188"/><stop style="stop-color:#fea760;stop-opacity:1;" offset="0.375"/><stop style="stop-color:#fea760;stop-opacity:1;" offset="0.382812"/><stop style="stop-color:#fea660;stop-opacity:1;" offset="0.390625"/><stop style="stop-color:#fea560;stop-opacity:1;" offset="0.394531"/><stop style="stop-color:#fea560;stop-opacity:1;" offset="0.398437"/><stop style="stop-color:#fea460;stop-opacity:1;" offset="0.40625"/><stop style="stop-color:#fea361;stop-opacity:1;" offset="0.421875"/><stop style="stop-color:#fea361;stop-opacity:1;" offset="0.429688"/><stop style="stop-color:#fea261;stop-opacity:1;" offset="0.4375"/><stop style="stop-color:#fea161;stop-opacity:1;" offset="0.445312"/><stop style="stop-color:#fea061;stop-opacity:1;" offset="0.453125"/><stop style="stop-color:#fea061;stop-opacity:1;" offset="0.460938"/><stop style="stop-color:#fe9f61;stop-opacity:1;" offset="0.46875"/><stop style="stop-color:#fe9e61;stop-opacity:1;" offset="0.476562"/><stop style="stop-color:#fe9d61;stop-opacity:1;" offset="0.480469"/><stop style="stop-color:#fe9d61;stop-opacity:1;" offset="0.484375"/><stop style="stop-color:#fe9c61;stop-opacity:1;" offset="0.5"/><stop style="stop-color:#fe9c61;stop-opacity:1;" offset="0.507812"/><stop style="stop-color:#ff9b62;stop-opacity:1;" offset="0.515625"/><stop style="stop-color:#ff9a62;stop-opacity:1;" offset="0.519531"/><stop style="stop-color:#ff9962;stop-opacity:1;" offset="0.523438"/><stop style="stop-color:#ff9962;stop-opacity:1;" offset="0.53125"/><stop style="stop-color:#ff9962;stop-opacity:1;" offset="0.539062"/><stop style="stop-color:#ff9862;stop-opacity:1;" offset="0.546875"/><stop style="stop-color:#ff9762;stop-opacity:1;" offset="0.5625"/><stop style="stop-color:#ff9662;stop-opacity:1;" offset="0.566406"/><stop style="stop-color:#ff9562;stop-opacity:1;" offset="0.570312"/><stop style="stop-color:#ff9462;stop-opacity:1;" offset="0.578125"/><stop style="stop-color:#ff9462;stop-opacity:1;" offset="0.59375"/><stop style="stop-color:#ff9363;stop-opacity:1;" offset="0.601563"/><stop style="stop-color:#ff9263;stop-opacity:1;" offset="0.609375"/><stop style="stop-color:#ff9163;stop-opacity:1;" offset="0.617188"/><stop style="stop-color:#ff9163;stop-opacity:1;" offset="0.625"/><stop style="stop-color:#ff9063;stop-opacity:1;" offset="0.632812"/><stop style="stop-color:#ff8f63;stop-opacity:1;" offset="0.640625"/><stop style="stop-color:#ff8e63;stop-opacity:1;" offset="0.644531"/><stop style="stop-color:#ff8e63;stop-opacity:1;" offset="0.648438"/><stop style="stop-color:#ff8d63;stop-opacity:1;" offset="0.65625"/><stop style="stop-color:#ff8d63;stop-opacity:1;" offset="0.671875"/><stop style="stop-color:#ff8c63;stop-opacity:1;" offset="0.679688"/><stop style="stop-color:#ff8b63;stop-opacity:1;" offset="0.6875"/><stop style="stop-color:#ff8a64;stop-opacity:1;" offset="0.695312"/><stop style="stop-color:#ff8a64;stop-opacity:1;" offset="0.703125"/><stop style="stop-color:#ff8964;stop-opacity:1;" offset="0.710938"/><stop style="stop-color:#ff8864;stop-opacity:1;" offset="0.71875"/><stop style="stop-color:#ff8864;stop-opacity:1;" offset="0.726562"/><stop style="stop-color:#ff8764;stop-opacity:1;" offset="0.730469"/><stop style="stop-color:#ff8664;stop-opacity:1;" offset="0.734375"/><stop style="stop-color:#ff8564;stop-opacity:1;" offset="0.75"/><stop style="stop-color:#ff8564;stop-opacity:1;" offset="0.757812"/><stop style="stop-color:#ff8464;stop-opacity:1;" offset="0.765625"/><stop style="stop-color:#ff8364;stop-opacity:1;" offset="0.773437"/><stop style="stop-color:#ff8265;stop-opacity:1;" offset="0.78125"/><stop style="stop-color:#ff8265;stop-opacity:1;" offset="0.789062"/><stop style="stop-color:#ff8165;stop-opacity:1;" offset="0.796875"/><stop style="stop-color:#ff8065;stop-opacity:1;" offset="0.8125"/><stop style="stop-color:#ff7f65;stop-opacity:1;" offset="0.84375"/><stop style="stop-color:#ff7e65;stop-opacity:1;" offset="0.875"/><stop style="stop-color:#ff7e65;stop-opacity:1;" offset="1"/></linearGradient><clipPath id="552f47ed9f"><path d="M 0 414 L 1439.964844 414 L 1439.964844 728.914062 L 0 728.914062 Z M 0 414 "/></clipPath></defs><g id="a5f17894eb"><g clip-rule="nonzero" clip-path="url(#eef67fe412)"><g clip-rule="nonzero" clip-path="url(#7722546785)"><g clip-rule="nonzero" clip-path="url(#2f49122dcf)"><g clip-rule="nonzero" clip-path="url(#de7789b285)"><path style=" stroke:none;fill-rule:nonzero;fill:url(#faaf150307);" d="M 1432.109375 -47.742188 L -49.398438 61.988281 L 7.855469 834.988281 L 1489.363281 725.257812 Z M 1432.109375 -47.742188 "/></g></g></g></g><g clip-rule="nonzero" clip-path="url(#552f47ed9f)"><path style=" stroke:none;fill-rule:nonzero;fill:#fd654e;fill-opacity:1;" d="M 1432.347656 446.617188 C 1419.214844 464.953125 1400.636719 480 1378.4375 489.738281 C 1371.035156 491.21875 1263.496094 511.074219 1187.046875 431.195312 C 1187.046875 431.195312 1190.804688 481.738281 1259.375 528.691406 C 1259.375 528.691406 1282.480469 569.171875 1214.320312 594.578125 C 1159.863281 610.597656 1097.734375 606.9375 1050.53125 577.570312 C 894.710938 571.304688 988.265625 475.75 990.917969 473.078125 C 1036.238281 446.464844 1065.074219 414.050781 1065.074219 414.050781 C 895.417969 503.167969 710.53125 416.90625 710.53125 416.90625 C 724.765625 434.117188 739.113281 448.355469 753.445312 460.113281 C 888.777344 624.308594 705.042969 615.230469 705.042969 615.230469 C 664.589844 605.34375 633.304688 588.78125 616.296875 578.285156 C 589.269531 559.703125 553.726562 528.277344 532.125 481.542969 C 532.125 481.542969 527.367188 526.90625 545.707031 562.9375 C 545.707031 562.9375 545.082031 599.535156 521.257812 615.09375 C 464.667969 628.160156 402.097656 612.808594 372.128906 568.414062 C 334.082031 607.191406 267.796875 608.035156 231.589844 569.613281 C 177.320312 636.191406 61.804688 631.453125 24.191406 561.609375 C 5.707031 583.296875 -3.425781 610.5 1.179688 638.097656 C 16.25 728.4375 154.925781 750.121094 217.867188 672.898438 C 254.117188 711.371094 320.40625 710.429688 358.40625 671.699219 C 404.625 740.175781 528.648438 740.058594 588.292969 671.953125 C 608.230469 689.152344 638.996094 689.675781 660.425781 672.890625 C 707.289062 744.042969 845.761719 748.363281 907.230469 680.039062 C 936.09375 709.691406 997.828125 710.691406 1036.8125 680.859375 C 1128.53125 737.914062 1276.835938 698.101562 1315.246094 604.753906 C 1403.457031 600.164062 1461.578125 519.253906 1432.347656 446.617188 "/></g><path style=" stroke:none;fill-rule:nonzero;fill:#fbe59c;fill-opacity:1;" d="M 678.503906 236.628906 C 679.074219 236.261719 679.679688 235.949219 680.257812 235.59375 Z M 1296.867188 216.070312 C 1296.472656 216.132812 1296.105469 216.253906 1295.722656 216.320312 C 1284.269531 169.953125 1230.972656 147.34375 1189.546875 172.394531 C 1159.175781 79.777344 1019.910156 45.121094 958.992188 114.335938 C 936.59375 74.558594 886.691406 51.371094 833.773438 60.199219 C 774.960938 70.011719 732.589844 116.027344 731.4375 167.285156 C 683.851562 151.472656 627.777344 187.929688 622.253906 238.394531 C 536.621094 218.199219 448.609375 301.746094 472.707031 380.390625 C 450.378906 345.527344 397.140625 352.917969 385.617188 393.246094 C 314.164062 358.308594 221.144531 408.9375 225.492188 481.605469 C 206.8125 473.40625 182.625 475.980469 165.359375 488.75 C 139.503906 460.445312 76.441406 458.878906 37.4375 517.40625 C 37.4375 517.40625 95.851562 477.480469 163.90625 500.425781 C 174.972656 504.152344 195.371094 538.046875 204.777344 541.769531 C 205.417969 540.964844 326.742188 411.855469 403.195312 451.78125 C 412.332031 419.828125 449.410156 406.652344 476.523438 424.9375 C 480.027344 416.507812 489.898438 336.652344 560.101562 306.96875 C 639.136719 293.503906 616.542969 342.386719 616.542969 342.386719 C 610.472656 354.261719 605.972656 368.980469 603.992188 387.34375 C 603.992188 387.34375 640.390625 304.515625 752.410156 303.960938 C 752.410156 303.960938 736.660156 298.664062 715.390625 296.839844 C 643.652344 280.238281 680.265625 235.589844 680.273438 235.582031 C 700.660156 222.886719 725.828125 218.117188 749.015625 225.820312 C 751.191406 129.300781 878.386719 86.816406 948.5 140.507812 C 918.734375 171.179688 912.578125 245.550781 912.578125 245.550781 C 971.097656 158.234375 1035.84375 139.660156 1036.359375 139.515625 C 1062.402344 133.921875 1091.917969 135.75 1120.78125 146.558594 C 1138.835938 153.316406 1154.625 162.992188 1167.949219 174.429688 C 1179.261719 185.117188 1216.601562 225.351562 1224.726562 297.792969 C 1224.726562 297.792969 1244.015625 257.582031 1244.164062 220.660156 C 1276.601562 220.6875 1305.394531 242.839844 1313.300781 274.859375 C 1358.1875 266.90625 1400.878906 287.339844 1423.976562 322.792969 C 1423.253906 254.472656 1362.050781 205.191406 1296.867188 216.070312 "/></g></svg>