<svg xmlns="http://www.w3.org/2000/svg" xmlns:xlink="http://www.w3.org/1999/xlink" width="1920" zoomAndPan="magnify" viewBox="0 0 1440 809.999993" height="1080" preserveAspectRatio="xMidYMid meet" version="1.2"><defs><clipPath id="f8db5308ad"><path d="M 74.894531 0.273438 L 1358.636719 0.273438 L 1358.636719 809.726562 L 74.894531 809.726562 Z M 74.894531 0.273438 "/></clipPath><clipPath id="4ecf469fe5"><path d="M 1358.636719 388.839844 C 1358.636719 351.394531 1338.597656 318.710938 1308.71875 300.679688 C 1326.117188 242.617188 1305.25 174.371094 1251.140625 130.835938 C 1198.125 88.171875 1128.742188 81.714844 1076.128906 109.167969 C 1044.140625 45.335938 966.921875 0.273438 876.59375 0.273438 C 780.335938 0.273438 698.871094 51.417969 671.28125 121.957031 C 654.097656 104.957031 630.484375 94.4375 604.402344 94.4375 C 577.082031 94.4375 552.523438 106.023438 535.171875 124.46875 C 507.566406 114.011719 476.941406 108.011719 444.539062 108.011719 C 326.167969 108.011719 230.121094 185.9375 228.046875 282.671875 C 143.375 282.664062 74.894531 340.824219 74.894531 412.574219 C 74.894531 431.449219 79.738281 449.332031 88.257812 465.515625 C 71.429688 518.105469 98.988281 577.707031 154.140625 603.121094 C 179.488281 614.800781 206.527344 617.296875 231.1875 612.097656 C 236.234375 644.601562 274.082031 677.945312 326.15625 692.289062 C 345.191406 697.53125 363.890625 699.59375 381.003906 698.90625 C 380.980469 699.574219 380.808594 700.226562 380.808594 700.898438 C 380.808594 761 477.285156 809.726562 596.296875 809.726562 C 672.992188 809.726562 740.152344 789.429688 778.34375 758.949219 C 810.601562 780.519531 857.324219 790.820312 907.332031 783.886719 C 985.765625 773.015625 1044.96875 723.652344 1049.269531 669.351562 C 1093.796875 699.347656 1164.269531 696.65625 1225.011719 658.078125 C 1295.09375 613.570312 1327.472656 537.027344 1303.234375 480.144531 C 1336.140625 462.949219 1358.636719 428.546875 1358.636719 388.839844 Z M 1358.636719 388.839844 "/></clipPath><clipPath id="4787b9efda"><path d="M 1358.636719 388.839844 C 1358.636719 351.394531 1338.597656 318.710938 1308.71875 300.679688 C 1326.117188 242.617188 1305.25 174.371094 1251.140625 130.835938 C 1198.125 88.171875 1128.742188 81.714844 1076.128906 109.167969 C 1044.140625 45.335938 966.921875 0.273438 876.59375 0.273438 C 780.335938 0.273438 698.871094 51.417969 671.28125 121.957031 C 654.097656 104.957031 630.484375 94.4375 604.402344 94.4375 C 577.082031 94.4375 552.523438 106.023438 535.171875 124.46875 C 507.566406 114.011719 476.941406 108.011719 444.539062 108.011719 C 326.167969 108.011719 230.121094 185.9375 228.046875 282.671875 C 143.375 282.664062 74.894531 340.824219 74.894531 412.574219 C 74.894531 431.449219 79.738281 449.332031 88.257812 465.515625 C 71.429688 518.105469 98.988281 577.707031 154.140625 603.121094 C 179.488281 614.800781 206.527344 617.296875 231.1875 612.097656 C 236.234375 644.601562 274.082031 677.945312 326.15625 692.289062 C 345.191406 697.53125 363.890625 699.59375 381.003906 698.90625 C 380.980469 699.574219 380.808594 700.226562 380.808594 700.898438 C 380.808594 761 477.285156 809.726562 596.296875 809.726562 C 672.992188 809.726562 740.152344 789.429688 778.34375 758.949219 C 810.601562 780.519531 857.324219 790.820312 907.332031 783.886719 C 985.765625 773.015625 1044.96875 723.652344 1049.269531 669.351562 C 1093.796875 699.347656 1164.269531 696.65625 1225.011719 658.078125 C 1295.09375 613.570312 1327.472656 537.027344 1303.234375 480.144531 C 1336.140625 462.949219 1358.636719 428.546875 1358.636719 388.839844 "/></clipPath><clipPath id="407b04b098"><path d="M 1414.824219 4.195312 L 81.113281 -88.878906 L 18.710938 805.804688 L 1352.421875 898.878906 Z M 1414.824219 4.195312 "/></clipPath><linearGradient x1="-0.17815" gradientTransform="matrix(-43.702705,626.554805,-626.392205,-43.714054,739.87671,69.255629)" y1="0" x2="1.249798" gradientUnits="userSpaceOnUse" y2="0" id="a616f1a03d"><stop style="stop-color:#feb95e;stop-opacity:1;" offset="0"/><stop style="stop-color:#feb95e;stop-opacity:1;" offset="0.125"/><stop style="stop-color:#feb95e;stop-opacity:1;" offset="0.140625"/><stop style="stop-color:#feb85e;stop-opacity:1;" offset="0.144531"/><stop style="stop-color:#feb75e;stop-opacity:1;" offset="0.148438"/><stop style="stop-color:#feb75e;stop-opacity:1;" offset="0.15625"/><stop style="stop-color:#feb65e;stop-opacity:1;" offset="0.164062"/><stop style="stop-color:#feb65e;stop-opacity:1;" offset="0.171875"/><stop style="stop-color:#feb55e;stop-opacity:1;" offset="0.1875"/><stop style="stop-color:#feb45f;stop-opacity:1;" offset="0.191406"/><stop style="stop-color:#feb35f;stop-opacity:1;" offset="0.195312"/><stop style="stop-color:#feb35f;stop-opacity:1;" offset="0.203125"/><stop style="stop-color:#feb35f;stop-opacity:1;" offset="0.210938"/><stop style="stop-color:#feb25f;stop-opacity:1;" offset="0.21875"/><stop style="stop-color:#feb15f;stop-opacity:1;" offset="0.226562"/><stop style="stop-color:#feb05f;stop-opacity:1;" offset="0.230469"/><stop style="stop-color:#feb05f;stop-opacity:1;" offset="0.234375"/><stop style="stop-color:#feaf5f;stop-opacity:1;" offset="0.25"/><stop style="stop-color:#feaf5f;stop-opacity:1;" offset="0.257813"/><stop style="stop-color:#feae5f;stop-opacity:1;" offset="0.265625"/><stop style="stop-color:#fead5f;stop-opacity:1;" offset="0.273438"/><stop style="stop-color:#feac60;stop-opacity:1;" offset="0.28125"/><stop style="stop-color:#feab60;stop-opacity:1;" offset="0.296875"/><stop style="stop-color:#feab60;stop-opacity:1;" offset="0.3125"/><stop style="stop-color:#fea960;stop-opacity:1;" offset="0.316406"/><stop style="stop-color:#fea960;stop-opacity:1;" offset="0.320312"/><stop style="stop-color:#fea860;stop-opacity:1;" offset="0.328125"/><stop style="stop-color:#fea860;stop-opacity:1;" offset="0.34375"/><stop style="stop-color:#fea760;stop-opacity:1;" offset="0.351562"/><stop style="stop-color:#fea660;stop-opacity:1;" offset="0.359375"/><stop style="stop-color:#fea560;stop-opacity:1;" offset="0.367188"/><stop style="stop-color:#fea560;stop-opacity:1;" offset="0.375"/><stop style="stop-color:#fea461;stop-opacity:1;" offset="0.390625"/><stop style="stop-color:#fea361;stop-opacity:1;" offset="0.394531"/><stop style="stop-color:#fea261;stop-opacity:1;" offset="0.398438"/><stop style="stop-color:#fea261;stop-opacity:1;" offset="0.40625"/><stop style="stop-color:#fea161;stop-opacity:1;" offset="0.414063"/><stop style="stop-color:#fea161;stop-opacity:1;" offset="0.421875"/><stop style="stop-color:#fea061;stop-opacity:1;" offset="0.4375"/><stop style="stop-color:#fe9f61;stop-opacity:1;" offset="0.441406"/><stop style="stop-color:#fe9e61;stop-opacity:1;" offset="0.445313"/><stop style="stop-color:#fe9e61;stop-opacity:1;" offset="0.453125"/><stop style="stop-color:#fe9e61;stop-opacity:1;" offset="0.460938"/><stop style="stop-color:#fe9d61;stop-opacity:1;" offset="0.46875"/><stop style="stop-color:#fe9c61;stop-opacity:1;" offset="0.476563"/><stop style="stop-color:#ff9b61;stop-opacity:1;" offset="0.480469"/><stop style="stop-color:#ff9b62;stop-opacity:1;" offset="0.484375"/><stop style="stop-color:#ff9a62;stop-opacity:1;" offset="0.5"/><stop style="stop-color:#ff9a62;stop-opacity:1;" offset="0.507812"/><stop style="stop-color:#ff9962;stop-opacity:1;" offset="0.515625"/><stop style="stop-color:#ff9862;stop-opacity:1;" offset="0.523438"/><stop style="stop-color:#ff9762;stop-opacity:1;" offset="0.53125"/><stop style="stop-color:#ff9662;stop-opacity:1;" offset="0.539062"/><stop style="stop-color:#ff9662;stop-opacity:1;" offset="0.546875"/><stop style="stop-color:#ff9662;stop-opacity:1;" offset="0.554688"/><stop style="stop-color:#ff9562;stop-opacity:1;" offset="0.5625"/><stop style="stop-color:#ff9462;stop-opacity:1;" offset="0.570312"/><stop style="stop-color:#ff9362;stop-opacity:1;" offset="0.578125"/><stop style="stop-color:#ff9362;stop-opacity:1;" offset="0.585938"/><stop style="stop-color:#ff9263;stop-opacity:1;" offset="0.59375"/><stop style="stop-color:#ff9263;stop-opacity:1;" offset="0.601562"/><stop style="stop-color:#ff9163;stop-opacity:1;" offset="0.605469"/><stop style="stop-color:#ff9063;stop-opacity:1;" offset="0.609375"/><stop style="stop-color:#ff9063;stop-opacity:1;" offset="0.625"/><stop style="stop-color:#ff8f63;stop-opacity:1;" offset="0.640625"/><stop style="stop-color:#ff8e63;stop-opacity:1;" offset="0.644531"/><stop style="stop-color:#ff8d63;stop-opacity:1;" offset="0.648438"/><stop style="stop-color:#ff8d63;stop-opacity:1;" offset="0.65625"/><stop style="stop-color:#ff8c63;stop-opacity:1;" offset="0.664062"/><stop style="stop-color:#ff8c63;stop-opacity:1;" offset="0.671875"/><stop style="stop-color:#ff8b63;stop-opacity:1;" offset="0.679688"/><stop style="stop-color:#ff8b64;stop-opacity:1;" offset="0.6875"/><stop style="stop-color:#ff8a64;stop-opacity:1;" offset="0.691406"/><stop style="stop-color:#ff8964;stop-opacity:1;" offset="0.695312"/><stop style="stop-color:#ff8964;stop-opacity:1;" offset="0.703125"/><stop style="stop-color:#ff8964;stop-opacity:1;" offset="0.710938"/><stop style="stop-color:#ff8864;stop-opacity:1;" offset="0.71875"/><stop style="stop-color:#ff8764;stop-opacity:1;" offset="0.726562"/><stop style="stop-color:#ff8664;stop-opacity:1;" offset="0.730469"/><stop style="stop-color:#ff8664;stop-opacity:1;" offset="0.734375"/><stop style="stop-color:#ff8564;stop-opacity:1;" offset="0.75"/><stop style="stop-color:#ff8564;stop-opacity:1;" offset="0.757812"/><stop style="stop-color:#ff8464;stop-opacity:1;" offset="0.765625"/><stop style="stop-color:#ff8364;stop-opacity:1;" offset="0.773438"/><stop style="stop-color:#ff8265;stop-opacity:1;" offset="0.78125"/><stop style="stop-color:#ff8165;stop-opacity:1;" offset="0.796875"/><stop style="stop-color:#ff8165;stop-opacity:1;" offset="0.804688"/><stop style="stop-color:#ff8065;stop-opacity:1;" offset="0.8125"/><stop style="stop-color:#ff7f65;stop-opacity:1;" offset="0.820313"/><stop style="stop-color:#ff7e65;stop-opacity:1;" offset="0.828125"/><stop style="stop-color:#ff7e65;stop-opacity:1;" offset="0.84375"/><stop style="stop-color:#ff7e65;stop-opacity:1;" offset="0.875"/><stop style="stop-color:#ff7e65;stop-opacity:1;" offset="1"/></linearGradient></defs><g id="7c4444ecc5"><g clip-rule="nonzero" clip-path="url(#f8db5308ad)"><g clip-rule="nonzero" clip-path="url(#4ecf469fe5)"><g clip-rule="nonzero" clip-path="url(#4787b9efda)"><g clip-rule="nonzero" clip-path="url(#407b04b098)"><path style=" stroke:none;fill-rule:nonzero;fill:url(#a616f1a03d);" d="M 1414.824219 4.195312 L 81.113281 -88.882812 L 18.707031 805.804688 L 1352.417969 898.882812 Z M 1414.824219 4.195312 "/></g></g></g></g><path style=" stroke:none;fill-rule:nonzero;fill:#fbe59c;fill-opacity:1;" d="M 1251.140625 130.835938 C 1198.125 88.171875 1128.742188 81.714844 1076.128906 109.167969 C 1044.140625 45.335938 966.921875 0.273438 876.59375 0.273438 C 780.335938 0.273438 698.871094 51.417969 671.28125 121.960938 C 633.410156 84.492188 572.078125 85.234375 535.171875 124.46875 C 392.839844 70.527344 231.15625 154.734375 228.078125 282.285156 C 227.40625 282.449219 226.738281 282.605469 226.066406 282.769531 C 168.238281 283.339844 118.144531 311.097656 92.722656 351.761719 C 130.417969 329.433594 177.359375 318.320312 220.355469 329.789062 C 220.375 329.796875 224.542969 328.832031 230.027344 327.554688 C 262.234375 320.824219 369.332031 305.515625 425.753906 384.402344 C 425.753906 384.402344 539.582031 357.960938 586.875 428.492188 C 586.875 428.492188 576.039062 338.289062 438.863281 351.761719 C 438.863281 351.761719 399.925781 266.359375 277.832031 274.460938 C 331.878906 175.242188 441.148438 151.230469 539.820312 188.628906 C 576.769531 149.34375 638.101562 148.695312 675.929688 186.117188 C 703.515625 115.574219 784.980469 64.429688 881.246094 64.429688 C 971.566406 64.429688 1048.789062 109.492188 1080.773438 173.324219 C 1133.382812 145.875 1202.765625 152.332031 1255.792969 194.992188 C 1284.746094 218.296875 1304.085938 248.71875 1313.277344 280.839844 C 1321.117188 227.644531 1299.179688 169.488281 1251.140625 130.835938 "/><path style=" stroke:none;fill-rule:nonzero;fill:#fd654e;fill-opacity:1;" d="M 1303.316406 480.140625 C 1247.347656 580.898438 1131.867188 562.277344 1087.339844 532.285156 C 1083.042969 586.582031 1023.839844 635.949219 945.410156 646.816406 C 834.203125 618.890625 834.128906 556.933594 847.335938 517.46875 C 919.691406 540.617188 989.640625 482.085938 989.640625 482.085938 C 821.761719 525.101562 735.386719 377.148438 735.386719 377.148438 C 761.5 454.070312 795.910156 493.296875 830.953125 510.882812 C 720.851562 592.265625 629.863281 546.589844 622.675781 542.753906 C 740.375 603.804688 717.847656 647.027344 690.035156 668.96875 C 569.761719 685.226562 447.089844 646.585938 423.03125 585.003906 C 421.769531 584.035156 420.140625 583.191406 418.351562 582.382812 C 409.023438 546.265625 457.074219 534.238281 457.074219 534.238281 C 306.546875 557.765625 256.960938 388.839844 256.960938 388.839844 C 241.367188 424.816406 269.261719 475.027344 269.261719 475.027344 C 141.449219 539.613281 88.832031 463.660156 88.832031 463.660156 C 49.917969 548.148438 146.753906 629.902344 231.1875 612.097656 C 238.550781 659.515625 311.832031 701.6875 381.003906 698.90625 C 378.742188 762.15625 480.246094 809.726562 596.296875 809.726562 C 672.992188 809.726562 740.152344 789.425781 778.34375 758.949219 C 810.601562 780.519531 857.324219 790.820312 907.332031 783.886719 C 985.765625 773.015625 1044.96875 723.652344 1049.269531 669.351562 C 1093.796875 699.347656 1164.269531 696.660156 1225.011719 658.078125 C 1292.898438 614.960938 1331.558594 548.402344 1303.316406 480.140625 "/></g></svg>