<svg xmlns="http://www.w3.org/2000/svg" xmlns:xlink="http://www.w3.org/1999/xlink" width="1920" zoomAndPan="magnify" viewBox="0 0 1440 809.999993" height="1080" preserveAspectRatio="xMidYMid meet" version="1.2"><defs><clipPath id="bbabbb1481"><path d="M 0.453125 0 L 1440 0 L 1440 747 L 0.453125 747 Z M 0.453125 0 "/></clipPath><clipPath id="b01094d14d"><path d="M 1353.074219 286.394531 C 1361.320312 273.820312 1366.128906 259.191406 1366.128906 243.507812 C 1366.128906 197.027344 1324.582031 159.347656 1273.332031 159.347656 C 1262.46875 159.347656 1252.109375 161.121094 1242.421875 164.230469 C 1242.441406 103.636719 1205.976562 67.800781 1148.449219 50.347656 C 1110.121094 38.714844 1041.648438 51.902344 989.496094 76.445312 C 930.902344 26.863281 825.632812 0 706.207031 0 C 549.15625 0 400.8125 111.742188 362.792969 213.527344 C 350.429688 210.246094 337.257812 208.414062 323.542969 208.414062 C 261.738281 208.414062 210.425781 244.4375 199.679688 291.929688 C 194.542969 291.367188 189.273438 291.007812 183.765625 291.007812 C 105.300781 291.007812 0.453125 349.992188 0.453125 408.625 C 0.453125 453.855469 54.703125 501.066406 115.515625 520.339844 C 120.609375 573.886719 193.21875 616.386719 282.296875 616.386719 C 326.570312 616.386719 366.707031 605.820312 396.628906 588.695312 C 419.554688 630.421875 475.34375 659.925781 540.652344 659.925781 C 577.035156 659.925781 610.425781 650.714844 636.890625 635.394531 C 681.457031 702.144531 762.902344 747 856.292969 747 C 949.347656 747 1030.539062 702.460938 1075.210938 636.113281 C 1109.53125 651.238281 1148.402344 659.925781 1189.722656 659.925781 C 1327.675781 659.925781 1439.511719 564.65625 1439.511719 447.136719 C 1439.511719 382.878906 1405.933594 325.410156 1353.074219 286.394531 Z M 1353.074219 286.394531 "/></clipPath><clipPath id="411d20ad19"><path d="M 1353.074219 286.394531 C 1361.320312 273.820312 1366.128906 259.191406 1366.128906 243.507812 C 1366.128906 197.027344 1324.582031 159.347656 1273.332031 159.347656 C 1262.46875 159.347656 1252.109375 161.121094 1242.421875 164.230469 C 1242.441406 103.636719 1205.976562 67.800781 1148.449219 50.347656 C 1110.121094 38.714844 1041.648438 51.902344 989.496094 76.445312 C 930.902344 26.863281 825.632812 0 706.207031 0 C 549.15625 0 400.8125 111.742188 362.792969 213.527344 C 350.429688 210.246094 337.257812 208.414062 323.542969 208.414062 C 261.738281 208.414062 210.425781 244.4375 199.679688 291.929688 C 194.542969 291.367188 189.273438 291.007812 183.765625 291.007812 C 105.300781 291.007812 0.453125 349.992188 0.453125 408.625 C 0.453125 453.855469 54.703125 501.066406 115.515625 520.339844 C 120.609375 573.886719 193.21875 616.386719 282.296875 616.386719 C 326.570312 616.386719 366.707031 605.820312 396.628906 588.695312 C 419.554688 630.421875 475.34375 659.925781 540.652344 659.925781 C 577.035156 659.925781 610.425781 650.714844 636.890625 635.394531 C 681.457031 702.144531 762.902344 747 856.292969 747 C 949.347656 747 1030.539062 702.460938 1075.210938 636.113281 C 1109.53125 651.238281 1148.402344 659.925781 1189.722656 659.925781 C 1327.675781 659.925781 1439.511719 564.65625 1439.511719 447.136719 C 1439.511719 382.878906 1405.933594 325.410156 1353.074219 286.394531 "/></clipPath><clipPath id="5d4e6df705"><path d="M 1422.707031 -154.589844 L -79.796875 8.722656 L 17.257812 901.589844 L 1519.757812 738.277344 Z M 1422.707031 -154.589844 "/></clipPath><linearGradient x1="-0.363882" gradientTransform="matrix(55.474583,510.403046,-510.403046,55.474583,686.42108,113.364209)" y1="0" x2="1.385442" gradientUnits="userSpaceOnUse" y2="0" id="26f33238ba"><stop style="stop-color:#feb95e;stop-opacity:1;" offset="0"/><stop style="stop-color:#feb95e;stop-opacity:1;" offset="0.125"/><stop style="stop-color:#feb95e;stop-opacity:1;" offset="0.1875"/><stop style="stop-color:#feb95e;stop-opacity:1;" offset="0.21875"/><stop style="stop-color:#feb85e;stop-opacity:1;" offset="0.226562"/><stop style="stop-color:#feb75e;stop-opacity:1;" offset="0.234375"/><stop style="stop-color:#feb75e;stop-opacity:1;" offset="0.242188"/><stop style="stop-color:#feb65e;stop-opacity:1;" offset="0.25"/><stop style="stop-color:#feb55e;stop-opacity:1;" offset="0.257812"/><stop style="stop-color:#feb45f;stop-opacity:1;" offset="0.265625"/><stop style="stop-color:#feb35f;stop-opacity:1;" offset="0.273438"/><stop style="stop-color:#feb35f;stop-opacity:1;" offset="0.28125"/><stop style="stop-color:#feb25f;stop-opacity:1;" offset="0.289062"/><stop style="stop-color:#feb15f;stop-opacity:1;" offset="0.296875"/><stop style="stop-color:#feb05f;stop-opacity:1;" offset="0.304688"/><stop style="stop-color:#feaf5f;stop-opacity:1;" offset="0.3125"/><stop style="stop-color:#feaf5f;stop-opacity:1;" offset="0.320312"/><stop style="stop-color:#feae5f;stop-opacity:1;" offset="0.328125"/><stop style="stop-color:#fead5f;stop-opacity:1;" offset="0.335938"/><stop style="stop-color:#feac60;stop-opacity:1;" offset="0.34375"/><stop style="stop-color:#feab60;stop-opacity:1;" offset="0.351562"/><stop style="stop-color:#feab60;stop-opacity:1;" offset="0.359375"/><stop style="stop-color:#feaa60;stop-opacity:1;" offset="0.363281"/><stop style="stop-color:#fea960;stop-opacity:1;" offset="0.367188"/><stop style="stop-color:#fea960;stop-opacity:1;" offset="0.375"/><stop style="stop-color:#fea860;stop-opacity:1;" offset="0.382812"/><stop style="stop-color:#fea760;stop-opacity:1;" offset="0.390625"/><stop style="stop-color:#fea660;stop-opacity:1;" offset="0.398438"/><stop style="stop-color:#fea660;stop-opacity:1;" offset="0.40625"/><stop style="stop-color:#fea560;stop-opacity:1;" offset="0.414062"/><stop style="stop-color:#fea460;stop-opacity:1;" offset="0.421875"/><stop style="stop-color:#fea361;stop-opacity:1;" offset="0.429688"/><stop style="stop-color:#fea261;stop-opacity:1;" offset="0.4375"/><stop style="stop-color:#fea261;stop-opacity:1;" offset="0.445312"/><stop style="stop-color:#fea161;stop-opacity:1;" offset="0.453125"/><stop style="stop-color:#fea061;stop-opacity:1;" offset="0.460937"/><stop style="stop-color:#fe9f61;stop-opacity:1;" offset="0.46875"/><stop style="stop-color:#fe9e61;stop-opacity:1;" offset="0.476562"/><stop style="stop-color:#fe9d61;stop-opacity:1;" offset="0.484375"/><stop style="stop-color:#fe9d61;stop-opacity:1;" offset="0.492187"/><stop style="stop-color:#fe9c61;stop-opacity:1;" offset="0.5"/><stop style="stop-color:#ff9b62;stop-opacity:1;" offset="0.507812"/><stop style="stop-color:#ff9a62;stop-opacity:1;" offset="0.515625"/><stop style="stop-color:#ff9962;stop-opacity:1;" offset="0.519531"/><stop style="stop-color:#ff9962;stop-opacity:1;" offset="0.523438"/><stop style="stop-color:#ff9962;stop-opacity:1;" offset="0.53125"/><stop style="stop-color:#ff9862;stop-opacity:1;" offset="0.539062"/><stop style="stop-color:#ff9762;stop-opacity:1;" offset="0.546875"/><stop style="stop-color:#ff9662;stop-opacity:1;" offset="0.5625"/><stop style="stop-color:#ff9562;stop-opacity:1;" offset="0.566406"/><stop style="stop-color:#ff9462;stop-opacity:1;" offset="0.570312"/><stop style="stop-color:#ff9462;stop-opacity:1;" offset="0.578125"/><stop style="stop-color:#ff9362;stop-opacity:1;" offset="0.585938"/><stop style="stop-color:#ff9263;stop-opacity:1;" offset="0.59375"/><stop style="stop-color:#ff9263;stop-opacity:1;" offset="0.601563"/><stop style="stop-color:#ff9163;stop-opacity:1;" offset="0.605469"/><stop style="stop-color:#ff9063;stop-opacity:1;" offset="0.609375"/><stop style="stop-color:#ff9063;stop-opacity:1;" offset="0.617188"/><stop style="stop-color:#ff8f63;stop-opacity:1;" offset="0.625"/><stop style="stop-color:#ff8e63;stop-opacity:1;" offset="0.640625"/><stop style="stop-color:#ff8d63;stop-opacity:1;" offset="0.644531"/><stop style="stop-color:#ff8c63;stop-opacity:1;" offset="0.648438"/><stop style="stop-color:#ff8b63;stop-opacity:1;" offset="0.65625"/><stop style="stop-color:#ff8b63;stop-opacity:1;" offset="0.664063"/><stop style="stop-color:#ff8a64;stop-opacity:1;" offset="0.671875"/><stop style="stop-color:#ff8964;stop-opacity:1;" offset="0.6875"/><stop style="stop-color:#ff8864;stop-opacity:1;" offset="0.691406"/><stop style="stop-color:#ff8764;stop-opacity:1;" offset="0.695313"/><stop style="stop-color:#ff8764;stop-opacity:1;" offset="0.703125"/><stop style="stop-color:#ff8664;stop-opacity:1;" offset="0.710938"/><stop style="stop-color:#ff8564;stop-opacity:1;" offset="0.71875"/><stop style="stop-color:#ff8564;stop-opacity:1;" offset="0.726562"/><stop style="stop-color:#ff8464;stop-opacity:1;" offset="0.730469"/><stop style="stop-color:#ff8364;stop-opacity:1;" offset="0.734375"/><stop style="stop-color:#ff8364;stop-opacity:1;" offset="0.742188"/><stop style="stop-color:#ff8264;stop-opacity:1;" offset="0.75"/><stop style="stop-color:#ff8165;stop-opacity:1;" offset="0.765625"/><stop style="stop-color:#ff8065;stop-opacity:1;" offset="0.769531"/><stop style="stop-color:#ff7f65;stop-opacity:1;" offset="0.773438"/><stop style="stop-color:#ff7e65;stop-opacity:1;" offset="0.78125"/><stop style="stop-color:#ff7e65;stop-opacity:1;" offset="0.8125"/><stop style="stop-color:#ff7e65;stop-opacity:1;" offset="0.875"/><stop style="stop-color:#ff7e65;stop-opacity:1;" offset="1"/></linearGradient><clipPath id="c13bf750ed"><path d="M 0.453125 359.492188 L 1439.511719 359.492188 L 1439.511719 747 L 0.453125 747 Z M 0.453125 359.492188 "/></clipPath></defs><g id="a95ae02c1f"><g clip-rule="nonzero" clip-path="url(#bbabbb1481)"><g clip-rule="nonzero" clip-path="url(#b01094d14d)"><g clip-rule="nonzero" clip-path="url(#411d20ad19)"><g clip-rule="nonzero" clip-path="url(#5d4e6df705)"><path style=" stroke:none;fill-rule:nonzero;fill:url(#26f33238ba);" d="M 1422.710938 -154.582031 L -79.789062 8.722656 L 17.253906 901.582031 L 1519.753906 738.277344 Z M 1422.710938 -154.582031 "/></g></g></g></g><g clip-rule="nonzero" clip-path="url(#c13bf750ed)"><path style=" stroke:none;fill-rule:nonzero;fill:#fd654e;fill-opacity:1;" d="M 1425.804688 378.097656 C 1392.121094 461.6875 1299.269531 521.855469 1189.714844 521.855469 C 1104.742188 521.855469 1041.183594 481.941406 993.644531 412.347656 C 993.644531 412.347656 975.679688 441.621094 1019.089844 500.152344 C 1019.789062 553.285156 937.601562 632.628906 796.894531 602.585938 C 671.113281 539.175781 756.546875 495.269531 756.546875 495.269531 C 816.070312 476.539062 856.296875 446.496094 856.296875 446.496094 C 611.0625 493.648438 424.875 359.917969 424.875 359.917969 C 444.027344 389.515625 464.058594 413.476562 484.515625 433.179688 C 539.300781 501.179688 510.820312 516.933594 506.617188 518.785156 C 456.492188 510.539062 415.429688 484.847656 396.628906 450.625 C 366.707031 467.753906 326.570312 478.316406 282.296875 478.316406 C 212.703125 478.316406 28.4375 495.269531 1.074219 402.910156 C 0.855469 404.8125 0.453125 406.71875 0.453125 408.621094 C 0.453125 453.855469 54.707031 501.066406 115.519531 520.335938 C 123.742188 606.835938 293.816406 647.546875 396.628906 588.695312 C 435.179688 658.855469 555.386719 682.5625 636.894531 635.394531 C 681.457031 702.144531 762.90625 746.996094 856.296875 746.996094 C 949.347656 746.996094 1030.539062 702.457031 1075.210938 636.113281 C 1109.53125 651.234375 1148.402344 659.925781 1189.714844 659.925781 C 1327.675781 659.925781 1439.511719 564.65625 1439.511719 447.136719 C 1439.511719 422.933594 1434.542969 399.773438 1425.804688 378.097656 "/></g><path style=" stroke:none;fill-rule:nonzero;fill:#fbe59c;fill-opacity:1;" d="M 217.386719 337.355469 C 228.132812 289.867188 261.738281 290.074219 323.542969 290.074219 C 337.316406 290.074219 350.539062 291.925781 362.949219 295.234375 C 400.9375 193.433594 549.121094 81.660156 706.207031 81.660156 C 825.644531 81.660156 946.257812 97.742188 977.957031 234.34375 C 1013.773438 66.359375 1242.910156 142.277344 1242.414062 246.152344 C 1287.972656 231.472656 1332.980469 250.238281 1354.019531 284.335938 C 1395.71875 216.738281 1323.40625 138.394531 1242.414062 164.492188 C 1242.910156 60.152344 1127.09375 11.699219 989.515625 76.460938 C 930.921875 26.867188 825.644531 0 706.207031 0 C 549.121094 0 400.9375 111.773438 362.949219 213.570312 C 288.859375 193.839844 213.148438 232.421875 199.679688 291.929688 C 155.585938 287.109375 104.105469 303.433594 66.058594 325.914062 C 139.867188 318.730469 214.144531 337.003906 217.386719 337.355469 "/></g></svg>