<svg xmlns="http://www.w3.org/2000/svg" xmlns:xlink="http://www.w3.org/1999/xlink" width="1920" zoomAndPan="magnify" viewBox="0 0 1440 809.999993" height="1080" preserveAspectRatio="xMidYMid meet" version="1.2"><defs><clipPath id="0ec4b42f89"><path d="M 90.441406 0.273438 L 1374.183594 0.273438 L 1374.183594 809.726562 L 90.441406 809.726562 Z M 90.441406 0.273438 "/></clipPath><clipPath id="d52ac5cec8"><path d="M 1374.183594 388.839844 C 1374.183594 351.394531 1354.144531 318.710938 1324.265625 300.679688 C 1341.664062 242.617188 1320.796875 174.371094 1266.683594 130.835938 C 1213.667969 88.171875 1144.285156 81.714844 1091.675781 109.167969 C 1059.6875 45.335938 982.464844 0.273438 892.140625 0.273438 C 795.882812 0.273438 714.414062 51.417969 686.828125 121.957031 C 669.640625 104.957031 646.027344 94.4375 619.949219 94.4375 C 592.625 94.4375 568.066406 106.023438 550.71875 124.46875 C 523.113281 114.011719 492.484375 108.011719 460.085938 108.011719 C 341.710938 108.011719 245.667969 185.9375 243.589844 282.671875 C 158.921875 282.664062 90.441406 340.824219 90.441406 412.574219 C 90.441406 431.449219 95.285156 449.332031 103.804688 465.515625 C 86.972656 518.105469 114.535156 577.707031 169.683594 603.121094 C 195.03125 614.800781 222.074219 617.296875 246.734375 612.097656 C 251.777344 644.601562 289.628906 677.945312 341.699219 692.289062 C 360.738281 697.53125 379.4375 699.59375 396.550781 698.90625 C 396.527344 699.574219 396.351562 700.226562 396.351562 700.898438 C 396.351562 761 492.828125 809.726562 611.839844 809.726562 C 688.539062 809.726562 755.699219 789.429688 793.890625 758.949219 C 826.148438 780.519531 872.871094 790.820312 922.878906 783.886719 C 1001.308594 773.015625 1060.511719 723.652344 1064.816406 669.351562 C 1109.339844 699.347656 1179.8125 696.65625 1240.558594 658.078125 C 1310.640625 613.570312 1343.019531 537.027344 1318.78125 480.144531 C 1351.6875 462.949219 1374.183594 428.546875 1374.183594 388.839844 Z M 1374.183594 388.839844 "/></clipPath><clipPath id="c3459d93ea"><path d="M 1374.183594 388.839844 C 1374.183594 351.394531 1354.144531 318.710938 1324.265625 300.679688 C 1341.664062 242.617188 1320.796875 174.371094 1266.683594 130.835938 C 1213.667969 88.171875 1144.285156 81.714844 1091.675781 109.167969 C 1059.6875 45.335938 982.464844 0.273438 892.140625 0.273438 C 795.882812 0.273438 714.414062 51.417969 686.828125 121.957031 C 669.640625 104.957031 646.027344 94.4375 619.949219 94.4375 C 592.625 94.4375 568.066406 106.023438 550.71875 124.46875 C 523.113281 114.011719 492.484375 108.011719 460.085938 108.011719 C 341.710938 108.011719 245.667969 185.9375 243.589844 282.671875 C 158.921875 282.664062 90.441406 340.824219 90.441406 412.574219 C 90.441406 431.449219 95.285156 449.332031 103.804688 465.515625 C 86.972656 518.105469 114.535156 577.707031 169.683594 603.121094 C 195.03125 614.800781 222.074219 617.296875 246.734375 612.097656 C 251.777344 644.601562 289.628906 677.945312 341.699219 692.289062 C 360.738281 697.53125 379.4375 699.59375 396.550781 698.90625 C 396.527344 699.574219 396.351562 700.226562 396.351562 700.898438 C 396.351562 761 492.828125 809.726562 611.839844 809.726562 C 688.539062 809.726562 755.699219 789.429688 793.890625 758.949219 C 826.148438 780.519531 872.871094 790.820312 922.878906 783.886719 C 1001.308594 773.015625 1060.511719 723.652344 1064.816406 669.351562 C 1109.339844 699.347656 1179.8125 696.65625 1240.558594 658.078125 C 1310.640625 613.570312 1343.019531 537.027344 1318.78125 480.144531 C 1351.6875 462.949219 1374.183594 428.546875 1374.183594 388.839844 "/></clipPath><clipPath id="247ae3749a"><path d="M 1430.371094 4.195312 L 96.660156 -88.878906 L 34.253906 805.804688 L 1367.964844 898.878906 Z M 1430.371094 4.195312 "/></clipPath><linearGradient x1="-0.17815" gradientTransform="matrix(-43.702705,626.554805,-626.392205,-43.714054,755.42218,69.255629)" y1="0" x2="1.249798" gradientUnits="userSpaceOnUse" y2="0" id="b44dd483bc"><stop style="stop-color:#feb95e;stop-opacity:1;" offset="0"/><stop style="stop-color:#feb95e;stop-opacity:1;" offset="0.125"/><stop style="stop-color:#feb95e;stop-opacity:1;" offset="0.140625"/><stop style="stop-color:#feb85e;stop-opacity:1;" offset="0.144531"/><stop style="stop-color:#feb75e;stop-opacity:1;" offset="0.148438"/><stop style="stop-color:#feb75e;stop-opacity:1;" offset="0.15625"/><stop style="stop-color:#feb65e;stop-opacity:1;" offset="0.164062"/><stop style="stop-color:#feb65e;stop-opacity:1;" offset="0.171875"/><stop style="stop-color:#feb55e;stop-opacity:1;" offset="0.1875"/><stop style="stop-color:#feb45f;stop-opacity:1;" offset="0.191406"/><stop style="stop-color:#feb35f;stop-opacity:1;" offset="0.195313"/><stop style="stop-color:#feb35f;stop-opacity:1;" offset="0.203125"/><stop style="stop-color:#feb35f;stop-opacity:1;" offset="0.210937"/><stop style="stop-color:#feb25f;stop-opacity:1;" offset="0.21875"/><stop style="stop-color:#feb15f;stop-opacity:1;" offset="0.226562"/><stop style="stop-color:#feb05f;stop-opacity:1;" offset="0.230469"/><stop style="stop-color:#feb05f;stop-opacity:1;" offset="0.234375"/><stop style="stop-color:#feaf5f;stop-opacity:1;" offset="0.25"/><stop style="stop-color:#feaf5f;stop-opacity:1;" offset="0.257812"/><stop style="stop-color:#feae5f;stop-opacity:1;" offset="0.265625"/><stop style="stop-color:#fead5f;stop-opacity:1;" offset="0.273438"/><stop style="stop-color:#feac60;stop-opacity:1;" offset="0.28125"/><stop style="stop-color:#feab60;stop-opacity:1;" offset="0.296875"/><stop style="stop-color:#feab60;stop-opacity:1;" offset="0.3125"/><stop style="stop-color:#fea960;stop-opacity:1;" offset="0.316406"/><stop style="stop-color:#fea960;stop-opacity:1;" offset="0.320312"/><stop style="stop-color:#fea860;stop-opacity:1;" offset="0.328125"/><stop style="stop-color:#fea860;stop-opacity:1;" offset="0.34375"/><stop style="stop-color:#fea760;stop-opacity:1;" offset="0.351562"/><stop style="stop-color:#fea660;stop-opacity:1;" offset="0.359375"/><stop style="stop-color:#fea560;stop-opacity:1;" offset="0.367188"/><stop style="stop-color:#fea560;stop-opacity:1;" offset="0.375"/><stop style="stop-color:#fea461;stop-opacity:1;" offset="0.390625"/><stop style="stop-color:#fea361;stop-opacity:1;" offset="0.394531"/><stop style="stop-color:#fea261;stop-opacity:1;" offset="0.398438"/><stop style="stop-color:#fea261;stop-opacity:1;" offset="0.40625"/><stop style="stop-color:#fea161;stop-opacity:1;" offset="0.414063"/><stop style="stop-color:#fea161;stop-opacity:1;" offset="0.421875"/><stop style="stop-color:#fea061;stop-opacity:1;" offset="0.4375"/><stop style="stop-color:#fe9f61;stop-opacity:1;" offset="0.441406"/><stop style="stop-color:#fe9e61;stop-opacity:1;" offset="0.445312"/><stop style="stop-color:#fe9e61;stop-opacity:1;" offset="0.453125"/><stop style="stop-color:#fe9e61;stop-opacity:1;" offset="0.460938"/><stop style="stop-color:#fe9d61;stop-opacity:1;" offset="0.46875"/><stop style="stop-color:#fe9c61;stop-opacity:1;" offset="0.476563"/><stop style="stop-color:#ff9b61;stop-opacity:1;" offset="0.480469"/><stop style="stop-color:#ff9b62;stop-opacity:1;" offset="0.484375"/><stop style="stop-color:#ff9a62;stop-opacity:1;" offset="0.5"/><stop style="stop-color:#ff9a62;stop-opacity:1;" offset="0.507812"/><stop style="stop-color:#ff9962;stop-opacity:1;" offset="0.515625"/><stop style="stop-color:#ff9862;stop-opacity:1;" offset="0.523438"/><stop style="stop-color:#ff9762;stop-opacity:1;" offset="0.53125"/><stop style="stop-color:#ff9662;stop-opacity:1;" offset="0.539062"/><stop style="stop-color:#ff9662;stop-opacity:1;" offset="0.546875"/><stop style="stop-color:#ff9662;stop-opacity:1;" offset="0.554688"/><stop style="stop-color:#ff9562;stop-opacity:1;" offset="0.5625"/><stop style="stop-color:#ff9462;stop-opacity:1;" offset="0.570313"/><stop style="stop-color:#ff9362;stop-opacity:1;" offset="0.578125"/><stop style="stop-color:#ff9362;stop-opacity:1;" offset="0.585938"/><stop style="stop-color:#ff9263;stop-opacity:1;" offset="0.59375"/><stop style="stop-color:#ff9263;stop-opacity:1;" offset="0.601563"/><stop style="stop-color:#ff9163;stop-opacity:1;" offset="0.605469"/><stop style="stop-color:#ff9063;stop-opacity:1;" offset="0.609375"/><stop style="stop-color:#ff9063;stop-opacity:1;" offset="0.625"/><stop style="stop-color:#ff8f63;stop-opacity:1;" offset="0.640625"/><stop style="stop-color:#ff8e63;stop-opacity:1;" offset="0.644531"/><stop style="stop-color:#ff8d63;stop-opacity:1;" offset="0.648437"/><stop style="stop-color:#ff8d63;stop-opacity:1;" offset="0.65625"/><stop style="stop-color:#ff8c63;stop-opacity:1;" offset="0.664062"/><stop style="stop-color:#ff8c63;stop-opacity:1;" offset="0.671875"/><stop style="stop-color:#ff8b63;stop-opacity:1;" offset="0.679688"/><stop style="stop-color:#ff8b64;stop-opacity:1;" offset="0.6875"/><stop style="stop-color:#ff8a64;stop-opacity:1;" offset="0.691406"/><stop style="stop-color:#ff8964;stop-opacity:1;" offset="0.695312"/><stop style="stop-color:#ff8964;stop-opacity:1;" offset="0.703125"/><stop style="stop-color:#ff8964;stop-opacity:1;" offset="0.710938"/><stop style="stop-color:#ff8864;stop-opacity:1;" offset="0.71875"/><stop style="stop-color:#ff8764;stop-opacity:1;" offset="0.726562"/><stop style="stop-color:#ff8664;stop-opacity:1;" offset="0.730469"/><stop style="stop-color:#ff8664;stop-opacity:1;" offset="0.734375"/><stop style="stop-color:#ff8564;stop-opacity:1;" offset="0.75"/><stop style="stop-color:#ff8564;stop-opacity:1;" offset="0.757813"/><stop style="stop-color:#ff8464;stop-opacity:1;" offset="0.765625"/><stop style="stop-color:#ff8364;stop-opacity:1;" offset="0.773438"/><stop style="stop-color:#ff8265;stop-opacity:1;" offset="0.78125"/><stop style="stop-color:#ff8165;stop-opacity:1;" offset="0.796875"/><stop style="stop-color:#ff8165;stop-opacity:1;" offset="0.804688"/><stop style="stop-color:#ff8065;stop-opacity:1;" offset="0.8125"/><stop style="stop-color:#ff7f65;stop-opacity:1;" offset="0.820312"/><stop style="stop-color:#ff7e65;stop-opacity:1;" offset="0.828125"/><stop style="stop-color:#ff7e65;stop-opacity:1;" offset="0.84375"/><stop style="stop-color:#ff7e65;stop-opacity:1;" offset="0.875"/><stop style="stop-color:#ff7e65;stop-opacity:1;" offset="1"/></linearGradient></defs><g id="c4446e0351"><g clip-rule="nonzero" clip-path="url(#0ec4b42f89)"><g clip-rule="nonzero" clip-path="url(#d52ac5cec8)"><g clip-rule="nonzero" clip-path="url(#c3459d93ea)"><g clip-rule="nonzero" clip-path="url(#247ae3749a)"><path style=" stroke:none;fill-rule:nonzero;fill:url(#b44dd483bc);" d="M 1430.367188 4.195312 L 96.660156 -88.882812 L 34.253906 805.804688 L 1367.964844 898.882812 Z M 1430.367188 4.195312 "/></g></g></g></g><path style=" stroke:none;fill-rule:nonzero;fill:#fbe59c;fill-opacity:1;" d="M 1266.683594 130.835938 C 1213.667969 88.171875 1144.285156 81.714844 1091.675781 109.167969 C 1059.6875 45.335938 982.464844 0.273438 892.140625 0.273438 C 795.882812 0.273438 714.414062 51.417969 686.828125 121.960938 C 648.957031 84.492188 587.625 85.234375 550.71875 124.46875 C 408.382812 70.527344 246.703125 154.734375 243.625 282.285156 C 242.953125 282.449219 242.285156 282.605469 241.613281 282.769531 C 183.785156 283.339844 133.691406 311.097656 108.269531 351.761719 C 145.964844 329.433594 192.902344 318.320312 235.902344 329.789062 C 235.921875 329.796875 240.085938 328.832031 245.570312 327.554688 C 277.777344 320.824219 384.878906 305.515625 441.300781 384.402344 C 441.300781 384.402344 555.128906 357.960938 602.421875 428.492188 C 602.421875 428.492188 591.585938 338.289062 454.410156 351.761719 C 454.410156 351.761719 415.472656 266.359375 293.378906 274.460938 C 347.425781 175.242188 456.695312 151.230469 555.363281 188.628906 C 592.3125 149.34375 653.648438 148.695312 691.472656 186.117188 C 719.0625 115.574219 800.527344 64.429688 896.792969 64.429688 C 987.113281 64.429688 1064.335938 109.492188 1096.320312 173.324219 C 1148.929688 145.875 1218.3125 152.332031 1271.339844 194.992188 C 1300.292969 218.296875 1319.628906 248.71875 1328.824219 280.839844 C 1336.664062 227.644531 1314.726562 169.488281 1266.683594 130.835938 "/><path style=" stroke:none;fill-rule:nonzero;fill:#fd654e;fill-opacity:1;" d="M 1318.863281 480.140625 C 1262.890625 580.898438 1147.414062 562.277344 1102.882812 532.285156 C 1098.589844 586.582031 1039.386719 635.949219 960.953125 646.816406 C 849.75 618.890625 849.675781 556.933594 862.878906 517.46875 C 935.238281 540.617188 1005.1875 482.085938 1005.1875 482.085938 C 837.308594 525.101562 750.933594 377.148438 750.933594 377.148438 C 777.042969 454.070312 811.457031 493.296875 846.5 510.882812 C 736.398438 592.265625 645.410156 546.589844 638.222656 542.753906 C 755.921875 603.804688 733.394531 647.027344 705.578125 668.96875 C 585.308594 685.226562 462.636719 646.585938 438.578125 585.003906 C 437.316406 584.035156 435.683594 583.191406 433.898438 582.382812 C 424.570312 546.265625 472.617188 534.238281 472.617188 534.238281 C 322.09375 557.765625 272.507812 388.839844 272.507812 388.839844 C 256.910156 424.816406 284.808594 475.027344 284.808594 475.027344 C 156.992188 539.613281 104.375 463.660156 104.375 463.660156 C 65.464844 548.148438 162.300781 629.902344 246.734375 612.097656 C 254.09375 659.515625 327.378906 701.6875 396.550781 698.90625 C 394.285156 762.15625 495.792969 809.726562 611.839844 809.726562 C 688.539062 809.726562 755.699219 789.425781 793.890625 758.949219 C 826.148438 780.519531 872.871094 790.820312 922.878906 783.886719 C 1001.308594 773.015625 1060.511719 723.652344 1064.816406 669.351562 C 1109.339844 699.347656 1179.8125 696.660156 1240.558594 658.078125 C 1308.441406 614.960938 1347.101562 548.402344 1318.863281 480.140625 "/></g></svg>