<svg xmlns="http://www.w3.org/2000/svg" xmlns:xlink="http://www.w3.org/1999/xlink" width="1920" zoomAndPan="magnify" viewBox="0 0 1440 809.999993" height="1080" preserveAspectRatio="xMidYMid meet" version="1.2"><defs><clipPath id="2413322c6b"><path d="M 134.855469 0.226562 L 1330.070312 0.226562 L 1330.070312 788.492188 L 134.855469 788.492188 Z M 134.855469 0.226562 "/></clipPath><clipPath id="4dd67ed791"><path d="M 1259.328125 337.863281 C 1259.730469 336.152344 1260.234375 334.492188 1260.578125 332.75 C 1274.175781 263.820312 1235.132812 198.066406 1173.355469 185.871094 C 1163.699219 183.96875 1154.074219 183.636719 1144.625 184.445312 C 1143.886719 101.304688 1073.832031 24.335938 974.851562 4.800781 C 888.09375 -12.316406 805.195312 19.882812 764.265625 79.664062 C 751.183594 66.996094 733.886719 57.554688 713.867188 53.605469 C 680.949219 47.109375 649.15625 56.988281 628.699219 77.027344 C 604.023438 58.277344 574.746094 44.5 542.023438 38.042969 C 439.914062 17.894531 341.28125 74.710938 309.429688 167.210938 C 295.34375 165.019531 280.824219 164.742188 266.140625 166.941406 C 180.730469 179.730469 122.894531 266.28125 136.964844 360.261719 C 145.582031 417.820312 179.230469 464.710938 223.59375 489.546875 C 223.988281 595.703125 307.253906 692.625 425.980469 716.054688 C 497.957031 730.261719 568.042969 714.367188 621.273438 677.960938 C 640.015625 702.25 672.289062 721.851562 711.367188 729.558594 C 757.390625 738.644531 800.9375 728.90625 827.371094 706.984375 C 860.121094 780.574219 971.304688 809.792969 1082.445312 771.875 C 1180.03125 738.582031 1245.949219 664.285156 1247.75 593.679688 C 1285.015625 578.753906 1316.5625 538.714844 1326.75 487.089844 C 1340.464844 417.613281 1310.484375 352.761719 1259.328125 337.863281 Z M 1259.328125 337.863281 "/></clipPath><clipPath id="2d741f46cd"><path d="M 1259.328125 337.863281 C 1259.730469 336.152344 1260.234375 334.492188 1260.578125 332.75 C 1274.175781 263.820312 1235.132812 198.066406 1173.355469 185.871094 C 1163.699219 183.96875 1154.074219 183.636719 1144.625 184.445312 C 1143.886719 101.304688 1073.832031 24.335938 974.851562 4.800781 C 888.09375 -12.316406 805.195312 19.882812 764.265625 79.664062 C 751.183594 66.996094 733.886719 57.554688 713.867188 53.605469 C 680.949219 47.109375 649.15625 56.988281 628.699219 77.027344 C 604.023438 58.277344 574.746094 44.5 542.023438 38.042969 C 439.914062 17.894531 341.28125 74.710938 309.429688 167.210938 C 295.34375 165.019531 280.824219 164.742188 266.140625 166.941406 C 180.730469 179.730469 122.894531 266.28125 136.964844 360.261719 C 145.582031 417.820312 179.230469 464.710938 223.59375 489.546875 C 223.988281 595.703125 307.253906 692.625 425.980469 716.054688 C 497.957031 730.261719 568.042969 714.367188 621.273438 677.960938 C 640.015625 702.25 672.289062 721.851562 711.367188 729.558594 C 757.390625 738.644531 800.9375 728.90625 827.371094 706.984375 C 860.121094 780.574219 971.304688 809.792969 1082.445312 771.875 C 1180.03125 738.582031 1245.949219 664.285156 1247.75 593.679688 C 1285.015625 578.753906 1316.5625 538.714844 1326.75 487.089844 C 1340.464844 417.613281 1310.484375 352.761719 1259.328125 337.863281 "/></clipPath><clipPath id="d5ba7089bc"><path d="M 1502.769531 40.082031 L 195.289062 -261.664062 L -37.84375 748.636719 L 1269.636719 1050.378906 Z M 1502.769531 40.082031 "/></clipPath><linearGradient x1="-0.330533" gradientTransform="matrix(-131.407897,569.455075,-569.416745,-131.416732,805.095339,77.314349)" y1="0" x2="1.443626" gradientUnits="userSpaceOnUse" y2="0" id="207dd254ec"><stop style="stop-color:#feb95e;stop-opacity:1;" offset="0"/><stop style="stop-color:#feb95e;stop-opacity:1;" offset="0.125"/><stop style="stop-color:#feb95e;stop-opacity:1;" offset="0.1875"/><stop style="stop-color:#feb95e;stop-opacity:1;" offset="0.195312"/><stop style="stop-color:#feb85e;stop-opacity:1;" offset="0.203125"/><stop style="stop-color:#feb75e;stop-opacity:1;" offset="0.210938"/><stop style="stop-color:#feb65e;stop-opacity:1;" offset="0.21875"/><stop style="stop-color:#feb65e;stop-opacity:1;" offset="0.226562"/><stop style="stop-color:#feb55e;stop-opacity:1;" offset="0.230469"/><stop style="stop-color:#feb45f;stop-opacity:1;" offset="0.234375"/><stop style="stop-color:#feb45f;stop-opacity:1;" offset="0.242188"/><stop style="stop-color:#feb35f;stop-opacity:1;" offset="0.25"/><stop style="stop-color:#feb25f;stop-opacity:1;" offset="0.257813"/><stop style="stop-color:#feb25f;stop-opacity:1;" offset="0.265625"/><stop style="stop-color:#feb05f;stop-opacity:1;" offset="0.269531"/><stop style="stop-color:#feb05f;stop-opacity:1;" offset="0.273438"/><stop style="stop-color:#feaf5f;stop-opacity:1;" offset="0.28125"/><stop style="stop-color:#feaf5f;stop-opacity:1;" offset="0.296875"/><stop style="stop-color:#feae5f;stop-opacity:1;" offset="0.304688"/><stop style="stop-color:#fead5f;stop-opacity:1;" offset="0.3125"/><stop style="stop-color:#feac60;stop-opacity:1;" offset="0.316406"/><stop style="stop-color:#feab60;stop-opacity:1;" offset="0.320313"/><stop style="stop-color:#feab60;stop-opacity:1;" offset="0.328125"/><stop style="stop-color:#feaa60;stop-opacity:1;" offset="0.335938"/><stop style="stop-color:#feaa60;stop-opacity:1;" offset="0.34375"/><stop style="stop-color:#fea960;stop-opacity:1;" offset="0.351563"/><stop style="stop-color:#fea760;stop-opacity:1;" offset="0.355469"/><stop style="stop-color:#fea760;stop-opacity:1;" offset="0.359375"/><stop style="stop-color:#fea660;stop-opacity:1;" offset="0.375"/><stop style="stop-color:#fea660;stop-opacity:1;" offset="0.382812"/><stop style="stop-color:#fea560;stop-opacity:1;" offset="0.390625"/><stop style="stop-color:#fea361;stop-opacity:1;" offset="0.394531"/><stop style="stop-color:#fea361;stop-opacity:1;" offset="0.398438"/><stop style="stop-color:#fea261;stop-opacity:1;" offset="0.40625"/><stop style="stop-color:#fea261;stop-opacity:1;" offset="0.421875"/><stop style="stop-color:#fea161;stop-opacity:1;" offset="0.429688"/><stop style="stop-color:#fea061;stop-opacity:1;" offset="0.4375"/><stop style="stop-color:#fe9e61;stop-opacity:1;" offset="0.441406"/><stop style="stop-color:#fe9e61;stop-opacity:1;" offset="0.445313"/><stop style="stop-color:#fe9d61;stop-opacity:1;" offset="0.453125"/><stop style="stop-color:#fe9d61;stop-opacity:1;" offset="0.46875"/><stop style="stop-color:#fe9c61;stop-opacity:1;" offset="0.476562"/><stop style="stop-color:#ff9a62;stop-opacity:1;" offset="0.480469"/><stop style="stop-color:#ff9a62;stop-opacity:1;" offset="0.484375"/><stop style="stop-color:#ff9962;stop-opacity:1;" offset="0.5"/><stop style="stop-color:#ff9962;stop-opacity:1;" offset="0.507812"/><stop style="stop-color:#ff9862;stop-opacity:1;" offset="0.515625"/><stop style="stop-color:#ff9662;stop-opacity:1;" offset="0.519531"/><stop style="stop-color:#ff9662;stop-opacity:1;" offset="0.523438"/><stop style="stop-color:#ff9562;stop-opacity:1;" offset="0.53125"/><stop style="stop-color:#ff9462;stop-opacity:1;" offset="0.546875"/><stop style="stop-color:#ff9462;stop-opacity:1;" offset="0.554688"/><stop style="stop-color:#ff9363;stop-opacity:1;" offset="0.5625"/><stop style="stop-color:#ff9163;stop-opacity:1;" offset="0.566406"/><stop style="stop-color:#ff9163;stop-opacity:1;" offset="0.570313"/><stop style="stop-color:#ff9063;stop-opacity:1;" offset="0.578125"/><stop style="stop-color:#ff9063;stop-opacity:1;" offset="0.59375"/><stop style="stop-color:#ff8f63;stop-opacity:1;" offset="0.601563"/><stop style="stop-color:#ff8e63;stop-opacity:1;" offset="0.605469"/><stop style="stop-color:#ff8d63;stop-opacity:1;" offset="0.609375"/><stop style="stop-color:#ff8c63;stop-opacity:1;" offset="0.617188"/><stop style="stop-color:#ff8b63;stop-opacity:1;" offset="0.625"/><stop style="stop-color:#ff8b63;stop-opacity:1;" offset="0.640625"/><stop style="stop-color:#ff8a64;stop-opacity:1;" offset="0.644531"/><stop style="stop-color:#ff8964;stop-opacity:1;" offset="0.648438"/><stop style="stop-color:#ff8864;stop-opacity:1;" offset="0.65625"/><stop style="stop-color:#ff8764;stop-opacity:1;" offset="0.671875"/><stop style="stop-color:#ff8764;stop-opacity:1;" offset="0.679688"/><stop style="stop-color:#ff8664;stop-opacity:1;" offset="0.6875"/><stop style="stop-color:#ff8564;stop-opacity:1;" offset="0.691406"/><stop style="stop-color:#ff8464;stop-opacity:1;" offset="0.695312"/><stop style="stop-color:#ff8364;stop-opacity:1;" offset="0.703125"/><stop style="stop-color:#ff8264;stop-opacity:1;" offset="0.71875"/><stop style="stop-color:#ff8265;stop-opacity:1;" offset="0.726562"/><stop style="stop-color:#ff8165;stop-opacity:1;" offset="0.730469"/><stop style="stop-color:#ff8065;stop-opacity:1;" offset="0.734375"/><stop style="stop-color:#ff7f65;stop-opacity:1;" offset="0.742188"/><stop style="stop-color:#ff7e65;stop-opacity:1;" offset="0.75"/><stop style="stop-color:#ff7e65;stop-opacity:1;" offset="1"/></linearGradient><clipPath id="3fa3a46800"><path d="M 183.132812 0.226562 L 1330.070312 0.226562 L 1330.070312 524.421875 L 183.132812 524.421875 Z M 183.132812 0.226562 "/></clipPath></defs><g id="967f1d115c"><g clip-rule="nonzero" clip-path="url(#2413322c6b)"><g clip-rule="nonzero" clip-path="url(#4dd67ed791)"><g clip-rule="nonzero" clip-path="url(#2d741f46cd)"><g clip-rule="nonzero" clip-path="url(#d5ba7089bc)"><path style=" stroke:none;fill-rule:nonzero;fill:url(#207dd254ec);" d="M 1502.773438 40.085938 L 195.292969 -261.671875 L -37.847656 748.632812 L 1269.636719 1050.386719 Z M 1502.773438 40.085938 "/></g></g></g></g><path style=" stroke:none;fill-rule:nonzero;fill:#fd654e;fill-opacity:1;" d="M 1247.8125 591.21875 C 1247.8125 591.21875 1230.863281 635.199219 1167.335938 659.636719 C 1088.550781 689.9375 997.214844 664.941406 952.75 617.195312 C 1052.414062 610.34375 1100.992188 552.632812 1100.992188 552.632812 C 1020.882812 608.378906 927.957031 574.140625 927.957031 574.140625 C 901.519531 596.058594 813.710938 589.570312 767.691406 580.488281 C 738.023438 574.636719 712.3125 561.914062 693.4375 545.507812 C 792.011719 543.894531 868.125 462.027344 868.125 462.027344 C 677.59375 528.886719 525.09375 455.507812 525.09375 455.507812 C 542.273438 476.273438 559.601562 492.558594 576.867188 505.449219 C 576.550781 505.402344 642.8125 547.886719 577.742188 568.324219 C 547.222656 573.394531 515.007812 573.4375 482.304688 566.984375 C 363.574219 543.554688 280.800781 459.546875 280.414062 353.390625 C 208.167969 347.691406 109.816406 356.414062 183.703125 209.304688 C 147.363281 246.046875 128.199219 301.703125 136.960938 360.261719 C 145.582031 417.820312 179.230469 464.707031 223.59375 489.546875 C 223.984375 595.703125 307.25 692.625 425.980469 716.054688 C 497.957031 730.261719 568.042969 714.367188 621.269531 677.960938 C 640.011719 702.25 672.289062 721.847656 711.367188 729.558594 C 757.390625 738.644531 800.9375 728.90625 827.371094 706.984375 C 860.121094 780.574219 971.304688 809.789062 1082.445312 771.875 C 1181.167969 738.191406 1247.503906 662.554688 1247.8125 591.21875 "/><g clip-rule="nonzero" clip-path="url(#3fa3a46800)"><path style=" stroke:none;fill-rule:nonzero;fill:#fbe59c;fill-opacity:1;" d="M 1259.328125 337.863281 C 1279.101562 254.042969 1221.011719 177.925781 1144.625 184.445312 C 1143.886719 101.300781 1073.832031 24.335938 974.851562 4.800781 C 888.09375 -12.316406 805.195312 19.878906 764.269531 79.664062 C 726.984375 43.574219 664.507812 41.941406 628.699219 77.03125 C 604.023438 58.277344 574.746094 44.5 542.027344 38.042969 C 439.882812 17.886719 341.21875 74.742188 309.402344 167.289062 C 261.519531 159.773438 216.296875 176.347656 183.703125 209.304688 C 260.453125 168.566406 298.675781 212.457031 298.675781 212.457031 C 296.203125 229.222656 293.140625 250.902344 293.210938 259.582031 C 348.542969 127.757812 501.515625 113.945312 542.34375 156.65625 C 490.128906 212.886719 491.148438 295.890625 491.148438 295.890625 C 536.785156 145.261719 664.878906 128.082031 748.898438 180.777344 C 749.738281 181.484375 750.664062 182.164062 751.425781 182.902344 C 800.339844 214.136719 833.839844 262.296875 833.839844 262.296875 C 833.839844 262.296875 815.820312 198.042969 766.609375 163.839844 C 867.28125 53.335938 1071.804688 106.734375 1116.164062 241.699219 C 994.203125 263.710938 970.144531 360.300781 970.144531 360.300781 C 1085.082031 262.75 1169.167969 294.894531 1169.738281 295.117188 C 1221.464844 314.964844 1252.324219 374.589844 1240.019531 436.945312 C 1239.671875 438.691406 1239.167969 440.347656 1238.769531 442.0625 C 1280.1875 454.125 1313.269531 470.6875 1314.988281 524.183594 C 1320.117188 512.714844 1324.148438 500.289062 1326.75 487.089844 C 1340.464844 417.613281 1310.484375 352.761719 1259.328125 337.863281 "/></g></g></svg>