<svg xmlns="http://www.w3.org/2000/svg" xmlns:xlink="http://www.w3.org/1999/xlink" width="1920" zoomAndPan="magnify" viewBox="0 0 1440 809.999993" height="1080" preserveAspectRatio="xMidYMid meet" version="1.2"><defs><clipPath id="5b38a4954d"><path d="M 0 128.929688 L 1439.992188 128.929688 L 1439.992188 683.84375 L 0 683.84375 Z M 0 128.929688 "/></clipPath><clipPath id="ac8f2a9872"><path d="M 1365.621094 528.410156 C 1361.445312 528.410156 1357.0625 528.773438 1352.601562 529.328125 C 1354.746094 514.777344 1345.277344 499.382812 1329.070312 494.578125 C 1315.296875 490.496094 1299.324219 490.757812 1287.171875 494.679688 C 1285.636719 474.273438 1271.527344 453.160156 1248.703125 440.722656 C 1225.429688 428.042969 1199.515625 427.875 1181.484375 438.242188 C 1178.457031 422.296875 1166.414062 406.621094 1148.183594 397.558594 C 1135.191406 391.09375 1121.410156 389.191406 1109.285156 391.214844 C 1123.707031 341.160156 1097.875 283.402344 1044.824219 254.492188 C 1016.792969 239.21875 986.144531 234.816406 958.378906 239.730469 C 954.414062 216.078125 936.390625 194.519531 910.003906 185.523438 C 888.277344 178.121094 865.847656 180.953125 848.769531 191.261719 C 835.761719 158.011719 799.644531 132.496094 755.375 129.269531 C 712.597656 126.152344 674.324219 144.734375 655.828125 173.972656 C 642.246094 164.820312 623.820312 161.578125 605.488281 166.753906 C 589.261719 171.34375 576.429688 181.601562 568.980469 194.230469 C 547.929688 172.777344 509.230469 167.730469 473.519531 184.144531 C 441.539062 198.84375 421.039062 226.582031 418.949219 253.722656 C 388.269531 243.558594 351.175781 244.402344 315.414062 258.832031 C 260.179688 281.117188 225.027344 328.855469 224.410156 375.660156 C 211.683594 368.472656 196.894531 364.277344 181.046875 364.277344 C 138.292969 364.277344 102.976562 394.308594 96.675781 433.484375 C 92.050781 432.785156 87.320312 432.351562 82.464844 432.351562 C 37.070312 432.351562 0.269531 464.183594 0.269531 503.449219 C 0.269531 542.714844 37.070312 574.550781 82.464844 574.550781 C 96.476562 574.550781 109.660156 571.5 121.207031 566.148438 C 126.382812 592.566406 156.699219 612.871094 193.425781 612.871094 C 214.527344 612.871094 233.484375 606.136719 246.824219 595.433594 C 254.925781 645.332031 306.410156 683.84375 368.878906 683.84375 C 418.425781 683.84375 461.035156 659.578125 480.625 624.667969 C 492.308594 636.191406 508.621094 643.375 526.710938 643.375 C 556.523438 643.375 581.523438 623.890625 588.796875 597.5 C 608.730469 625.359375 645.671875 644.136719 688.066406 644.136719 C 724.925781 644.136719 757.652344 629.929688 778.6875 607.925781 C 804.789062 635.804688 846.617188 653.96875 893.929688 653.96875 C 943.152344 653.96875 986.554688 634.378906 1012.355469 604.558594 C 1025.429688 636.234375 1064.984375 659.261719 1111.761719 659.261719 C 1135.628906 659.261719 1157.550781 653.207031 1175.097656 643.128906 C 1192.8125 658.570312 1227.898438 669.09375 1268.332031 669.09375 C 1300.042969 669.09375 1328.40625 662.59375 1347.753906 652.359375 C 1353.90625 653.378906 1359.933594 653.96875 1365.621094 653.96875 C 1406.691406 653.96875 1439.988281 625.859375 1439.988281 591.1875 C 1439.988281 556.515625 1406.691406 528.410156 1365.621094 528.410156 Z M 1365.621094 528.410156 "/></clipPath><clipPath id="813f1d709f"><path d="M 1365.625 528.410156 C 1361.453125 528.410156 1357.0625 528.773438 1352.601562 529.328125 C 1354.746094 514.773438 1345.277344 499.382812 1329.074219 494.578125 C 1315.300781 490.492188 1299.320312 490.757812 1287.175781 494.679688 C 1285.636719 474.273438 1271.527344 453.160156 1248.703125 440.722656 C 1225.429688 428.042969 1199.519531 427.871094 1181.488281 438.242188 C 1178.460938 422.296875 1166.417969 406.621094 1148.183594 397.558594 C 1135.195312 391.09375 1121.414062 389.191406 1109.289062 391.214844 C 1123.710938 341.15625 1097.878906 283.402344 1044.832031 254.492188 C 1016.800781 239.21875 986.144531 234.8125 958.378906 239.730469 C 954.421875 216.078125 936.390625 194.515625 910.003906 185.523438 C 888.277344 178.121094 865.847656 180.949219 848.769531 191.261719 C 835.761719 158.011719 799.644531 132.496094 755.378906 129.269531 C 712.601562 126.152344 674.324219 144.734375 655.828125 173.972656 C 642.246094 164.820312 623.820312 161.578125 605.492188 166.753906 C 589.261719 171.339844 576.433594 181.597656 568.980469 194.226562 C 547.933594 172.777344 509.234375 167.726562 473.519531 184.144531 C 441.539062 198.84375 421.039062 226.582031 418.953125 253.722656 C 388.269531 243.558594 351.179688 244.402344 315.414062 258.832031 C 260.179688 281.117188 225.027344 328.855469 224.410156 375.660156 C 211.683594 368.472656 196.894531 364.277344 181.046875 364.277344 C 138.292969 364.277344 102.976562 394.308594 96.675781 433.484375 C 92.050781 432.785156 87.320312 432.351562 82.464844 432.351562 C 37.070312 432.351562 0.269531 464.183594 0.269531 503.449219 C 0.269531 542.714844 37.070312 574.546875 82.464844 574.546875 C 96.476562 574.546875 109.660156 571.5 121.207031 566.148438 C 126.382812 592.566406 156.699219 612.871094 193.429688 612.871094 C 214.527344 612.871094 233.484375 606.136719 246.824219 595.433594 C 254.925781 645.332031 306.410156 683.84375 368.878906 683.84375 C 418.429688 683.84375 461.035156 659.578125 480.625 624.667969 C 492.308594 636.191406 508.625 643.375 526.710938 643.375 C 556.523438 643.375 581.527344 623.890625 588.796875 597.5 C 608.730469 625.359375 645.671875 644.132812 688.070312 644.132812 C 724.925781 644.132812 757.652344 629.929688 778.691406 607.925781 C 804.792969 635.804688 846.621094 653.96875 893.933594 653.96875 C 943.15625 653.96875 986.550781 634.378906 1012.355469 604.558594 C 1025.429688 636.234375 1064.980469 659.261719 1111.761719 659.261719 C 1135.628906 659.261719 1157.546875 653.203125 1175.101562 643.128906 C 1192.8125 658.570312 1227.90625 669.09375 1268.328125 669.09375 C 1300.042969 669.09375 1328.414062 662.59375 1347.757812 652.359375 C 1353.90625 653.378906 1359.933594 653.96875 1365.625 653.96875 C 1406.691406 653.96875 1439.988281 625.859375 1439.988281 591.1875 C 1439.988281 556.515625 1406.691406 528.410156 1365.625 528.410156 "/></clipPath><clipPath id="818c71afef"><path d="M 1484.097656 132.457031 L 9.425781 14.484375 L -43.839844 680.316406 L 1430.832031 798.289062 Z M 1484.097656 132.457031 "/></clipPath><linearGradient x1="-0.29368" gradientTransform="matrix(-32.04866,400.601527,-400.601527,-32.04866,748.30957,191.997268)" y1="0" x2="1.368398" gradientUnits="userSpaceOnUse" y2="0" id="85559acbe8"><stop style="stop-color:#feb95e;stop-opacity:1;" offset="0"/><stop style="stop-color:#feb95e;stop-opacity:1;" offset="0.125"/><stop style="stop-color:#feb95e;stop-opacity:1;" offset="0.1875"/><stop style="stop-color:#feb85e;stop-opacity:1;" offset="0.195313"/><stop style="stop-color:#feb75e;stop-opacity:1;" offset="0.203125"/><stop style="stop-color:#feb65e;stop-opacity:1;" offset="0.210938"/><stop style="stop-color:#feb65e;stop-opacity:1;" offset="0.21875"/><stop style="stop-color:#feb55e;stop-opacity:1;" offset="0.226563"/><stop style="stop-color:#feb45f;stop-opacity:1;" offset="0.234375"/><stop style="stop-color:#feb35f;stop-opacity:1;" offset="0.242188"/><stop style="stop-color:#feb25f;stop-opacity:1;" offset="0.25"/><stop style="stop-color:#feb15f;stop-opacity:1;" offset="0.265625"/><stop style="stop-color:#feb05f;stop-opacity:1;" offset="0.269531"/><stop style="stop-color:#feb05f;stop-opacity:1;" offset="0.273438"/><stop style="stop-color:#feaf5f;stop-opacity:1;" offset="0.28125"/><stop style="stop-color:#feae5f;stop-opacity:1;" offset="0.296875"/><stop style="stop-color:#feae5f;stop-opacity:1;" offset="0.304688"/><stop style="stop-color:#fead5f;stop-opacity:1;" offset="0.3125"/><stop style="stop-color:#feac60;stop-opacity:1;" offset="0.316406"/><stop style="stop-color:#feab60;stop-opacity:1;" offset="0.320313"/><stop style="stop-color:#feab60;stop-opacity:1;" offset="0.328125"/><stop style="stop-color:#feaa60;stop-opacity:1;" offset="0.335938"/><stop style="stop-color:#feaa60;stop-opacity:1;" offset="0.34375"/><stop style="stop-color:#fea960;stop-opacity:1;" offset="0.351563"/><stop style="stop-color:#fea860;stop-opacity:1;" offset="0.355469"/><stop style="stop-color:#fea760;stop-opacity:1;" offset="0.359375"/><stop style="stop-color:#fea660;stop-opacity:1;" offset="0.375"/><stop style="stop-color:#fea660;stop-opacity:1;" offset="0.382813"/><stop style="stop-color:#fea560;stop-opacity:1;" offset="0.390625"/><stop style="stop-color:#fea461;stop-opacity:1;" offset="0.398438"/><stop style="stop-color:#fea361;stop-opacity:1;" offset="0.40625"/><stop style="stop-color:#fea261;stop-opacity:1;" offset="0.414063"/><stop style="stop-color:#fea261;stop-opacity:1;" offset="0.421875"/><stop style="stop-color:#fea161;stop-opacity:1;" offset="0.4375"/><stop style="stop-color:#fea061;stop-opacity:1;" offset="0.441406"/><stop style="stop-color:#fe9f61;stop-opacity:1;" offset="0.445312"/><stop style="stop-color:#fe9e61;stop-opacity:1;" offset="0.453125"/><stop style="stop-color:#fe9d61;stop-opacity:1;" offset="0.46875"/><stop style="stop-color:#fe9d61;stop-opacity:1;" offset="0.476562"/><stop style="stop-color:#ff9c61;stop-opacity:1;" offset="0.480469"/><stop style="stop-color:#ff9b62;stop-opacity:1;" offset="0.484375"/><stop style="stop-color:#ff9a62;stop-opacity:1;" offset="0.5"/><stop style="stop-color:#ff9a62;stop-opacity:1;" offset="0.507812"/><stop style="stop-color:#ff9962;stop-opacity:1;" offset="0.515625"/><stop style="stop-color:#ff9862;stop-opacity:1;" offset="0.519531"/><stop style="stop-color:#ff9762;stop-opacity:1;" offset="0.523438"/><stop style="stop-color:#ff9762;stop-opacity:1;" offset="0.53125"/><stop style="stop-color:#ff9662;stop-opacity:1;" offset="0.539062"/><stop style="stop-color:#ff9662;stop-opacity:1;" offset="0.546875"/><stop style="stop-color:#ff9562;stop-opacity:1;" offset="0.554687"/><stop style="stop-color:#ff9462;stop-opacity:1;" offset="0.5625"/><stop style="stop-color:#ff9362;stop-opacity:1;" offset="0.566406"/><stop style="stop-color:#ff9363;stop-opacity:1;" offset="0.570312"/><stop style="stop-color:#ff9263;stop-opacity:1;" offset="0.578125"/><stop style="stop-color:#ff9163;stop-opacity:1;" offset="0.585938"/><stop style="stop-color:#ff9163;stop-opacity:1;" offset="0.59375"/><stop style="stop-color:#ff9063;stop-opacity:1;" offset="0.601562"/><stop style="stop-color:#ff8f63;stop-opacity:1;" offset="0.605469"/><stop style="stop-color:#ff8f63;stop-opacity:1;" offset="0.609375"/><stop style="stop-color:#ff8e63;stop-opacity:1;" offset="0.617188"/><stop style="stop-color:#ff8e63;stop-opacity:1;" offset="0.625"/><stop style="stop-color:#ff8d63;stop-opacity:1;" offset="0.640625"/><stop style="stop-color:#ff8c63;stop-opacity:1;" offset="0.644531"/><stop style="stop-color:#ff8b63;stop-opacity:1;" offset="0.648438"/><stop style="stop-color:#ff8a64;stop-opacity:1;" offset="0.65625"/><stop style="stop-color:#ff8a64;stop-opacity:1;" offset="0.671875"/><stop style="stop-color:#ff8964;stop-opacity:1;" offset="0.679687"/><stop style="stop-color:#ff8864;stop-opacity:1;" offset="0.6875"/><stop style="stop-color:#ff8764;stop-opacity:1;" offset="0.695312"/><stop style="stop-color:#ff8664;stop-opacity:1;" offset="0.703125"/><stop style="stop-color:#ff8664;stop-opacity:1;" offset="0.710937"/><stop style="stop-color:#ff8564;stop-opacity:1;" offset="0.71875"/><stop style="stop-color:#ff8464;stop-opacity:1;" offset="0.726562"/><stop style="stop-color:#ff8364;stop-opacity:1;" offset="0.734375"/><stop style="stop-color:#ff8265;stop-opacity:1;" offset="0.742188"/><stop style="stop-color:#ff8265;stop-opacity:1;" offset="0.75"/><stop style="stop-color:#ff8165;stop-opacity:1;" offset="0.757812"/><stop style="stop-color:#ff8065;stop-opacity:1;" offset="0.765625"/><stop style="stop-color:#ff7f65;stop-opacity:1;" offset="0.769531"/><stop style="stop-color:#ff7f65;stop-opacity:1;" offset="0.773438"/><stop style="stop-color:#ff7e65;stop-opacity:1;" offset="0.78125"/><stop style="stop-color:#ff7e65;stop-opacity:1;" offset="0.8125"/><stop style="stop-color:#ff7e65;stop-opacity:1;" offset="0.875"/><stop style="stop-color:#ff7e65;stop-opacity:1;" offset="1"/></linearGradient><clipPath id="c590f531e3"><path d="M 0 432.050781 L 1439.992188 432.050781 L 1439.992188 683.84375 L 0 683.84375 Z M 0 432.050781 "/></clipPath></defs><g id="d5e2a63237"><g clip-rule="nonzero" clip-path="url(#5b38a4954d)"><g clip-rule="nonzero" clip-path="url(#ac8f2a9872)"><g clip-rule="nonzero" clip-path="url(#813f1d709f)"><g clip-rule="nonzero" clip-path="url(#818c71afef)"><path style=" stroke:none;fill-rule:nonzero;fill:url(#85559acbe8);" d="M 1484.097656 132.460938 L 9.425781 14.484375 L -43.839844 680.316406 L 1430.832031 798.289062 Z M 1484.097656 132.460938 "/></g></g></g></g><g clip-rule="nonzero" clip-path="url(#c590f531e3)"><path style=" stroke:none;fill-rule:nonzero;fill:#fd654e;fill-opacity:1;" d="M 1411.03125 541.550781 C 1392.152344 553.882812 1370.5625 556.867188 1347.75 553.085938 C 1294.1875 595.5 1240.414062 581.605469 1207.257812 564.859375 C 1202.1875 562.921875 1184.464844 552.011719 1175.101562 543.851562 C 1174.84375 544.003906 1174.554688 544.132812 1174.296875 544.28125 C 1161.222656 533.570312 1146.1875 518.027344 1132.8125 495.886719 C 1132.8125 495.886719 1135.640625 528.46875 1148.980469 554.757812 C 1091.722656 571.277344 1029.699219 547.285156 1012.355469 505.285156 C 968.0625 556.464844 870.816406 575.753906 809.035156 525.238281 C 819.15625 496.96875 821.1875 456.554688 821.1875 456.554688 C 785.347656 582.003906 535.476562 574.480469 688.066406 432.351562 C 571.753906 520.714844 455.015625 479.625 455.015625 479.625 C 559.515625 543.691406 494.402344 590.089844 368.875 584.570312 C 310.265625 581.992188 273.039062 560.375 250.957031 540.828125 C 233.324219 505.292969 304.839844 496.894531 304.839844 496.894531 C 228.695312 498.71875 181.046875 456.554688 181.046875 456.554688 C 223.917969 508.363281 175.980469 511.917969 175.777344 511.933594 C 147.351562 506.636719 125.523438 488.910156 121.203125 466.875 C 89.457031 481.578125 49.664062 476.839844 23.675781 453.808594 C -40.773438 510.917969 37.945312 604.71875 121.203125 566.148438 C 130.058594 611.328125 205.03125 628.972656 246.824219 595.433594 C 254.925781 645.332031 306.410156 683.84375 368.875 683.84375 C 418.445312 683.84375 461.066406 659.5625 480.648438 624.628906 C 515.3125 658.84375 575.875 644.089844 588.667969 597.324219 C 629.625 654.859375 728.46875 660.445312 778.6875 607.925781 C 837.71875 670.976562 956.867188 668.679688 1012.355469 604.558594 C 1033.523438 655.847656 1117.34375 676.292969 1175.101562 643.128906 C 1209.652344 673.246094 1298.820312 678.257812 1347.75 652.359375 C 1431.210938 666.199219 1471.371094 580.949219 1411.03125 541.550781 "/></g><path style=" stroke:none;fill-rule:nonzero;fill:#fd654e;fill-opacity:1;" d="M 386.023438 447.476562 C 345.863281 448.226562 273.332031 435.917969 245.589844 411.644531 C 291.222656 495.320312 386.023438 447.476562 386.023438 447.476562 "/><path style=" stroke:none;fill-rule:nonzero;fill:#fd654e;fill-opacity:1;" d="M 1037.257812 445.960938 C 941.203125 489.835938 858 427.8125 858 427.8125 C 936.664062 548.832031 1037.257812 445.960938 1037.257812 445.960938 "/><path style=" stroke:none;fill-rule:nonzero;fill:#fbe59c;fill-opacity:1;" d="M 1329.070312 494.578125 C 1315.175781 490.457031 1299.152344 490.867188 1286.960938 494.890625 C 1285.515625 474.414062 1271.613281 453.207031 1248.699219 440.722656 C 1225.351562 428 1199.421875 427.992188 1181.386719 438.472656 C 1175.902344 408.816406 1141.703125 385.863281 1109.25 391.332031 C 1123.742188 341.25 1097.914062 283.421875 1044.820312 254.496094 C 1016.792969 239.21875 986.144531 234.816406 958.371094 239.734375 C 954.414062 216.082031 936.382812 194.519531 910 185.523438 C 888.257812 178.121094 865.902344 181.09375 848.820312 191.425781 C 835.871094 158.097656 799.710938 132.5 755.371094 129.273438 C 712.546875 126.152344 674.226562 144.777344 655.757812 174.078125 C 627.632812 155.117188 586.4375 164.78125 569.054688 194.316406 C 523.917969 148.128906 424.039062 187.636719 418.949219 253.722656 C 388.269531 243.558594 351.175781 244.402344 315.414062 258.835938 C 260.179688 281.117188 225.027344 328.855469 224.410156 375.660156 C 160.390625 339.503906 80.589844 393.984375 97.902344 464.632812 C 112.449219 430.902344 149.242188 415.648438 187 414.992188 C 210.597656 414.582031 225.492188 406.183594 233.609375 397.429688 C 233.625 397.425781 365.355469 353.691406 446.027344 419.238281 C 446.027344 419.238281 429.355469 400.933594 401.710938 382.628906 C 401.71875 382.628906 500.992188 310.722656 582.679688 360.191406 C 582.679688 360.191406 660.921875 302.71875 720.128906 341.058594 C 720.128906 341.058594 684.078125 284.28125 591 314.261719 C 591 314.261719 458.308594 279.132812 373.765625 366.523438 C 342.730469 351.25 303.863281 340.703125 261.542969 348.964844 C 295.132812 306 353.019531 284.148438 411.882812 303.824219 C 416.925781 237.773438 515.890625 198.207031 560.636719 244.410156 C 577.867188 214.878906 618.691406 205.21875 646.5625 224.175781 C 688.910156 156.382812 809.351562 167.429688 837.890625 241.527344 C 872.269531 220.550781 917.203125 234.292969 937.097656 265.519531 C 892.265625 278.761719 870.855469 321.921875 870.855469 321.921875 C 920.234375 280.015625 994.820312 290.753906 996.425781 290.992188 C 1064.074219 306.140625 1115.199219 374.390625 1095.976562 441.429688 C 1128.144531 435.960938 1162.042969 458.917969 1167.460938 488.570312 C 1203.84375 467.246094 1258.191406 492.96875 1269.847656 533.226562 C 1299.890625 513.285156 1352.644531 529.195312 1352.644531 529.195312 C 1354.546875 515.289062 1346.429688 499.726562 1329.070312 494.578125 "/></g></svg>